SplineFontDB: 3.0
FontName: SixCaps-Light
FullName: Six Caps
FamilyName: Six Caps
Weight: Light
Copyright: Copyright (c) 2010 by vernon adams (vern@newtypography.co.uk), with Reserved Font Name Six Caps.
Version: 1
ItalicAngle: 0
UnderlinePosition: -232
UnderlineWidth: 41
Ascent: 1638
Descent: 410
sfntRevision: 0x00010000
LayerCount: 2
Layer: 0 1 "Back"  1
Layer: 1 1 "Fore"  0
XUID: [1021 332 469972825 2161266]
FSType: 0
OS2Version: 2
OS2_WeightWidthSlopeOnly: 0
OS2_UseTypoMetrics: 1
CreationTime: 1290423263
ModificationTime: 1291252344
PfmFamily: 17
TTFWeight: 300
TTFWidth: 1
LineGap: 80
VLineGap: 0
Panose: 2 0 5 8 2 0 0 2 0 4
OS2TypoAscent: -375
OS2TypoAOffset: 1
OS2TypoDescent: 393
OS2TypoDOffset: 1
OS2TypoLinegap: 157
OS2WinAscent: 0
OS2WinAOffset: 1
OS2WinDescent: 0
OS2WinDOffset: 1
HheadAscent: 0
HheadAOffset: 1
HheadDescent: 0
HheadDOffset: 1
OS2SubXSize: 1434
OS2SubYSize: 1331
OS2SubXOff: 0
OS2SubYOff: 287
OS2SupXSize: 1434
OS2SupYSize: 1331
OS2SupXOff: 0
OS2SupYOff: 977
OS2StrikeYSize: 102
OS2StrikeYPos: 512
OS2Vendor: 'FFOR'
OS2CodePages: 20000001.00000000
OS2UnicodeRanges: a00002af.40002048.00000000.00000000
Lookup: 258 0 0 "'kern' Horizontal Kerning in Latin lookup 0"  {"'kern' Horizontal Kerning in Latin lookup 0 subtable"  } ['kern' ('latn' <'dflt' > ) ]
MarkAttachClasses: 1
DEI: 91125
TtTable: prep
PUSHW_1
 511
SCANCTRL
PUSHB_1
 1
SCANTYPE
SVTCA[y-axis]
MPPEM
PUSHB_1
 8
LT
IF
PUSHB_2
 1
 1
INSTCTRL
EIF
PUSHB_2
 70
 6
CALL
IF
POP
PUSHB_1
 16
EIF
MPPEM
PUSHB_1
 20
GT
IF
POP
PUSHB_1
 128
EIF
SCVTCI
PUSHB_1
 6
CALL
NOT
IF
SVTCA[y-axis]
PUSHB_1
 4
DUP
RCVT
PUSHB_1
 3
CALL
WCVTP
PUSHB_1
 5
DUP
RCVT
PUSHB_3
 4
 49
 2
CALL
PUSHB_1
 3
CALL
WCVTP
PUSHB_1
 6
DUP
RCVT
PUSHB_3
 5
 47
 2
CALL
PUSHB_1
 3
CALL
WCVTP
PUSHB_1
 7
DUP
RCVT
PUSHB_3
 6
 43
 2
CALL
PUSHB_1
 3
CALL
WCVTP
PUSHB_1
 8
DUP
RCVT
PUSHB_3
 7
 37
 2
CALL
PUSHB_1
 3
CALL
WCVTP
PUSHB_1
 9
DUP
RCVT
PUSHB_3
 8
 14
 2
CALL
PUSHB_1
 3
CALL
WCVTP
SVTCA[x-axis]
PUSHB_1
 10
DUP
RCVT
PUSHB_1
 3
CALL
WCVTP

StartChar: exclam
Encoding: 2 33 5
Width: 215
GlyphClass: 2
Flags: W
HStem: 0 125<50 163> 1443 20G<37 177>
VStem: 50 113<0 125 1445.65 1463> 75 64<224 691.429>
LayerCount: 2
Fore
SplineSet
177 1463 m 1,0,-1
 139 224 l 1,1,-1
 75 224 l 1,2,-1
 37 1463 l 1,3,-1
 177 1463 l 1,0,-1
163 125 m 1,4,-1
 163 0 l 1,5,-1
 50 0 l 1,6,-1
 50 125 l 1,7,-1
 163 125 l 1,4,-1
EndSplineSet
EndChar

StartChar: quotedbl
Encoding: 3 34 6
Width: 403
GlyphClass: 2
Flags: W
HStem: 1164 299<71 141 252 323>
VStem: 71 70<1164 1283.07> 252 71<1164 1286.47>
LayerCount: 2
Fore
SplineSet
358 1463 m 1,0,-1
 323 1164 l 1,1,-1
 252 1164 l 1,2,-1
 226 1463 l 1,3,-1
 358 1463 l 1,0,-1
177 1463 m 1,4,-1
 141 1164 l 1,5,-1
 71 1164 l 1,6,-1
 45 1463 l 1,7,-1
 177 1463 l 1,4,-1
EndSplineSet
EndChar

StartChar: numbersign
Encoding: 4 35 7
Width: 453
GlyphClass: 2
Flags: W
HStem: 0 21G<29 141.518 191 303.518> 606 87<7 76 193 238 355 433> 828 87<19 92 210 254 372 445> 1443 20G<134.65 247 296.613 409>
VStem: 29 111<0 111> 136 111<1352 1463> 191 111<0 111> 298 111<1352 1463>
DStem2: 29 0 140 0 0.0729426 0.997336<8.09662 607.814 703.117 830.39 925.765 1466.91> 191 0 302 0 0.0729426 0.997336<8.09662 607.814 703.117 830.39 925.765 1466.91>
LayerCount: 2
Fore
SplineSet
445 828 m 1,0,-1
 365 828 l 1,1,-1
 355 693 l 1,2,-1
 441 693 l 1,3,-1
 433 606 l 1,4,-1
 348 606 l 1,5,-1
 302 0 l 1,6,-1
 191 0 l 1,7,-1
 238 606 l 1,8,-1
 186 606 l 1,9,-1
 140 0 l 1,10,-1
 29 0 l 1,11,-1
 76 606 l 1,12,-1
 0 606 l 1,13,-1
 7 693 l 1,14,-1
 82 693 l 1,15,-1
 92 828 l 1,16,-1
 11 828 l 1,17,-1
 19 916 l 1,18,-1
 99 915 l 1,19,-1
 136 1463 l 1,20,-1
 247 1463 l 1,21,-1
 210 915 l 1,22,-1
 260 915 l 1,23,-1
 298 1463 l 1,24,-1
 409 1463 l 1,25,-1
 372 915 l 1,26,-1
 453 915 l 1,27,-1
 445 828 l 1,0,-1
193 693 m 1,28,-1
 244 693 l 1,29,-1
 254 828 l 1,30,-1
 203 828 l 1,31,-1
 193 693 l 1,28,-1
EndSplineSet
EndChar

StartChar: dollar
Encoding: 5 36 8
Width: 383
GlyphClass: 2
Flags: W
VStem: 43 112<98.7985 612 882.564 1372.69> 152 87<-199 5.625 1457.34 1662> 226 113<98.7985 662.582 920 1373.2>
DStem2: 247 790 100.5 821 0.469155 -0.883116<-271.27 236.475>
LayerCount: 2
Fore
SplineSet
152 -11 m 1,0,1
 106 0 106 0 74.5 33.5 c 128,-1,2
 43 67 43 67 43 124 c 2,3,-1
 43 612 l 1,4,-1
 155 612 l 1,5,-1
 155 124 l 2,6,7
 155 108 155 108 165.5 98.5 c 128,-1,8
 176 89 176 89 193 89 c 0,9,10
 207 89 207 89 216.5 98.5 c 128,-1,11
 226 108 226 108 226 124 c 2,12,-1
 226 349 l 2,13,14
 226 437 226 437 218 500.5 c 128,-1,15
 210 564 210 564 197.5 611 c 128,-1,16
 185 658 185 658 168.5 693 c 128,-1,17
 152 728 152 728 134.5 759 c 128,-1,18
 117 790 117 790 100.5 821 c 128,-1,19
 84 852 84 852 71.5 891 c 128,-1,20
 59 930 59 930 51 981.5 c 128,-1,21
 43 1033 43 1033 43 1105 c 2,22,-1
 43 1349 l 2,23,24
 43 1400 43 1400 73.5 1430.5 c 128,-1,25
 104 1461 104 1461 152 1474 c 1,26,-1
 152 1662 l 1,27,-1
 239 1662 l 1,28,-1
 239 1472 l 1,29,30
 284 1458 284 1458 311.5 1428 c 128,-1,31
 339 1398 339 1398 339 1352 c 2,32,-1
 339 920 l 1,33,-1
 226 920 l 1,34,-1
 226 1351 l 2,35,36
 226 1364 226 1364 216.5 1373.5 c 128,-1,37
 207 1383 207 1383 193 1383 c 0,38,39
 177 1383 177 1383 166 1373 c 128,-1,40
 155 1363 155 1363 155 1349 c 2,41,-1
 155 1143 l 2,42,43
 155 1072 155 1072 163 1019.5 c 128,-1,44
 171 967 171 967 184 926 c 128,-1,45
 197 885 197 885 213.5 852.5 c 128,-1,46
 230 820 230 820 247 790 c 128,-1,47
 264 760 264 760 280.5 728.5 c 128,-1,48
 297 697 297 697 310 658.5 c 128,-1,49
 323 620 323 620 331 571 c 128,-1,50
 339 522 339 522 339 457 c 2,51,-1
 339 128 l 2,52,53
 339 69 339 69 313.5 35.5 c 128,-1,54
 288 2 288 2 239 -11 c 1,55,-1
 239 -199 l 1,56,-1
 152 -199 l 1,57,-1
 152 -11 l 1,0,1
EndSplineSet
EndChar

StartChar: percent
Encoding: 6 37 9
Width: 901
GlyphClass: 2
Flags: W
HStem: 0 21G<314 427.146> 176 82<681.158 741.344> 576 82<154.158 214.344> 804 79<686.572 741.344> 1204 79<159.572 214.344> 1443 20G<468.854 582>
VStem: 40 114<658.193 1195.75> 219 115<665.735 1195.75> 314 111<0 111> 471 111<1352 1463> 567 114<258.193 795.749> 746 115<265.735 795.749>
DStem2: 314 0 425 0 0.106701 0.994291<11.8438 1471.4>
LayerCount: 2
Fore
SplineSet
861 301 m 2,0,1
 861 275 861 275 849 252.5 c 128,-1,2
 837 230 837 230 817 213 c 128,-1,3
 797 196 797 196 770.5 186 c 128,-1,4
 744 176 744 176 715 176 c 0,5,6
 685 176 685 176 658 186 c 128,-1,7
 631 196 631 196 610.5 213.5 c 128,-1,8
 590 231 590 231 578.5 254.5 c 128,-1,9
 567 278 567 278 567 305 c 2,10,-1
 567 755 l 2,11,12
 567 782 567 782 578.5 805 c 128,-1,13
 590 828 590 828 610.5 845.5 c 128,-1,14
 631 863 631 863 658 873 c 128,-1,15
 685 883 685 883 715 883 c 0,16,17
 744 883 744 883 770.5 873.5 c 128,-1,18
 797 864 797 864 817 847.5 c 128,-1,19
 837 831 837 831 849 807.5 c 128,-1,20
 861 784 861 784 861 757 c 2,21,-1
 861 301 l 2,0,1
746 775 m 2,22,23
 746 788 746 788 737 796 c 128,-1,24
 728 804 728 804 715 804 c 256,25,26
 702 804 702 804 691.5 796 c 128,-1,27
 681 788 681 788 681 775 c 2,28,-1
 681 284 l 2,29,30
 681 277 681 277 689.5 267.5 c 128,-1,31
 698 258 698 258 715 258 c 0,32,33
 728 258 728 258 737 265.5 c 128,-1,34
 746 273 746 273 746 284 c 2,35,-1
 746 775 l 2,22,23
334 701 m 2,36,37
 334 675 334 675 322 652.5 c 128,-1,38
 310 630 310 630 290 613 c 128,-1,39
 270 596 270 596 243.5 586 c 128,-1,40
 217 576 217 576 188 576 c 0,41,42
 158 576 158 576 131 586 c 128,-1,43
 104 596 104 596 83.5 613.5 c 128,-1,44
 63 631 63 631 51.5 654.5 c 128,-1,45
 40 678 40 678 40 705 c 2,46,-1
 40 1155 l 2,47,48
 40 1182 40 1182 51.5 1205 c 128,-1,49
 63 1228 63 1228 83.5 1245.5 c 128,-1,50
 104 1263 104 1263 131 1273 c 128,-1,51
 158 1283 158 1283 188 1283 c 0,52,53
 217 1283 217 1283 243.5 1273.5 c 128,-1,54
 270 1264 270 1264 290 1247.5 c 128,-1,55
 310 1231 310 1231 322 1207.5 c 128,-1,56
 334 1184 334 1184 334 1157 c 2,57,-1
 334 701 l 2,36,37
219 1175 m 2,58,59
 219 1188 219 1188 210 1196 c 128,-1,60
 201 1204 201 1204 188 1204 c 256,61,62
 175 1204 175 1204 164.5 1196 c 128,-1,63
 154 1188 154 1188 154 1175 c 2,64,-1
 154 684 l 2,65,66
 154 677 154 677 162.5 667.5 c 128,-1,67
 171 658 171 658 188 658 c 0,68,69
 201 658 201 658 210 665.5 c 128,-1,70
 219 673 219 673 219 684 c 2,71,-1
 219 1175 l 2,58,59
582 1463 m 1,72,-1
 425 0 l 1,73,-1
 314 0 l 1,74,-1
 471 1463 l 1,75,-1
 582 1463 l 1,72,-1
EndSplineSet
EndChar

StartChar: ampersand
Encoding: 7 38 10
Width: 408
GlyphClass: 2
Flags: W
HStem: -17 90<154.397 226.978> 528 94<345 417> 711.5 98.5<155.838 234> 1390 92<154.397 226.978>
VStem: 43 111<73.5977 711.084 810.227 1389.63> 233 184<530 622> 233 112<83.3132 528 894 1380.72>
LayerCount: 2
Fore
SplineSet
345 894 m 1,0,-1
 233 894 l 1,1,-1
 233 1361 l 2,2,3
 233 1372 233 1372 222 1381 c 128,-1,4
 211 1390 211 1390 192 1390 c 0,5,6
 177 1390 177 1390 165.5 1381 c 128,-1,7
 154 1372 154 1372 154 1361 c 2,8,-1
 154 882 l 2,9,10
 154 855 154 855 159.5 840 c 128,-1,11
 165 825 165 825 175 818 c 128,-1,12
 185 811 185 811 200 810 c 128,-1,13
 215 809 215 809 234 809 c 1,14,-1
 234 712 l 1,15,16
 215 712 215 712 200 711.5 c 128,-1,17
 185 711 185 711 175 706.5 c 128,-1,18
 165 702 165 702 159.5 691.5 c 128,-1,19
 154 681 154 681 154 662 c 2,20,-1
 154 106 l 2,21,22
 154 93 154 93 165.5 83 c 128,-1,23
 177 73 177 73 192 73 c 0,24,25
 211 73 211 73 222 83 c 128,-1,26
 233 93 233 93 233 106 c 2,27,-1
 233 622 l 1,28,-1
 418 622 l 1,29,-1
 417 530 l 1,30,-1
 345 528 l 1,31,-1
 345 103 l 2,32,33
 345 78 345 78 333 56.5 c 128,-1,34
 321 35 321 35 300 18.5 c 128,-1,35
 279 2 279 2 251 -7.5 c 128,-1,36
 223 -17 223 -17 192 -17 c 0,37,38
 162 -17 162 -17 135 -7.5 c 128,-1,39
 108 2 108 2 87.5 19 c 128,-1,40
 67 36 67 36 55 58 c 128,-1,41
 43 80 43 80 43 106 c 2,42,-1
 43 665 l 2,43,44
 43 698 43 698 56 718.5 c 128,-1,45
 69 739 69 739 86 750 c 1,46,47
 104 763 104 763 129 769 c 1,48,49
 104 775 104 775 86 789 c 0,50,51
 69 801 69 801 56 823 c 128,-1,52
 43 845 43 845 43 882 c 2,53,-1
 43 1361 l 2,54,55
 43 1386 43 1386 55 1408 c 128,-1,56
 67 1430 67 1430 87.5 1446.5 c 128,-1,57
 108 1463 108 1463 135 1472.5 c 128,-1,58
 162 1482 162 1482 192 1482 c 0,59,60
 223 1482 223 1482 251 1472.5 c 128,-1,61
 279 1463 279 1463 300 1447 c 128,-1,62
 321 1431 321 1431 333 1408.5 c 128,-1,63
 345 1386 345 1386 345 1361 c 2,64,-1
 345 894 l 1,0,-1
EndSplineSet
EndChar

StartChar: quotesingle
Encoding: 8 39 11
Width: 227
GlyphClass: 2
Flags: W
HStem: 1164 299<73 144>
VStem: 73 71<1164 1286.47>
LayerCount: 2
Fore
SplineSet
179 1463 m 1,0,-1
 144 1164 l 1,1,-1
 73 1164 l 1,2,-1
 47 1463 l 1,3,-1
 179 1463 l 1,0,-1
EndSplineSet
EndChar

StartChar: parenleft
Encoding: 9 40 12
Width: 328
GlyphClass: 2
Flags: W
HStem: -91 96<239.075 295> 1460 98<237.675 295>
VStem: 60 111<137.753 1329.36>
LayerCount: 2
Fore
SplineSet
60 738 m 256,0,1
 60 810 60 810 61 898.5 c 128,-1,2
 62 987 62 987 68.5 1078 c 128,-1,3
 75 1169 75 1169 89.5 1255.5 c 128,-1,4
 104 1342 104 1342 130 1409 c 128,-1,5
 156 1476 156 1476 196 1517 c 128,-1,6
 236 1558 236 1558 295 1558 c 1,7,-1
 295 1460 l 1,8,9
 264 1460 264 1460 243 1425.5 c 128,-1,10
 222 1391 222 1391 208 1333 c 128,-1,11
 194 1275 194 1275 186.5 1200.5 c 128,-1,12
 179 1126 179 1126 175.5 1045.5 c 128,-1,13
 172 965 172 965 171.5 885.5 c 128,-1,14
 171 806 171 806 171 738 c 0,15,16
 171 671 171 671 172 590 c 128,-1,17
 173 509 173 509 176.5 428 c 128,-1,18
 180 347 180 347 187.5 270.5 c 128,-1,19
 195 194 195 194 208.5 135 c 128,-1,20
 222 76 222 76 243 40.5 c 128,-1,21
 264 5 264 5 295 5 c 1,22,-1
 295 -91 l 1,23,24
 236 -91 236 -91 195.5 -49.5 c 128,-1,25
 155 -8 155 -8 129 60 c 128,-1,26
 103 128 103 128 89 215.5 c 128,-1,27
 75 303 75 303 68.5 395 c 128,-1,28
 62 487 62 487 61 576.5 c 128,-1,29
 60 666 60 666 60 738 c 256,0,1
EndSplineSet
EndChar

StartChar: asterisk
Encoding: 11 42 14
Width: 495
GlyphClass: 2
Flags: W
HStem: 1213 80<20 177 319 475> 1453 20G<130.341 176.086 319.914 366.146>
VStem: 20 455<1213 1293>
DStem2: 164 1473 95 1432 0.514178 -0.857683<0 161.582 302.695 462.047> 95 1076 165 1035 0.512586 0.858636<0.67696 159.665 301.489 462.361>
LayerCount: 2
Fore
SplineSet
332 1035 m 1,0,-1
 248 1172 l 1,1,-1
 165 1035 l 1,2,-1
 95 1076 l 1,3,-1
 177 1213 l 1,4,-1
 20 1213 l 1,5,-1
 20 1293 l 1,6,-1
 178 1293 l 1,7,-1
 95 1432 l 1,8,-1
 164 1473 l 1,9,-1
 248 1334 l 1,10,-1
 332 1473 l 1,11,-1
 402 1432 l 1,12,-1
 318 1294 l 1,13,-1
 475 1295 l 1,14,-1
 475 1213 l 1,15,-1
 319 1213 l 1,16,-1
 402 1076 l 1,17,-1
 332 1035 l 1,0,-1
EndSplineSet
EndChar

StartChar: plus
Encoding: 12 43 15
Width: 556
GlyphClass: 2
Flags: W
HStem: 626 109<24 223 334 531>
VStem: 223 111<412 626 735 948>
LayerCount: 2
Fore
SplineSet
24 735 m 1,0,-1
 223 735 l 1,1,-1
 223 948 l 1,2,-1
 334 948 l 1,3,-1
 334 735 l 1,4,-1
 531 735 l 1,5,-1
 531 626 l 1,6,-1
 334 626 l 1,7,-1
 334 412 l 1,8,-1
 223 412 l 1,9,-1
 223 626 l 1,10,-1
 24 626 l 1,11,-1
 24 735 l 1,0,-1
EndSplineSet
EndChar

StartChar: comma
Encoding: 13 44 16
Width: 212
GlyphClass: 2
Flags: W
HStem: -147 300<31 135>
VStem: 31 152<63.4 153> 31 104<-147 -57.4>
LayerCount: 2
Fore
SplineSet
183 153 m 1,0,-1
 135 -147 l 1,1,-1
 31 -147 l 1,2,-1
 31 153 l 1,3,-1
 183 153 l 1,0,-1
EndSplineSet
EndChar

StartChar: hyphen
Encoding: 14 45 17
Width: 574
GlyphClass: 2
Flags: W
HStem: 623 112<19 555>
VStem: 19 536<623 735>
LayerCount: 2
Fore
SplineSet
555 623 m 1,0,-1
 19 623 l 1,1,-1
 19 735 l 1,2,-1
 555 735 l 1,3,-1
 555 623 l 1,0,-1
EndSplineSet
EndChar

StartChar: period
Encoding: 15 46 18
Width: 212
GlyphClass: 2
Flags: W
HStem: 0 153<32 184>
VStem: 32 152<0 153>
LayerCount: 2
Fore
SplineSet
184 153 m 1,0,-1
 184 0 l 1,1,-1
 32 0 l 1,2,-1
 32 153 l 1,3,-1
 184 153 l 1,0,-1
EndSplineSet
EndChar

StartChar: slash
Encoding: 16 47 19
Width: 288
GlyphClass: 2
Flags: W
HStem: 0 21G<10 123.146> 1443 20G<164.854 278>
VStem: 10 111<0 111> 167 111<1352 1463>
DStem2: 10 0 121 0 0.106701 0.994291<11.8438 1471.4>
LayerCount: 2
Fore
SplineSet
278 1463 m 1,0,-1
 121 0 l 1,1,-1
 10 0 l 1,2,-1
 167 1463 l 1,3,-1
 278 1463 l 1,0,-1
EndSplineSet
EndChar

StartChar: zero
Encoding: 17 48 20
Width: 375
GlyphClass: 2
Flags: W
HStem: 0 98<154.337 215.527> 1359 96<162.698 215.527>
VStem: 43 111<98.665 1350.75> 220 112<106.766 1350.75>
LayerCount: 2
Fore
SplineSet
332 123 m 2,0,1
 332 97 332 97 320.5 75 c 128,-1,2
 309 53 309 53 289.5 36 c 128,-1,3
 270 19 270 19 244 9.5 c 128,-1,4
 218 0 218 0 189 0 c 0,5,6
 159 0 159 0 132.5 10 c 128,-1,7
 106 20 106 20 86 37 c 128,-1,8
 66 54 66 54 54.5 77 c 128,-1,9
 43 100 43 100 43 127 c 2,10,-1
 43 1330 l 2,11,12
 43 1356 43 1356 54.5 1378.5 c 128,-1,13
 66 1401 66 1401 86 1418 c 128,-1,14
 106 1435 106 1435 132.5 1445 c 128,-1,15
 159 1455 159 1455 189 1455 c 0,16,17
 218 1455 218 1455 244 1445.5 c 128,-1,18
 270 1436 270 1436 289.5 1419.5 c 128,-1,19
 309 1403 309 1403 320.5 1380 c 128,-1,20
 332 1357 332 1357 332 1331 c 2,21,-1
 332 123 l 2,0,1
220 1330 m 2,22,23
 220 1343 220 1343 211.5 1351 c 128,-1,24
 203 1359 203 1359 189 1359 c 0,25,26
 176 1359 176 1359 167 1351 c 128,-1,27
 158 1343 158 1343 158 1330 c 0,28,29
 158 1315 158 1315 157.5 1253.5 c 128,-1,30
 157 1192 157 1192 157 1099 c 128,-1,31
 157 1006 157 1006 156 887.5 c 128,-1,32
 155 769 155 769 155 640.5 c 128,-1,33
 155 512 155 512 154.5 380 c 128,-1,34
 154 248 154 248 154 127 c 1,35,36
 156 114 156 114 165.5 106 c 128,-1,37
 175 98 175 98 189 98 c 256,38,39
 203 98 203 98 211.5 106.5 c 128,-1,40
 220 115 220 115 220 127 c 2,41,-1
 220 1330 l 2,22,23
EndSplineSet
EndChar

StartChar: one
Encoding: 18 49 21
Width: 330
GlyphClass: 2
Flags: W
HStem: 0 96<10 116 229 322> 1363 97<10 116>
VStem: 10 219<1363 1460> 116 113<96 1363>
LayerCount: 2
Fore
SplineSet
10 96 m 1,0,-1
 116 96 l 1,1,-1
 116 1363 l 1,2,-1
 10 1363 l 1,3,-1
 10 1460 l 1,4,-1
 229 1460 l 1,5,-1
 229 96 l 1,6,-1
 322 96 l 1,7,-1
 322 0 l 1,8,-1
 10 0 l 1,9,-1
 10 96 l 1,0,-1
EndSplineSet
EndChar

StartChar: two
Encoding: 19 50 22
Width: 347
GlyphClass: 2
Flags: W
HStem: 0 101<150 331> 1384 98<144.282 215.732>
VStem: 27 111<1070 1374.72>
DStem2: 220 1327 331 1332 0.143196 0.989694<-1223.39 43.4432>
LayerCount: 2
Fore
SplineSet
27 1361 m 2,0,1
 27 1386 27 1386 38 1408 c 128,-1,2
 49 1430 49 1430 69 1446.5 c 128,-1,3
 89 1463 89 1463 117 1472.5 c 128,-1,4
 145 1482 145 1482 178 1482 c 0,5,6
 212 1482 212 1482 242 1471 c 128,-1,7
 272 1460 272 1460 293.5 1440.5 c 128,-1,8
 315 1421 315 1421 325.5 1393 c 128,-1,9
 336 1365 336 1365 331 1332 c 2,10,-1
 150 101 l 1,11,-1
 331 101 l 1,12,-1
 331 0 l 1,13,-1
 28 0 l 1,14,-1
 220 1327 l 2,15,16
 225 1361 225 1361 211 1372.5 c 128,-1,17
 197 1384 197 1384 178 1384 c 0,18,19
 161 1384 161 1384 149.5 1375 c 128,-1,20
 138 1366 138 1366 138 1352 c 2,21,-1
 138 1070 l 1,22,-1
 27 1070 l 1,23,-1
 27 1361 l 2,0,1
EndSplineSet
EndChar

StartChar: three
Encoding: 20 51 23
Width: 356
GlyphClass: 2
Flags: W
HStem: -26 84<155.628 204.906> 705 86<123 205.871> 1399 84<155.628 205.406>
VStem: 42 108<64.1882 519 938 1392.81> 210 111<64.1882 705 791 1392.3>
LayerCount: 2
Fore
SplineSet
42 1376 m 2,0,1
 42 1398 42 1398 53.5 1418 c 128,-1,2
 65 1438 65 1438 84 1452 c 128,-1,3
 103 1466 103 1466 128 1474.5 c 128,-1,4
 153 1483 153 1483 179 1483 c 0,5,6
 208 1483 208 1483 233.5 1474.5 c 128,-1,7
 259 1466 259 1466 278.5 1451.5 c 128,-1,8
 298 1437 298 1437 309.5 1417 c 128,-1,9
 321 1397 321 1397 321 1374 c 2,10,-1
 321 814 l 2,11,12
 321 795 321 795 316 783 c 128,-1,13
 311 771 311 771 306 763 c 0,14,15
 299 754 299 754 291 748 c 1,16,17
 299 745 299 745 306 736 c 0,18,19
 311 728 311 728 316 715 c 128,-1,20
 321 702 321 702 321 682 c 2,21,-1
 321 83 l 2,22,23
 321 60 321 60 309.5 40 c 128,-1,24
 298 20 298 20 278.5 5.5 c 128,-1,25
 259 -9 259 -9 233.5 -17.5 c 128,-1,26
 208 -26 208 -26 179 -26 c 0,27,28
 153 -26 153 -26 128 -17.5 c 128,-1,29
 103 -9 103 -9 84 5 c 128,-1,30
 65 19 65 19 53.5 38.5 c 128,-1,31
 42 58 42 58 42 81 c 2,32,-1
 42 519 l 1,33,-1
 150 519 l 1,34,-1
 150 99 l 2,35,36
 150 88 150 88 152.5 79 c 128,-1,37
 155 70 155 70 161 64 c 128,-1,38
 167 58 167 58 179 58 c 0,39,40
 193 58 193 58 199.5 64 c 128,-1,41
 206 70 206 70 208.5 79 c 128,-1,42
 211 88 211 88 210.5 98.5 c 128,-1,43
 210 109 210 109 210 118 c 2,44,-1
 210 666 l 2,45,46
 210 682 210 682 206 693.5 c 128,-1,47
 202 705 202 705 182 705 c 2,48,-1
 123 705 l 1,49,-1
 123 791 l 1,50,-1
 182 791 l 2,51,52
 202 791 202 791 206 800 c 128,-1,53
 210 809 210 809 210 825 c 2,54,-1
 210 1337 l 2,55,56
 210 1346 210 1346 210.5 1357 c 128,-1,57
 211 1368 211 1368 209 1377 c 128,-1,58
 207 1386 207 1386 200.5 1392.5 c 128,-1,59
 194 1399 194 1399 179 1399 c 0,60,61
 167 1399 167 1399 161 1393 c 128,-1,62
 155 1387 155 1387 152.5 1378 c 128,-1,63
 150 1369 150 1369 150 1358 c 2,64,-1
 150 938 l 1,65,-1
 42 938 l 1,66,-1
 42 1376 l 2,0,1
EndSplineSet
EndChar

StartChar: four
Encoding: 21 52 24
Width: 370
GlyphClass: 2
Flags: W
HStem: 0 21G<217 328> 298 92<118 217>
VStem: 124 110<1351 1461> 217 111<0 298 390 961>
DStem2: 4 298 118 390 0.102637 0.994719<103.215 1169.17>
LayerCount: 2
Fore
SplineSet
328 961 m 1,0,-1
 328 0 l 1,1,-1
 217 0 l 1,2,-1
 217 298 l 1,3,-1
 4 298 l 1,4,-1
 124 1461 l 1,5,-1
 234 1461 l 1,6,-1
 118 390 l 1,7,-1
 217 390 l 1,8,-1
 217 961 l 1,9,-1
 328 961 l 1,0,-1
EndSplineSet
EndChar

StartChar: five
Encoding: 22 53 25
Width: 374
GlyphClass: 2
Flags: W
HStem: -17 90<161.101 221.52> 773 84<161.376 263.5> 1381 83<156 340>
VStem: 44 111<82.2854 633 714 760.619 822 1381> 227 113<82.2854 762.681>
LayerCount: 2
Fore
SplineSet
227 715 m 2,0,1
 227 753 227 753 218 763 c 128,-1,2
 209 773 209 773 195 773 c 0,3,4
 178 773 178 773 166.5 761 c 128,-1,5
 155 749 155 749 155 714 c 1,6,-1
 44 714 l 1,7,-1
 44 1464 l 1,8,-1
 340 1463 l 1,9,-1
 340 1381 l 1,10,-1
 156 1381 l 1,11,-1
 155 822 l 1,12,13
 162 831 162 831 173 839 c 0,14,15
 183 846 183 846 197.5 851.5 c 128,-1,16
 212 857 212 857 235 857 c 0,17,18
 292 857 292 857 316 819 c 128,-1,19
 340 781 340 781 340 712 c 2,20,-1
 340 135 l 2,21,22
 340 57 340 57 299 20 c 128,-1,23
 258 -17 258 -17 193 -17 c 0,24,25
 161 -17 161 -17 134 -8 c 128,-1,26
 107 1 107 1 87 20.5 c 128,-1,27
 67 40 67 40 55.5 69.5 c 128,-1,28
 44 99 44 99 44 141 c 2,29,-1
 44 633 l 1,30,-1
 155 633 l 1,31,-1
 155 117 l 2,32,33
 155 91 155 91 166 82 c 128,-1,34
 177 73 177 73 194 73 c 0,35,36
 208 73 208 73 217.5 82 c 128,-1,37
 227 91 227 91 227 117 c 2,38,-1
 227 715 l 2,0,1
EndSplineSet
EndChar

StartChar: six
Encoding: 23 54 26
Width: 374
GlyphClass: 2
Flags: W
HStem: -9 99<154.216 215.195> 749 96<154 219.878> 1371 96<154.304 215.195>
VStem: 43 111<90.4414 740 838 1370.54> 220 111<98.251 748.857 1004 1362.75>
LayerCount: 2
Fore
SplineSet
154 838 m 1,0,1
 156 838 156 838 169 841.5 c 128,-1,2
 182 845 182 845 196 845 c 0,3,4
 225 845 225 845 250 835.5 c 128,-1,5
 275 826 275 826 293 809.5 c 128,-1,6
 311 793 311 793 321 770.5 c 128,-1,7
 331 748 331 748 331 723 c 2,8,-1
 331 114 l 2,9,10
 331 88 331 88 319.5 65.5 c 128,-1,11
 308 43 308 43 288.5 26.5 c 128,-1,12
 269 10 269 10 243.5 0.5 c 128,-1,13
 218 -9 218 -9 189 -9 c 0,14,15
 159 -9 159 -9 132 1 c 128,-1,16
 105 11 105 11 85.5 28 c 128,-1,17
 66 45 66 45 54.5 68 c 128,-1,18
 43 91 43 91 43 118 c 2,19,-1
 43 1343 l 2,20,21
 43 1369 43 1369 54.5 1392 c 128,-1,22
 66 1415 66 1415 86 1431.5 c 128,-1,23
 106 1448 106 1448 132.5 1457.5 c 128,-1,24
 159 1467 159 1467 189 1467 c 0,25,26
 218 1467 218 1467 243.5 1457.5 c 128,-1,27
 269 1448 269 1448 288.5 1431.5 c 128,-1,28
 308 1415 308 1415 319.5 1392.5 c 128,-1,29
 331 1370 331 1370 331 1343 c 2,30,-1
 331 1004 l 1,31,-1
 220 1004 l 1,32,-1
 220 1343 l 2,33,34
 220 1355 220 1355 211 1363 c 128,-1,35
 202 1371 202 1371 189 1371 c 256,36,37
 176 1371 176 1371 165 1363 c 128,-1,38
 154 1355 154 1355 154 1343 c 2,39,-1
 154 838 l 1,0,1
189 749 m 0,40,41
 175 749 175 749 165.5 744.5 c 128,-1,42
 156 740 156 740 154 740 c 1,43,-1
 154 118 l 2,44,45
 154 106 154 106 165 98 c 128,-1,46
 176 90 176 90 189 90 c 256,47,48
 202 90 202 90 211 98 c 128,-1,49
 220 106 220 106 220 118 c 2,50,-1
 220 719 l 2,51,52
 220 729 220 729 210.5 739 c 128,-1,53
 201 749 201 749 189 749 c 0,40,41
EndSplineSet
EndChar

StartChar: seven
Encoding: 24 55 27
Width: 287
GlyphClass: 2
Flags: W
HStem: -1 21G<45 157.654> 1370 92<45 165>
VStem: 45 111<-1 110>
DStem2: 45 -1 156 -1 0.0824253 0.996597<9.14921 1376.23>
LayerCount: 2
Fore
SplineSet
45 -1 m 1,0,-1
 165 1370 l 1,1,-1
 45 1370 l 1,2,-1
 45 1462 l 1,3,-1
 277 1462 l 1,4,-1
 156 -1 l 1,5,-1
 45 -1 l 1,0,-1
EndSplineSet
EndChar

StartChar: eight
Encoding: 25 56 28
Width: 363
GlyphClass: 2
Flags: W
HStem: -9 98<149.216 214.838> 1370 97<154.562 210.47>
VStem: 37 113<89.118 671.433 849.503 1359.69> 215 110<89.75 671.177 850.132 1359.69>
LayerCount: 2
Fore
SplineSet
325 1108 m 2,0,1
 325 1039 325 1039 318 987 c 128,-1,2
 311 935 311 935 299 895.5 c 128,-1,3
 287 856 287 856 271 825 c 128,-1,4
 255 794 255 794 237 766 c 1,5,6
 254 738 254 738 270 708.5 c 128,-1,7
 286 679 286 679 298 643 c 128,-1,8
 310 607 310 607 317.5 562.5 c 128,-1,9
 325 518 325 518 325 459 c 2,10,-1
 325 115 l 2,11,12
 325 89 325 89 314 66 c 128,-1,13
 303 43 303 43 283.5 26.5 c 128,-1,14
 264 10 264 10 238 0.5 c 128,-1,15
 212 -9 212 -9 183 -9 c 0,16,17
 155 -9 155 -9 128.5 1 c 128,-1,18
 102 11 102 11 82 27.5 c 128,-1,19
 62 44 62 44 49.5 66.5 c 128,-1,20
 37 89 37 89 37 115 c 0,21,22
 37 224 37 224 38 305.5 c 128,-1,23
 39 387 39 387 42 449 c 128,-1,24
 45 511 45 511 51 556.5 c 128,-1,25
 57 602 57 602 67 638 c 128,-1,26
 77 674 77 674 91.5 704 c 128,-1,27
 106 734 106 734 127 766 c 1,28,29
 109 796 109 796 92.5 827 c 128,-1,30
 76 858 76 858 63.5 897.5 c 128,-1,31
 51 937 51 937 44 988 c 128,-1,32
 37 1039 37 1039 37 1110 c 2,33,-1
 37 1342 l 2,34,35
 37 1368 37 1368 48.5 1390.5 c 128,-1,36
 60 1413 60 1413 80 1430 c 128,-1,37
 100 1447 100 1447 126.5 1457 c 128,-1,38
 153 1467 153 1467 183 1467 c 0,39,40
 211 1467 211 1467 237 1457.5 c 128,-1,41
 263 1448 263 1448 282.5 1431.5 c 128,-1,42
 302 1415 302 1415 313.5 1392.5 c 128,-1,43
 325 1370 325 1370 325 1345 c 2,44,-1
 325 1108 l 2,0,1
149 124 m 1,45,46
 150 113 150 113 158 101 c 128,-1,47
 166 89 166 89 183 89 c 0,48,49
 198 89 198 89 206.5 101 c 128,-1,50
 215 113 215 113 215 124 c 2,51,-1
 215 327 l 2,52,53
 215 379 215 379 212.5 432.5 c 128,-1,54
 210 486 210 486 205.5 533.5 c 128,-1,55
 201 581 201 581 195.5 617.5 c 128,-1,56
 190 654 190 654 183 672 c 1,57,58
 175 654 175 654 169 618 c 128,-1,59
 163 582 163 582 158.5 535 c 128,-1,60
 154 488 154 488 151.5 433.5 c 128,-1,61
 149 379 149 379 149 325 c 2,62,-1
 149 124 l 1,45,46
215 1334 m 2,63,64
 215 1350 215 1350 206.5 1360 c 128,-1,65
 198 1370 198 1370 183 1370 c 0,66,67
 167 1370 167 1370 158.5 1360 c 128,-1,68
 150 1350 150 1350 150 1334 c 2,69,-1
 150 1096 l 2,70,71
 150 1061 150 1061 152.5 1024.5 c 128,-1,72
 155 988 155 988 159.5 954.5 c 128,-1,73
 164 921 164 921 170 893 c 128,-1,74
 176 865 176 865 183 849 c 1,75,76
 198 885 198 885 206.5 951.5 c 128,-1,77
 215 1018 215 1018 215 1096 c 2,78,-1
 215 1334 l 2,63,64
EndSplineSet
EndChar

StartChar: nine
Encoding: 26 57 29
Width: 375
GlyphClass: 2
Flags: W
HStem: -10 97<154.164 219.696> 612 98<154.391 220> 1369 97<154.164 219.784>
VStem: 43 111<87.2217 455 710.363 1368.88> 220 112<87.6992 622 719 1368.27>
LayerCount: 2
Fore
SplineSet
220 622 m 1,0,1
 218 622 218 622 205.5 617 c 128,-1,2
 193 612 193 612 179 612 c 0,3,4
 150 612 150 612 125 622 c 128,-1,5
 100 632 100 632 82 649 c 128,-1,6
 64 666 64 666 54 688.5 c 128,-1,7
 44 711 44 711 43 737 c 1,8,-1
 43 1343 l 2,9,10
 43 1370 43 1370 54.5 1392.5 c 128,-1,11
 66 1415 66 1415 85.5 1431.5 c 128,-1,12
 105 1448 105 1448 130.5 1457 c 128,-1,13
 156 1466 156 1466 185 1466 c 0,14,15
 215 1466 215 1466 242 1456.5 c 128,-1,16
 269 1447 269 1447 289 1430 c 128,-1,17
 309 1413 309 1413 320.5 1389.5 c 128,-1,18
 332 1366 332 1366 332 1339 c 2,19,-1
 332 116 l 2,20,21
 332 90 332 90 320.5 67 c 128,-1,22
 309 44 309 44 288.5 27 c 128,-1,23
 268 10 268 10 241.5 0 c 128,-1,24
 215 -10 215 -10 185 -10 c 0,25,26
 156 -10 156 -10 130.5 -0.5 c 128,-1,27
 105 9 105 9 85.5 25.5 c 128,-1,28
 66 42 66 42 54.5 65 c 128,-1,29
 43 88 43 88 43 114 c 2,30,-1
 43 455 l 1,31,-1
 154 455 l 1,32,-1
 154 116 l 2,33,34
 154 104 154 104 163.5 95.5 c 128,-1,35
 173 87 173 87 185 87 c 0,36,37
 198 87 198 87 209 95.5 c 128,-1,38
 220 104 220 104 220 116 c 2,39,-1
 220 622 l 1,0,1
185 710 m 0,40,41
 200 710 200 710 209 714.5 c 128,-1,42
 218 719 218 719 220 719 c 1,43,-1
 220 1339 l 2,44,45
 220 1351 220 1351 209 1360 c 128,-1,46
 198 1369 198 1369 185 1369 c 0,47,48
 173 1369 173 1369 163.5 1360 c 128,-1,49
 154 1351 154 1351 154 1339 c 2,50,-1
 154 739 l 2,51,52
 154 728 154 728 164 719 c 128,-1,53
 174 710 174 710 185 710 c 0,40,41
EndSplineSet
EndChar

StartChar: colon
Encoding: 27 58 30
Width: 226
GlyphClass: 2
Flags: W
HStem: 245 153<34 186> 793 154<34 186>
VStem: 34 152<245 398 793 947>
LayerCount: 2
Fore
SplineSet
186 947 m 1,0,-1
 186 793 l 1,1,-1
 34 793 l 1,2,-1
 34 947 l 1,3,-1
 186 947 l 1,0,-1
186 398 m 1,4,-1
 186 245 l 1,5,-1
 34 245 l 1,6,-1
 34 398 l 1,7,-1
 186 398 l 1,4,-1
EndSplineSet
EndChar

StartChar: semicolon
Encoding: 28 59 31
Width: 226
GlyphClass: 2
Flags: W
HStem: 793 154<42 193>
VStem: 41 152<285.4 375 793 947> 41 104<75 164.6>
LayerCount: 2
Fore
SplineSet
193 947 m 1,0,-1
 193 793 l 1,1,-1
 42 793 l 1,2,-1
 42 947 l 1,3,-1
 193 947 l 1,0,-1
193 375 m 1,4,-1
 145 75 l 1,5,-1
 41 75 l 1,6,-1
 41 375 l 1,7,-1
 193 375 l 1,4,-1
EndSplineSet
EndChar

StartChar: equal
Encoding: 30 61 33
Width: 574
GlyphClass: 2
Flags: W
HStem: 441 111<19 555> 623 112<19 555>
VStem: 19 536<441 552 623 735>
LayerCount: 2
Fore
SplineSet
555 441 m 1,0,-1
 19 441 l 1,1,-1
 19 552 l 1,2,-1
 555 552 l 1,3,-1
 555 441 l 1,0,-1
555 623 m 1,4,-1
 19 623 l 1,5,-1
 19 735 l 1,6,-1
 555 735 l 1,7,-1
 555 623 l 1,4,-1
EndSplineSet
EndChar

StartChar: greater
Encoding: 31 62 34
Width: 308
GlyphClass: 2
Flags: W
HStem: 0 21G<26 32.456> 1443 20G<26 32.3946>
VStem: 26 235
LayerCount: 2
Fore
SplineSet
261 728 m 1,0,-1
 26 0 l 1,1,-1
 26 325 l 1,2,-1
 148 728 l 1,3,-1
 26 1157 l 1,4,-1
 26 1463 l 1,5,-1
 261 728 l 1,0,-1
EndSplineSet
EndChar

StartChar: question
Encoding: 32 63 35
Width: 360
GlyphClass: 2
Flags: W
HStem: 0 125<107 219> 1383 97<154.214 215.065>
VStem: 36 113<920 1373.2> 106 113<0 125 209 740.139> 221 111<821.846 1372.69>
DStem2: 136 696.5 255 710.5 0.298275 0.95448<-209.917 426.811>
LayerCount: 2
Fore
SplineSet
219 209 m 1,0,-1
 106 209 l 1,1,-1
 106 444 l 2,2,3
 106 531 106 531 114.5 590.5 c 128,-1,4
 123 650 123 650 136 696.5 c 128,-1,5
 149 743 149 743 163.5 783.5 c 128,-1,6
 178 824 178 824 191 872.5 c 128,-1,7
 204 921 204 921 212.5 985 c 128,-1,8
 221 1049 221 1049 221 1143 c 2,9,-1
 221 1349 l 2,10,11
 221 1363 221 1363 209.5 1373 c 128,-1,12
 198 1383 198 1383 182 1383 c 0,13,14
 168 1383 168 1383 158.5 1373.5 c 128,-1,15
 149 1364 149 1364 149 1351 c 2,16,-1
 149 920 l 1,17,-1
 36 920 l 1,18,-1
 36 1352 l 2,19,20
 36 1377 36 1377 46.5 1400.5 c 128,-1,21
 57 1424 57 1424 76.5 1441.5 c 128,-1,22
 96 1459 96 1459 123 1469.5 c 128,-1,23
 150 1480 150 1480 183 1480 c 256,24,25
 216 1480 216 1480 243 1469.5 c 128,-1,26
 270 1459 270 1459 290 1441 c 128,-1,27
 310 1423 310 1423 321 1399 c 128,-1,28
 332 1375 332 1375 332 1349 c 2,29,-1
 332 1105 l 2,30,31
 332 1038 332 1038 327 989.5 c 128,-1,32
 322 941 322 941 314 904 c 128,-1,33
 306 867 306 867 296 837 c 128,-1,34
 286 807 286 807 275.5 776.5 c 128,-1,35
 265 746 265 746 255 710.5 c 128,-1,36
 245 675 245 675 237 627.5 c 128,-1,37
 229 580 229 580 224 516.5 c 128,-1,38
 219 453 219 453 219 365 c 2,39,-1
 219 209 l 1,0,-1
219 125 m 1,40,-1
 219 0 l 1,41,-1
 107 0 l 1,42,-1
 107 125 l 1,43,-1
 219 125 l 1,40,-1
EndSplineSet
EndChar

StartChar: at
Encoding: 33 64 36
Width: 808
GlyphClass: 2
Flags: W
HStem: -163 115.5<297.302 617> 52 82<367.286 427.146 563.454 634.457> 1203 92<372.572 427.344> 1377 101<255.889 557.218>
VStem: 61 112<72.2627 1295.14> 253 114<134.002 1201.45> 432 117.5<144.83 1201.45> 638 108<134.886 1296.89>
LayerCount: 2
Fore
SplineSet
549 265 m 2,0,1
 549 238 549 238 549.5 214.5 c 128,-1,2
 550 191 550 191 555 173 c 128,-1,3
 560 155 560 155 572 144.5 c 128,-1,4
 584 134 584 134 607 134 c 256,5,6
 630 134 630 134 634 168 c 128,-1,7
 638 202 638 202 638 265 c 2,8,-1
 638 1157 l 2,9,10
 638 1227 638 1227 612 1270.5 c 128,-1,11
 586 1314 586 1314 550 1337.5 c 128,-1,12
 514 1361 514 1361 475 1369 c 128,-1,13
 436 1377 436 1377 410 1377 c 0,14,15
 385 1377 385 1377 345 1370 c 128,-1,16
 305 1363 305 1363 266.5 1339.5 c 128,-1,17
 228 1316 228 1316 200.5 1272.5 c 128,-1,18
 173 1229 173 1229 173 1157 c 2,19,-1
 173 242 l 2,20,21
 173 167 173 167 194.5 115.5 c 128,-1,22
 216 64 216 64 252 30.5 c 128,-1,23
 288 -3 288 -3 335 -21 c 128,-1,24
 382 -39 382 -39 432 -47.5 c 128,-1,25
 482 -56 482 -56 532 -57.5 c 128,-1,26
 582 -59 582 -59 625 -59 c 1,27,-1
 617 -166 l 1,28,29
 559 -168 559 -168 495.5 -163 c 128,-1,30
 432 -158 432 -158 370 -142.5 c 128,-1,31
 308 -127 308 -127 252 -98 c 128,-1,32
 196 -69 196 -69 153.5 -22 c 128,-1,33
 111 25 111 25 86 93 c 128,-1,34
 61 161 61 161 61 254 c 2,35,-1
 61 1144 l 2,36,37
 61 1223 61 1223 86.5 1285.5 c 128,-1,38
 112 1348 112 1348 157.5 1390.5 c 128,-1,39
 203 1433 203 1433 265.5 1455.5 c 128,-1,40
 328 1478 328 1478 402 1478 c 0,41,42
 437 1478 437 1478 477 1470.5 c 128,-1,43
 517 1463 517 1463 556 1447 c 128,-1,44
 595 1431 595 1431 631 1405 c 128,-1,45
 667 1379 667 1379 693.5 1342.5 c 128,-1,46
 720 1306 720 1306 734.5 1257.5 c 128,-1,47
 749 1209 749 1209 746 1148 c 1,48,-1
 746 265 l 2,49,50
 746 214 746 214 742.5 174.5 c 128,-1,51
 739 135 739 135 725 107.5 c 128,-1,52
 711 80 711 80 683.5 65.5 c 128,-1,53
 656 51 656 51 607 51 c 0,54,55
 577 51 577 51 557 64 c 128,-1,56
 537 77 537 77 525 94 c 0,57,58
 511 112 511 112 504 137 c 1,59,60
 498 111 498 111 485 94 c 0,61,62
 474 78 474 78 454 65 c 128,-1,63
 434 52 434 52 401 52 c 0,64,65
 325 52 325 52 289 89.5 c 128,-1,66
 253 127 253 127 253 181 c 2,67,-1
 253 1167 l 2,68,69
 253 1194 253 1194 264.5 1217 c 128,-1,70
 276 1240 276 1240 296.5 1257.5 c 128,-1,71
 317 1275 317 1275 344 1285 c 128,-1,72
 371 1295 371 1295 401 1295 c 0,73,74
 430 1295 430 1295 456.5 1285.5 c 128,-1,75
 483 1276 483 1276 503 1259.5 c 128,-1,76
 523 1243 523 1243 535 1219.5 c 128,-1,77
 547 1196 547 1196 547 1169 c 2,78,-1
 549 265 l 2,0,1
432 1187 m 2,79,80
 432 1200 432 1200 423 1201.5 c 128,-1,81
 414 1203 414 1203 401 1203 c 256,82,83
 388 1203 388 1203 377.5 1201.5 c 128,-1,84
 367 1200 367 1200 367 1187 c 2,85,-1
 367 160 l 2,86,87
 367 153 367 153 375.5 143.5 c 128,-1,88
 384 134 384 134 401 134 c 0,89,90
 414 134 414 134 423 141.5 c 128,-1,91
 432 149 432 149 432 160 c 2,92,-1
 432 1187 l 2,79,80
EndSplineSet
EndChar

StartChar: A
Encoding: 34 65 37
Width: 349
GlyphClass: 2
Flags: W
HStem: 0 21G<14 122.141 225.919 335> 333 74<146 202> 1225 238<-24 372>
VStem: 14 107<0 107> 227 108<0 108>
DStem2: 14 0 121 0 0.055281 0.998471<5.91507 339.456> 335 0 209 333 0.0559614 -0.998433<-339.529 -6.04383>
LayerCount: 2
Fore
SplineSet
335 0 m 1,0,-1
 227 0 l 1,1,-1
 209 333 l 1,2,-1
 140 333 l 1,3,-1
 121 0 l 1,4,-1
 14 0 l 1,5,-1
 95 1463 l 1,6,-1
 253 1463 l 1,7,-1
 335 0 l 1,0,-1
202 407 m 1,8,-1
 174 1225 l 1,9,-1
 146 407 l 1,10,-1
 202 407 l 1,8,-1
EndSplineSet
EndChar

StartChar: B
Encoding: 35 66 38
Width: 388
GlyphClass: 2
Flags: W
HStem: 0 94<157 216.916> 706 98<157 230.84> 1366 97<157 216.916>
VStem: 46 111<94 706 804 1366> 236 112<98.1296 705.852 818.439 1361.87>
LayerCount: 2
Fore
SplineSet
348 125 m 2,0,1
 348 99 348 99 336 76.5 c 128,-1,2
 324 54 324 54 303.5 37 c 128,-1,3
 283 20 283 20 255.5 10 c 128,-1,4
 228 0 228 0 197 0 c 2,5,-1
 46 0 l 1,6,-1
 46 1463 l 1,7,-1
 197 1463 l 2,8,9
 232 1463 232 1463 260 1453.5 c 128,-1,10
 288 1444 288 1444 307.5 1427 c 128,-1,11
 327 1410 327 1410 337.5 1387.5 c 128,-1,12
 348 1365 348 1365 348 1340 c 2,13,-1
 348 863 l 2,14,15
 348 831 348 831 329 799 c 128,-1,16
 310 767 310 767 270 755 c 1,17,18
 310 744 310 744 329 713.5 c 128,-1,19
 348 683 348 683 348 651 c 2,20,-1
 348 125 l 2,0,1
157 804 m 1,21,-1
 205 804 l 2,22,23
 226 804 226 804 231 818 c 128,-1,24
 236 832 236 832 236 853 c 2,25,-1
 236 1333 l 2,26,27
 236 1358 236 1358 217.5 1362 c 128,-1,28
 199 1366 199 1366 157 1366 c 1,29,-1
 157 804 l 1,21,-1
236 665 m 2,30,31
 236 669 236 669 234.5 676 c 128,-1,32
 233 683 233 683 229 689.5 c 128,-1,33
 225 696 225 696 218 701 c 128,-1,34
 211 706 211 706 199 706 c 2,35,-1
 157 706 l 1,36,-1
 157 94 l 1,37,38
 199 94 199 94 217.5 98 c 128,-1,39
 236 102 236 102 236 125 c 2,40,-1
 236 665 l 2,30,31
EndSplineSet
EndChar

StartChar: C
Encoding: 36 67 39
Width: 388
GlyphClass: 2
Flags: W
HStem: -17 90<160.204 234.605> 1384 98<160.381 228.658>
VStem: 43 111<82.798 1374.72> 235 112<73.2531 716 820 1374.72>
LayerCount: 2
Fore
SplineSet
347 820 m 1,0,-1
 235 820 l 1,1,-1
 235 1352 l 2,2,3
 235 1366 235 1366 223.5 1375 c 128,-1,4
 212 1384 212 1384 196 1384 c 0,5,6
 177 1384 177 1384 165.5 1375 c 128,-1,7
 154 1366 154 1366 154 1352 c 2,8,-1
 154 106 l 2,9,10
 154 92 154 92 166 82.5 c 128,-1,11
 178 73 178 73 195 73 c 0,12,13
 211 73 211 73 223 82.5 c 128,-1,14
 235 92 235 92 235 106 c 2,15,-1
 235 716 l 1,16,-1
 347 716 l 1,17,-1
 347 106 l 2,18,19
 347 79 347 79 336 56.5 c 128,-1,20
 325 34 325 34 305 17.5 c 128,-1,21
 285 1 285 1 257 -8 c 128,-1,22
 229 -17 229 -17 195 -17 c 0,23,24
 163 -17 163 -17 135.5 -7.5 c 128,-1,25
 108 2 108 2 87.5 19 c 128,-1,26
 67 36 67 36 55 59 c 128,-1,27
 43 82 43 82 43 108 c 2,28,-1
 43 1357 l 2,29,30
 43 1383 43 1383 54 1406 c 128,-1,31
 65 1429 65 1429 85.5 1446 c 128,-1,32
 106 1463 106 1463 134 1472.5 c 128,-1,33
 162 1482 162 1482 196 1482 c 0,34,35
 229 1482 229 1482 256.5 1472.5 c 128,-1,36
 284 1463 284 1463 304.5 1446.5 c 128,-1,37
 325 1430 325 1430 336 1408 c 128,-1,38
 347 1386 347 1386 347 1361 c 2,39,-1
 347 820 l 1,0,-1
EndSplineSet
EndChar

StartChar: D
Encoding: 37 68 40
Width: 393
GlyphClass: 2
Flags: W
HStem: 0 94<157 216.855> 1366 97<157 217.885>
VStem: 46 111<94 1366> 238 112<98.1296 1361.87>
LayerCount: 2
Fore
SplineSet
238 1333 m 2,0,1
 238 1358 238 1358 218.5 1362 c 128,-1,2
 199 1366 199 1366 157 1366 c 1,3,-1
 157 94 l 1,4,5
 197 94 197 94 217.5 98 c 128,-1,6
 238 102 238 102 238 125 c 2,7,-1
 238 1333 l 2,0,1
350 125 m 2,8,9
 350 99 350 99 338.5 76.5 c 128,-1,10
 327 54 327 54 306.5 37 c 128,-1,11
 286 20 286 20 259 10 c 128,-1,12
 232 0 232 0 201 0 c 2,13,-1
 46 0 l 1,14,-1
 46 1463 l 1,15,-1
 201 1463 l 2,16,17
 231 1463 231 1463 258.5 1453.5 c 128,-1,18
 286 1444 286 1444 306 1427.5 c 128,-1,19
 326 1411 326 1411 338 1388.5 c 128,-1,20
 350 1366 350 1366 350 1340 c 2,21,-1
 350 125 l 2,8,9
EndSplineSet
EndChar

StartChar: E
Encoding: 38 69 41
Width: 313
GlyphClass: 2
Flags: W
HStem: 0 93<157 306> 728 99<157 268> 1366 97<157 306>
VStem: 46 260<0 93 1366 1463> 46 222<728 827> 46 111<93 728 827 1366>
LayerCount: 2
Fore
SplineSet
306 1366 m 1,0,-1
 157 1366 l 1,1,-1
 157 827 l 1,2,-1
 268 827 l 1,3,-1
 268 728 l 1,4,-1
 157 728 l 1,5,-1
 157 93 l 1,6,-1
 306 93 l 1,7,-1
 306 0 l 1,8,-1
 46 0 l 1,9,-1
 46 1463 l 1,10,-1
 306 1463 l 1,11,-1
 306 1366 l 1,0,-1
EndSplineSet
EndChar

StartChar: F
Encoding: 39 70 42
Width: 310
GlyphClass: 2
Flags: W
HStem: 0 21G<46 157> 728 99<157 264> 1366 97<157 301>
VStem: 46 218<728 827> 46 111<0 728 827 1366>
LayerCount: 2
Fore
SplineSet
301 1366 m 1,0,-1
 157 1366 l 1,1,-1
 157 827 l 1,2,-1
 264 827 l 1,3,-1
 264 728 l 1,4,-1
 157 728 l 1,5,-1
 157 0 l 1,6,-1
 46 0 l 1,7,-1
 46 1463 l 1,8,-1
 301 1463 l 1,9,-1
 301 1366 l 1,0,-1
EndSplineSet
EndChar

StartChar: G
Encoding: 40 71 43
Width: 392
GlyphClass: 2
Flags: W
HStem: -17 90<157.397 229.978> 641 96<184 236> 1385 97<157.397 229.978>
VStem: 46 111<73.5977 1384.51> 184 164<641 737> 236 112<83.3132 641 833 1375.72>
LayerCount: 2
Fore
SplineSet
348 833 m 1,0,-1
 236 833 l 1,1,-1
 236 1356 l 2,2,3
 236 1367 236 1367 225 1376 c 128,-1,4
 214 1385 214 1385 195 1385 c 0,5,6
 180 1385 180 1385 168.5 1376 c 128,-1,7
 157 1367 157 1367 157 1356 c 2,8,-1
 157 106 l 2,9,10
 157 93 157 93 168.5 83 c 128,-1,11
 180 73 180 73 195 73 c 0,12,13
 214 73 214 73 225 83 c 128,-1,14
 236 93 236 93 236 106 c 2,15,-1
 236 641 l 1,16,-1
 184 641 l 1,17,-1
 184 737 l 1,18,-1
 348 737 l 1,19,-1
 348 103 l 2,20,21
 348 78 348 78 336 56.5 c 128,-1,22
 324 35 324 35 303 18.5 c 128,-1,23
 282 2 282 2 254 -7.5 c 128,-1,24
 226 -17 226 -17 195 -17 c 0,25,26
 165 -17 165 -17 138 -7.5 c 128,-1,27
 111 2 111 2 90.5 19 c 128,-1,28
 70 36 70 36 58 58 c 128,-1,29
 46 80 46 80 46 106 c 2,30,-1
 46 1361 l 2,31,32
 46 1386 46 1386 58 1408 c 128,-1,33
 70 1430 70 1430 90.5 1446.5 c 128,-1,34
 111 1463 111 1463 138 1472.5 c 128,-1,35
 165 1482 165 1482 195 1482 c 0,36,37
 226 1482 226 1482 254 1472.5 c 128,-1,38
 282 1463 282 1463 303 1447 c 128,-1,39
 324 1431 324 1431 336 1408.5 c 128,-1,40
 348 1386 348 1386 348 1361 c 2,41,-1
 348 833 l 1,0,-1
EndSplineSet
EndChar

StartChar: H
Encoding: 41 72 44
Width: 394
GlyphClass: 2
Flags: W
HStem: 0 21G<46 157 236 348> 696 87<157 236> 1443 20G<46 157 236 348>
VStem: 46 111<0 696 783 1463> 236 112<0 696 783 1463>
LayerCount: 2
Fore
SplineSet
157 783 m 1,0,-1
 236 783 l 1,1,-1
 236 1463 l 1,2,-1
 348 1463 l 1,3,-1
 348 0 l 1,4,-1
 236 0 l 1,5,-1
 236 696 l 1,6,-1
 157 696 l 1,7,-1
 157 0 l 1,8,-1
 46 0 l 1,9,-1
 46 1463 l 1,10,-1
 157 1463 l 1,11,-1
 157 783 l 1,0,-1
EndSplineSet
EndChar

StartChar: I
Encoding: 42 73 45
Width: 205
GlyphClass: 2
Flags: W
HStem: 0 21G<48 159> 1443 20G<48 159>
VStem: 48 111<0 1463>
LayerCount: 2
Fore
SplineSet
159 1463 m 1,0,-1
 159 0 l 1,1,-1
 48 0 l 1,2,-1
 48 1463 l 1,3,-1
 159 1463 l 1,0,-1
EndSplineSet
EndChar

StartChar: J
Encoding: 43 74 46
Width: 384
GlyphClass: 2
Flags: W
HStem: -17 90<153.842 220.233> 1443 20G<226 338>
VStem: 36 111<80.7369 680> 226 112<82.798 1463>
LayerCount: 2
Fore
SplineSet
338 108 m 2,0,1
 338 82 338 82 326 59 c 128,-1,2
 314 36 314 36 294 19 c 128,-1,3
 274 2 274 2 247 -7.5 c 128,-1,4
 220 -17 220 -17 189 -17 c 256,5,6
 158 -17 158 -17 130 -7.5 c 128,-1,7
 102 2 102 2 81 19 c 128,-1,8
 60 36 60 36 48 58 c 128,-1,9
 36 80 36 80 36 106 c 2,10,-1
 36 680 l 1,11,-1
 147 680 l 1,12,-1
 147 106 l 2,13,14
 147 88 147 88 159.5 80.5 c 128,-1,15
 172 73 172 73 189 73 c 0,16,17
 205 73 205 73 215.5 82.5 c 128,-1,18
 226 92 226 92 226 106 c 2,19,-1
 226 1463 l 1,20,-1
 338 1463 l 1,21,-1
 338 108 l 2,0,1
EndSplineSet
EndChar

StartChar: K
Encoding: 44 75 47
Width: 383
GlyphClass: 2
Flags: W
HStem: 0 21G<46 157 245.497 362> 1443 20G<46 157 235.722 353>
VStem: 46 111<0 727 752 1463> 248 114<0 114 1349 1463>
DStem2: 267 744 157 727 0.12666 -0.991946<2.93051 735.601>
LayerCount: 2
Fore
SplineSet
362 0 m 1,0,-1
 248 0 l 1,1,-1
 157 727 l 1,2,-1
 157 0 l 1,3,-1
 46 0 l 1,4,-1
 46 1463 l 1,5,-1
 157 1463 l 1,6,-1
 157 752 l 1,7,-1
 238 1463 l 1,8,-1
 353 1463 l 1,9,-1
 267 744 l 1,10,-1
 362 0 l 1,0,-1
EndSplineSet
EndChar

StartChar: L
Encoding: 45 76 48
Width: 283
GlyphClass: 2
Flags: W
HStem: 0 92<157 277> 1443 20G<46 157>
VStem: 46 111<92 1463>
LayerCount: 2
Fore
SplineSet
157 1463 m 1,0,-1
 157 92 l 1,1,-1
 277 92 l 1,2,-1
 277 0 l 1,3,-1
 46 0 l 1,4,-1
 46 1463 l 1,5,-1
 157 1463 l 1,0,-1
EndSplineSet
EndChar

StartChar: M
Encoding: 46 77 49
Width: 502
GlyphClass: 2
Flags: W
HStem: 0 21G<46 157 342 456> 1443 20G<46 159.938 339.125 456>
VStem: 46 111<0 771 1347.23 1463> 342 114<0 771 1343.41 1463>
DStem2: 251 503 154 771 0.0964236 -0.99534<-276.104 0> 251 503 345 771 0.0933407 0.995634<0 275.604>
LayerCount: 2
Fore
SplineSet
341 1463 m 1,0,-1
 456 1463 l 1,1,-1
 456 0 l 1,2,-1
 342 0 l 1,3,-1
 345 771 l 1,4,-1
 276 88 l 1,5,-1
 225 88 l 1,6,-1
 154 771 l 1,7,-1
 157 0 l 1,8,-1
 46 0 l 1,9,-1
 46 1463 l 1,10,-1
 158 1463 l 1,11,-1
 251 503 l 1,12,-1
 341 1463 l 1,0,-1
EndSplineSet
EndChar

StartChar: N
Encoding: 47 78 50
Width: 398
GlyphClass: 2
Flags: W
HStem: 0 21G<46 157 237.966 352> 1443 20G<46 158.141 247 352>
VStem: 46 111<0 816 1337.05 1463> 247 105<0 129.98 613 1463>
DStem2: 247 613 157 816 0.106451 -0.994318<-211.427 0>
LayerCount: 2
Fore
SplineSet
352 0 m 1,0,-1
 240 0 l 1,1,-1
 157 816 l 1,2,-1
 157 0 l 1,3,-1
 46 0 l 1,4,-1
 46 1463 l 1,5,-1
 156 1463 l 1,6,-1
 247 613 l 1,7,-1
 247 1463 l 1,8,-1
 352 1463 l 1,9,-1
 352 0 l 1,0,-1
EndSplineSet
EndChar

StartChar: O
Encoding: 48 79 51
Width: 388
GlyphClass: 2
Flags: W
HStem: -17 90<159.709 231.698> 1394 88<159.709 231.698>
VStem: 43 111<83.3132 1383.69> 232 113<73.668 1393.37>
LayerCount: 2
Fore
SplineSet
43 1359 m 2,0,1
 43 1384 43 1384 55 1406.5 c 128,-1,2
 67 1429 67 1429 87 1445.5 c 128,-1,3
 107 1462 107 1462 134.5 1472 c 128,-1,4
 162 1482 162 1482 192 1482 c 0,5,6
 223 1482 223 1482 251 1472 c 128,-1,7
 279 1462 279 1462 300 1445 c 128,-1,8
 321 1428 321 1428 333 1405.5 c 128,-1,9
 345 1383 345 1383 345 1358 c 2,10,-1
 345 108 l 2,11,12
 345 82 345 82 333 59 c 128,-1,13
 321 36 321 36 300 19 c 128,-1,14
 279 2 279 2 251 -7.5 c 128,-1,15
 223 -17 223 -17 192 -17 c 0,16,17
 162 -17 162 -17 134.5 -7.5 c 128,-1,18
 107 2 107 2 87 18.5 c 128,-1,19
 67 35 67 35 55 56.5 c 128,-1,20
 43 78 43 78 43 103 c 2,21,-1
 43 1359 l 2,0,1
154 106 m 2,22,23
 154 93 154 93 164.5 83 c 128,-1,24
 175 73 175 73 192 73 c 256,25,26
 209 73 209 73 220.5 83 c 128,-1,27
 232 93 232 93 232 106 c 2,28,-1
 232 1361 l 2,29,30
 232 1374 232 1374 220 1384 c 128,-1,31
 208 1394 208 1394 192 1394 c 0,32,33
 175 1394 175 1394 164.5 1384 c 128,-1,34
 154 1374 154 1374 154 1361 c 2,35,-1
 154 106 l 2,22,23
EndSplineSet
EndChar

StartChar: P
Encoding: 49 80 52
Width: 364
GlyphClass: 2
Flags: W
HStem: 0 21G<46 157> 680 96<157 211.979> 1375 88<157 229>
VStem: 46 111<0 680 776 1375> 229 114<782.192 1367.78>
LayerCount: 2
Fore
SplineSet
343 806 m 2,0,1
 343 736 343 736 295.5 708 c 128,-1,2
 248 680 248 680 157 680 c 1,3,-1
 157 0 l 1,4,-1
 46 0 l 1,5,-1
 46 1463 l 1,6,-1
 191 1463 l 2,7,8
 222 1463 222 1463 249.5 1454 c 128,-1,9
 277 1445 277 1445 298 1427.5 c 128,-1,10
 319 1410 319 1410 331 1385 c 128,-1,11
 343 1360 343 1360 343 1329 c 2,12,-1
 343 806 l 2,0,1
229 1339 m 2,13,14
 229 1361 229 1361 209 1368 c 128,-1,15
 189 1375 189 1375 157 1375 c 1,16,-1
 157 776 l 1,17,18
 196 776 196 776 212.5 782 c 128,-1,19
 229 788 229 788 229 812 c 2,20,-1
 229 1339 l 2,13,14
EndSplineSet
EndChar

StartChar: Q
Encoding: 50 81 53
Width: 400
GlyphClass: 2
Flags: W
HStem: 1394 88<159.709 231.698>
VStem: 43 111<83.3132 1383.69> 232 113<73.6582 1393.37>
DStem2: 257 9 130 -8 0.819872 -0.572547<-151.211 -90.3703 0 138.541>
LayerCount: 2
Fore
SplineSet
331 -138 m 1,0,-1
 130 -8 l 1,1,2
 123 -8 123 -8 108.5 -1.5 c 128,-1,3
 94 5 94 5 79.5 19 c 128,-1,4
 65 33 65 33 54 53.5 c 128,-1,5
 43 74 43 74 43 103 c 2,6,-1
 43 1359 l 2,7,8
 43 1384 43 1384 55 1406.5 c 128,-1,9
 67 1429 67 1429 87 1445.5 c 128,-1,10
 107 1462 107 1462 134.5 1472 c 128,-1,11
 162 1482 162 1482 192 1482 c 0,12,13
 223 1482 223 1482 251 1472 c 128,-1,14
 279 1462 279 1462 300 1445 c 128,-1,15
 321 1428 321 1428 333 1405.5 c 128,-1,16
 345 1383 345 1383 345 1358 c 2,17,-1
 345 117 l 2,18,19
 345 79 345 79 322 49 c 128,-1,20
 299 19 299 19 257 9 c 1,21,-1
 375 -64 l 1,22,-1
 331 -138 l 1,0,-1
154 106 m 2,23,24
 154 93 154 93 164.5 83 c 128,-1,25
 175 73 175 73 192 73 c 256,26,27
 209 73 209 73 220.5 83 c 128,-1,28
 232 93 232 93 232 106 c 2,29,-1
 232 1361 l 2,30,31
 232 1374 232 1374 220 1384 c 128,-1,32
 208 1394 208 1394 192 1394 c 0,33,34
 175 1394 175 1394 164.5 1384 c 128,-1,35
 154 1374 154 1374 154 1361 c 2,36,-1
 154 106 l 2,23,24
EndSplineSet
EndChar

StartChar: R
Encoding: 51 82 54
Width: 379
GlyphClass: 2
Flags: W
HStem: 0 21G<46 157 227 339> 713 65<157 208.949> 1366 97<157 208.949>
VStem: 46 111<0 713 778 1366> 227 112<0 704.359 782.129 1361.36>
LayerCount: 2
Fore
SplineSet
339 838 m 2,0,1
 339 810 339 810 329 792.5 c 128,-1,2
 319 775 319 775 307 764 c 0,3,4
 293 752 293 752 276 745 c 1,5,6
 293 740 293 740 307 729 c 0,7,8
 319 719 319 719 329 702 c 128,-1,9
 339 685 339 685 339 658 c 2,10,-1
 339 0 l 1,11,-1
 227 0 l 1,12,-1
 227 672 l 2,13,14
 227 684 227 684 226 692 c 128,-1,15
 225 700 225 700 218.5 704.5 c 128,-1,16
 212 709 212 709 197.5 711 c 128,-1,17
 183 713 183 713 157 713 c 1,18,-1
 157 0 l 1,19,-1
 46 0 l 1,20,-1
 46 1463 l 1,21,-1
 195 1463 l 2,22,23
 224 1463 224 1463 250 1453 c 128,-1,24
 276 1443 276 1443 296 1425.5 c 128,-1,25
 316 1408 316 1408 327.5 1385 c 128,-1,26
 339 1362 339 1362 339 1336 c 2,27,-1
 339 838 l 2,0,1
227 1336 m 2,28,29
 227 1357 227 1357 209.5 1361.5 c 128,-1,30
 192 1366 192 1366 157 1366 c 1,31,-1
 157 778 l 1,32,33
 192 778 192 778 209.5 782 c 128,-1,34
 227 786 227 786 227 806 c 2,35,-1
 227 1336 l 2,28,29
EndSplineSet
EndChar

StartChar: S
Encoding: 52 83 55
Width: 371
GlyphClass: 2
Flags: W
HStem: -17 90<155.767 216.021> 1383 97<156.097 215.786>
VStem: 38 112<82.7985 612 882.564 1372.69> 221 113<82.7985 662.582 920 1373.2>
DStem2: 242 790 95.5 821 0.469155 -0.883116<-271.27 236.475>
LayerCount: 2
Fore
SplineSet
221 349 m 2,0,1
 221 437 221 437 213 500.5 c 128,-1,2
 205 564 205 564 192.5 611 c 128,-1,3
 180 658 180 658 163.5 693 c 128,-1,4
 147 728 147 728 129.5 759 c 128,-1,5
 112 790 112 790 95.5 821 c 128,-1,6
 79 852 79 852 66.5 891 c 128,-1,7
 54 930 54 930 46 981.5 c 128,-1,8
 38 1033 38 1033 38 1105 c 2,9,-1
 38 1349 l 2,10,11
 38 1375 38 1375 49 1399 c 128,-1,12
 60 1423 60 1423 80 1441 c 128,-1,13
 100 1459 100 1459 127 1469.5 c 128,-1,14
 154 1480 154 1480 187 1480 c 256,15,16
 220 1480 220 1480 247 1469.5 c 128,-1,17
 274 1459 274 1459 293.5 1441.5 c 128,-1,18
 313 1424 313 1424 323.5 1400.5 c 128,-1,19
 334 1377 334 1377 334 1352 c 2,20,-1
 334 920 l 1,21,-1
 221 920 l 1,22,-1
 221 1351 l 2,23,24
 221 1364 221 1364 211.5 1373.5 c 128,-1,25
 202 1383 202 1383 188 1383 c 0,26,27
 172 1383 172 1383 161 1373 c 128,-1,28
 150 1363 150 1363 150 1349 c 2,29,-1
 150 1143 l 2,30,31
 150 1072 150 1072 158 1019.5 c 128,-1,32
 166 967 166 967 179 926 c 128,-1,33
 192 885 192 885 208.5 852.5 c 128,-1,34
 225 820 225 820 242 790 c 128,-1,35
 259 760 259 760 275.5 728.5 c 128,-1,36
 292 697 292 697 305 658.5 c 128,-1,37
 318 620 318 620 326 571 c 128,-1,38
 334 522 334 522 334 457 c 2,39,-1
 334 162 l 2,40,41
 334 121 334 121 328 88 c 128,-1,42
 322 55 322 55 305.5 32 c 128,-1,43
 289 9 289 9 260.5 -4 c 128,-1,44
 232 -17 232 -17 187 -17 c 0,45,46
 156 -17 156 -17 129 -7 c 128,-1,47
 102 3 102 3 81.5 21.5 c 128,-1,48
 61 40 61 40 49.5 66 c 128,-1,49
 38 92 38 92 38 124 c 2,50,-1
 38 612 l 1,51,-1
 150 612 l 1,52,-1
 150 108 l 2,53,54
 150 92 150 92 160.5 82.5 c 128,-1,55
 171 73 171 73 188 73 c 0,56,57
 202 73 202 73 211.5 82.5 c 128,-1,58
 221 92 221 92 221 108 c 2,59,-1
 221 349 l 2,0,1
EndSplineSet
EndChar

StartChar: T
Encoding: 53 84 56
Width: 302
GlyphClass: 2
Flags: W
HStem: 0 21G<94 206> 1366 97<-1 94 206 302>
VStem: 94 112<0 1366>
LayerCount: 2
Fore
SplineSet
302 1463 m 1,0,-1
 302 1366 l 1,1,-1
 206 1366 l 1,2,-1
 206 0 l 1,3,-1
 94 0 l 1,4,-1
 94 1366 l 1,5,-1
 -1 1366 l 1,6,-1
 -1 1463 l 1,7,-1
 302 1463 l 1,0,-1
EndSplineSet
EndChar

StartChar: U
Encoding: 54 85 57
Width: 373
GlyphClass: 2
Flags: W
HStem: -17 90<152.304 213.27> 1443 20G<41 152 218 330>
VStem: 41 111<73.627 1463> 218 112<81.251 1463>
LayerCount: 2
Fore
SplineSet
218 1463 m 1,0,-1
 330 1463 l 1,1,-1
 330 105 l 2,2,3
 330 79 330 79 318.5 56.5 c 128,-1,4
 307 34 307 34 287.5 17.5 c 128,-1,5
 268 1 268 1 242 -8 c 128,-1,6
 216 -17 216 -17 187 -17 c 0,7,8
 157 -17 157 -17 130.5 -7.5 c 128,-1,9
 104 2 104 2 84 18.5 c 128,-1,10
 64 35 64 35 52.5 58.5 c 128,-1,11
 41 82 41 82 41 110 c 2,12,-1
 41 1463 l 1,13,-1
 152 1463 l 1,14,-1
 152 101 l 2,15,16
 152 89 152 89 163 81 c 128,-1,17
 174 73 174 73 187 73 c 256,18,19
 200 73 200 73 209 81 c 128,-1,20
 218 89 218 89 218 101 c 2,21,-1
 218 1463 l 1,0,-1
EndSplineSet
EndChar

StartChar: V
Encoding: 55 86 58
Width: 362
GlyphClass: 2
Flags: W
HStem: 0 294<-54 401> 1443 20G<13 129.804 222.196 342>
VStem: 13 329
LayerCount: 2
Fore
SplineSet
223 1463 m 1,0,-1
 342 1463 l 1,1,-1
 254 0 l 1,2,-1
 93 0 l 1,3,-1
 13 1463 l 1,4,-1
 129 1463 l 1,5,-1
 176 294 l 1,6,-1
 223 1463 l 1,0,-1
EndSplineSet
EndChar

StartChar: W
Encoding: 56 87 59
Width: 597
GlyphClass: 2
Flags: W
HStem: 0 303<-66.5 644.5> 1443 20G<22 149.448 227.086 356.914 443.397 571>
VStem: 22 127<1130.09 1463> 85 90<303 332.914> 228 128<1149.23 1463> 343 66<303 313.929>
LayerCount: 2
Fore
SplineSet
409 303 m 1,0,-1
 444 1463 l 1,1,-1
 571 1463 l 1,2,-1
 493 0 l 1,3,-1
 343 0 l 1,4,-1
 294 1073 l 1,5,-1
 237 0 l 1,6,-1
 85 0 l 1,7,-1
 22 1463 l 1,8,-1
 149 1463 l 1,9,-1
 175 303 l 1,10,-1
 228 1463 l 1,11,-1
 356 1463 l 1,12,-1
 409 303 l 1,0,-1
EndSplineSet
EndChar

StartChar: X
Encoding: 57 88 60
Width: 337
GlyphClass: 2
Flags: W
HStem: 0 21G<8 129.289 209.657 327> 1443 20G<10 128.935 210.018 327>
VStem: 8 119<0 119 1344 1463> 212 115<0 115 1348 1463>
DStem2: 8 0 127 0 0.138103 0.990418<16.4343 385.718 1041.37 1477.15> 127 1463 10 1463 0.135446 -0.990785<0 0 651.832 799.555 1091.59 1461.03>
LayerCount: 2
Fore
SplineSet
327 0 m 1,0,-1
 212 0 l 1,1,-1
 169 367 l 1,2,-1
 127 0 l 1,3,-1
 8 0 l 1,4,-1
 104 722 l 1,5,-1
 10 1463 l 1,6,-1
 127 1463 l 1,7,-1
 169 1029 l 1,8,-1
 212 1463 l 1,9,-1
 327 1463 l 1,10,-1
 235 722 l 1,11,-1
 327 0 l 1,0,-1
EndSplineSet
EndChar

StartChar: Y
Encoding: 58 89 61
Width: 343
GlyphClass: 2
Flags: W
HStem: 0 21G<115 227> 1443 20G<8 125.8 219.004 334>
VStem: 8 116<1347 1463> 115 112<0 686.181> 221 113<1350 1463>
LayerCount: 2
Fore
SplineSet
227 566 m 1,0,-1
 227 0 l 1,1,-1
 115 0 l 1,2,-1
 115 566 l 1,3,-1
 8 1463 l 1,4,-1
 124 1463 l 1,5,-1
 170 952 l 1,6,-1
 221 1463 l 1,7,-1
 334 1463 l 1,8,-1
 227 566 l 1,0,-1
EndSplineSet
EndChar

StartChar: Z
Encoding: 59 90 62
Width: 273
GlyphClass: 2
Flags: W
HStem: 0 93<137 260> 1366 97<15 140>
VStem: 13 247<0 93 1366 1463>
DStem2: 13 0 137 93 0.0872572 0.996186<103.465 1371.87>
LayerCount: 2
Fore
SplineSet
257 1463 m 1,0,-1
 137 93 l 1,1,-1
 260 93 l 1,2,-1
 260 0 l 1,3,-1
 13 0 l 1,4,-1
 140 1366 l 1,5,-1
 15 1366 l 1,6,-1
 15 1463 l 1,7,-1
 257 1463 l 1,0,-1
EndSplineSet
EndChar

StartChar: backslash
Encoding: 61 92 64
Width: 269
GlyphClass: 2
Flags: W
HStem: 0 21G<155.854 269> 1443 20G<1 114.146>
VStem: 1 111<1352 1463> 158 111<0 111>
DStem2: 112 1463 1 1463 0.106701 -0.994291<0 1459.56>
LayerCount: 2
Fore
SplineSet
112 1463 m 1,0,-1
 269 0 l 1,1,-1
 158 0 l 1,2,-1
 1 1463 l 1,3,-1
 112 1463 l 1,0,-1
EndSplineSet
EndChar

StartChar: bracketright
Encoding: 62 93 65
Width: 326
GlyphClass: 2
Flags: W
HStem: -91 96<-1 121> 1460 98<-1 121>
VStem: -1 235<-91 5 1460 1558> 121 113<5 1460>
LayerCount: 2
Fore
SplineSet
234 1558 m 1,0,-1
 234 -91 l 1,1,-1
 -1 -91 l 1,2,-1
 -1 5 l 1,3,-1
 121 5 l 1,4,-1
 121 1460 l 1,5,-1
 -1 1460 l 1,6,-1
 -1 1558 l 1,7,-1
 234 1558 l 1,0,-1
EndSplineSet
EndChar

StartChar: asciicircum
Encoding: 63 94 66
Width: 271
GlyphClass: 2
Flags: W
HStem: 642 288<75 110 161 196>
VStem: 26 84<642 726> 161 84<642 726>
DStem2: 26 642 110 642 0.167729 0.985833<14.0892 213.477> 196 930 135 840 0.167729 -0.985833<78.4935 278.049>
LayerCount: 2
Fore
SplineSet
196 930 m 1,0,-1
 245 642 l 1,1,-1
 161 642 l 1,2,-1
 135 840 l 1,3,-1
 110 642 l 1,4,-1
 26 642 l 1,5,-1
 75 930 l 1,6,-1
 196 930 l 1,0,-1
EndSplineSet
EndChar

StartChar: underscore
Encoding: 64 95 67
Width: 554
GlyphClass: 2
Flags: W
HStem: -112 112<9 545>
VStem: 9 536<-112 0>
LayerCount: 2
Fore
SplineSet
545 -112 m 1,0,-1
 9 -112 l 1,1,-1
 9 0 l 1,2,-1
 545 0 l 1,3,-1
 545 -112 l 1,0,-1
EndSplineSet
EndChar

StartChar: grave
Encoding: 65 96 68
Width: 271
GlyphClass: 2
Flags: W
HStem: 70 340
VStem: 79 242
LayerCount: 2
Fore
SplineSet
321 410 m 1,0,-1
 163 70 l 1,1,-1
 79 70 l 1,2,-1
 189 410 l 1,3,-1
 321 410 l 1,0,-1
EndSplineSet
EndChar

StartChar: a
Encoding: 66 97 69
Width: 342
GlyphClass: 2
Flags: W
HStem: 0 21G<9 118.377 227.623 333> 276 86<145 199> 1243 20G<102.496 254.267> 1243 20G<102.496 254.267>
VStem: 9 108<0 108> 229 104<0 104>
DStem2: 9 0 117 0 0.0750059 0.997183<8.10063 284.748 371.181 371.181> 333 0 210 276 0.0632146 -0.998<-283.223 -6.57431>
LayerCount: 2
Fore
SplineSet
333 0 m 1,0,-1
 229 0 l 1,1,-1
 210 276 l 1,2,-1
 136 276 l 1,3,-1
 117 0 l 1,4,-1
 9 0 l 1,5,-1
 104 1263 l 1,6,-1
 253 1263 l 1,7,-1
 333 0 l 1,0,-1
199 362 m 1,8,-1
 178 1005 l 1,9,-1
 145 362 l 1,10,-1
 199 362 l 1,8,-1
EndSplineSet
EndChar

StartChar: b
Encoding: 67 98 70
Width: 361
GlyphClass: 2
Flags: W
HStem: 0 21G<46 79> 1.5 83.5<148 198.465> 612 87<148 213.418> 1187 74.5<148 197.496> 1243 20G<46 79>
VStem: 46 102<85 612 699 1187> 216 110<88.6139 611.398 709.314 1183.39>
LayerCount: 2
Fore
SplineSet
326 110 m 2,0,1
 326 68 326 68 307 45.5 c 128,-1,2
 288 23 288 23 252 13 c 128,-1,3
 216 3 216 3 164 1.5 c 128,-1,4
 112 0 112 0 46 0 c 1,5,-1
 46 1263 l 1,6,7
 112 1263 112 1263 164 1261.5 c 128,-1,8
 216 1260 216 1260 252 1250.5 c 128,-1,9
 288 1241 288 1241 307 1219.5 c 128,-1,10
 326 1198 326 1198 326 1159 c 2,11,-1
 326 746 l 2,12,13
 326 712 326 712 306.5 689 c 128,-1,14
 287 666 287 666 251 654 c 1,15,16
 287 642 287 642 306.5 620 c 128,-1,17
 326 598 326 598 326 566 c 2,18,-1
 326 110 l 2,0,1
148 699 m 1,19,-1
 194 699 l 2,20,21
 211 699 211 699 213.5 709 c 128,-1,22
 216 719 216 719 216 735 c 2,23,-1
 216 1159 l 1,24,25
 214 1180 214 1180 198 1183.5 c 128,-1,26
 182 1187 182 1187 148 1187 c 1,27,-1
 148 699 l 1,19,-1
216 579 m 2,28,29
 216 587 216 587 212.5 599.5 c 128,-1,30
 209 612 209 612 195 612 c 2,31,-1
 148 612 l 1,32,-1
 148 85 l 1,33,34
 182 85 182 85 199 88.5 c 128,-1,35
 216 92 216 92 216 114 c 2,36,-1
 216 579 l 2,28,29
EndSplineSet
EndChar

StartChar: c
Encoding: 68 99 71
Width: 356
GlyphClass: 2
Flags: W
HStem: -17 85<158.032 213.967> 1201 82<154.164 213.967>
VStem: 43 111<75.7345 1200.58> 214 108<68.2118 592 737 1200.42>
LayerCount: 2
Fore
SplineSet
322 737 m 1,0,-1
 214 737 l 1,1,-1
 214 1178 l 2,2,3
 214 1188 214 1188 205 1194.5 c 128,-1,4
 196 1201 196 1201 185 1201 c 0,5,6
 154 1201 154 1201 154 1178 c 2,7,-1
 154 91 l 2,8,9
 154 83 154 83 161.5 75.5 c 128,-1,10
 169 68 169 68 185 68 c 0,11,12
 196 68 196 68 205 75.5 c 128,-1,13
 214 83 214 83 214 91 c 2,14,-1
 214 592 l 1,15,-1
 322 592 l 1,16,-1
 322 91 l 2,17,18
 322 68 322 68 310.5 48.5 c 128,-1,19
 299 29 299 29 280 14.5 c 128,-1,20
 261 0 261 0 236 -8.5 c 128,-1,21
 211 -17 211 -17 185 -17 c 0,22,23
 156 -17 156 -17 130.5 -8.5 c 128,-1,24
 105 0 105 0 85.5 14.5 c 128,-1,25
 66 29 66 29 54.5 48.5 c 128,-1,26
 43 68 43 68 43 91 c 2,27,-1
 43 1173 l 2,28,29
 43 1196 43 1196 54.5 1216 c 128,-1,30
 66 1236 66 1236 85.5 1251 c 128,-1,31
 105 1266 105 1266 130.5 1274.5 c 128,-1,32
 156 1283 156 1283 185 1283 c 0,33,34
 211 1283 211 1283 236 1274.5 c 128,-1,35
 261 1266 261 1266 280 1251.5 c 128,-1,36
 299 1237 299 1237 310.5 1217 c 128,-1,37
 322 1197 322 1197 322 1175 c 2,38,-1
 322 737 l 1,0,-1
EndSplineSet
EndChar

StartChar: d
Encoding: 69 100 72
Width: 368
GlyphClass: 2
Flags: W
HStem: 0 21G<46 79.5> 1.5 83.5<157 214> 1187 74.5<157 214> 1243 20G<46 79.5>
VStem: 46 111<85 1187> 214 111<89.6437 1182.36>
LayerCount: 2
Fore
SplineSet
214 1162 m 2,0,1
 214 1178 214 1178 199.5 1182.5 c 128,-1,2
 185 1187 185 1187 157 1187 c 1,3,-1
 157 85 l 1,4,5
 185 85 185 85 199.5 89.5 c 128,-1,6
 214 94 214 94 214 111 c 2,7,-1
 214 1162 l 2,0,1
325 112 m 2,8,9
 325 70 325 70 306.5 47 c 128,-1,10
 288 24 288 24 253 13.5 c 128,-1,11
 218 3 218 3 165.5 1.5 c 128,-1,12
 113 0 113 0 46 0 c 1,13,-1
 46 1263 l 1,14,15
 113 1263 113 1263 165.5 1261.5 c 128,-1,16
 218 1260 218 1260 253 1250 c 128,-1,17
 288 1240 288 1240 306.5 1218 c 128,-1,18
 325 1196 325 1196 325 1156 c 2,19,-1
 325 112 l 2,8,9
EndSplineSet
EndChar

StartChar: e
Encoding: 70 101 73
Width: 309
GlyphClass: 2
Flags: W
HStem: 0 84<155 294> 624 89<155 259> 1187 76<155 294>
VStem: 47 247<0 84 1187 1263> 47 212<624 713> 47 108<84 624 713 1187>
LayerCount: 2
Fore
SplineSet
294 1187 m 1,0,-1
 155 1187 l 1,1,-1
 155 713 l 1,2,-1
 259 713 l 1,3,-1
 259 624 l 1,4,-1
 155 624 l 1,5,-1
 155 84 l 1,6,-1
 294 84 l 1,7,-1
 294 0 l 1,8,-1
 47 0 l 1,9,-1
 47 1263 l 1,10,-1
 294 1263 l 1,11,-1
 294 1187 l 1,0,-1
EndSplineSet
EndChar

StartChar: f
Encoding: 71 102 74
Width: 295
GlyphClass: 2
Flags: W
HStem: 0 21G<46 154> 630 88<154 253> 1187 76<154 291>
VStem: 46 207<630 718> 46 108<0 630 718 1187>
LayerCount: 2
Fore
SplineSet
291 1187 m 1,0,-1
 154 1187 l 1,1,-1
 154 718 l 1,2,-1
 253 718 l 1,3,-1
 253 630 l 1,4,-1
 154 630 l 1,5,-1
 154 0 l 1,6,-1
 46 0 l 1,7,-1
 46 1263 l 1,8,-1
 291 1263 l 1,9,-1
 291 1187 l 1,0,-1
EndSplineSet
EndChar

StartChar: g
Encoding: 72 103 75
Width: 348
GlyphClass: 2
Flags: W
HStem: -17 81<136.11 203.697> 531 89<159 204> 1204 79<136.311 203.603>
VStem: 34 102<64.3679 1203.99> 159 148<531 620> 204 103<64.6543 531 735 1203.75>
LayerCount: 2
Fore
SplineSet
307 735 m 1,0,-1
 204 735 l 1,1,-1
 204 1179 l 2,2,3
 204 1187 204 1187 195 1195.5 c 128,-1,4
 186 1204 186 1204 172 1204 c 0,5,6
 156 1204 156 1204 146 1195.5 c 128,-1,7
 136 1187 136 1187 136 1179 c 2,8,-1
 136 89 l 2,9,10
 136 81 136 81 146.5 72.5 c 128,-1,11
 157 64 157 64 171 64 c 256,12,13
 185 64 185 64 194.5 72.5 c 128,-1,14
 204 81 204 81 204 89 c 2,15,-1
 204 531 l 1,16,-1
 159 531 l 1,17,-1
 159 620 l 1,18,-1
 307 620 l 1,19,-1
 307 96 l 2,20,21
 307 72 307 72 296 51.5 c 128,-1,22
 285 31 285 31 266.5 15.5 c 128,-1,23
 248 0 248 0 224 -8.5 c 128,-1,24
 200 -17 200 -17 174 -17 c 0,25,26
 147 -17 147 -17 122 -8 c 128,-1,27
 97 1 97 1 77.5 16.5 c 128,-1,28
 58 32 58 32 46 53 c 128,-1,29
 34 74 34 74 34 98 c 2,30,-1
 34 1169 l 2,31,32
 34 1193 34 1193 45.5 1214 c 128,-1,33
 57 1235 57 1235 76 1250 c 128,-1,34
 95 1265 95 1265 120 1274 c 128,-1,35
 145 1283 145 1283 172 1283 c 0,36,37
 200 1283 200 1283 224.5 1274 c 128,-1,38
 249 1265 249 1265 267.5 1249.5 c 128,-1,39
 286 1234 286 1234 296.5 1213.5 c 128,-1,40
 307 1193 307 1193 307 1170 c 2,41,-1
 307 735 l 1,0,-1
EndSplineSet
EndChar

StartChar: h
Encoding: 73 104 76
Width: 371
GlyphClass: 2
Flags: W
HStem: 0 21G<46 154 214 325> 619 84<154 214> 1243 20G<46 154 214 325> 1243 20G<46 154 214 325>
VStem: 46 108<0 619 703 1263> 214 111<0 619 703 1263>
LayerCount: 2
Fore
SplineSet
214 1263 m 1,0,-1
 325 1263 l 1,1,-1
 325 0 l 1,2,-1
 214 0 l 1,3,-1
 214 619 l 1,4,-1
 154 619 l 1,5,-1
 154 0 l 1,6,-1
 46 0 l 1,7,-1
 46 1263 l 1,8,-1
 154 1263 l 1,9,-1
 154 703 l 1,10,-1
 214 703 l 1,11,-1
 214 1263 l 1,0,-1
EndSplineSet
EndChar

StartChar: i
Encoding: 74 105 77
Width: 203
GlyphClass: 2
Flags: W
HStem: 0 21G<46 157> 1243 20G<46 157> 1243 20G<46 157>
VStem: 46 111<0 1263>
LayerCount: 2
Fore
SplineSet
157 1263 m 1,0,-1
 157 0 l 1,1,-1
 46 0 l 1,2,-1
 46 1263 l 1,3,-1
 157 1263 l 1,0,-1
EndSplineSet
EndChar

StartChar: j
Encoding: 75 106 78
Width: 364
GlyphClass: 2
Flags: W
HStem: -17 85<147.146 205.625> 1243 20G<206 318> 1243 20G<206 318>
VStem: 38 109<68.2118 592> 206 112<68.2118 1263>
LayerCount: 2
Fore
SplineSet
318 91 m 2,0,1
 318 68 318 68 306.5 48.5 c 128,-1,2
 295 29 295 29 275.5 14.5 c 128,-1,3
 256 0 256 0 231 -8.5 c 128,-1,4
 206 -17 206 -17 178 -17 c 256,5,6
 150 -17 150 -17 124.5 -8.5 c 128,-1,7
 99 0 99 0 80 14.5 c 128,-1,8
 61 29 61 29 49.5 48.5 c 128,-1,9
 38 68 38 68 38 91 c 2,10,-1
 38 592 l 1,11,-1
 146 592 l 1,12,-1
 146 533 l 2,13,14
 146 494 146 494 146.5 446 c 128,-1,15
 147 398 147 398 147 344 c 2,16,-1
 147 91 l 2,17,18
 147 81 147 81 156.5 74.5 c 128,-1,19
 166 68 166 68 178 68 c 0,20,21
 189 68 189 68 197.5 74.5 c 128,-1,22
 206 81 206 81 206 91 c 2,23,-1
 206 1263 l 1,24,-1
 318 1263 l 1,25,-1
 318 91 l 2,0,1
EndSplineSet
EndChar

StartChar: k
Encoding: 76 107 79
Width: 349
GlyphClass: 2
Flags: W
HStem: 0 21G<46 157 222.043 335> 1243 20G<46 157 217.11 331> 1243 20G<46 157 217.11 331>
VStem: 46 111<0 460 827 1263> 225 110<0 110 1153 1263>
DStem2: 249 641 157 460 0.132974 -0.99112<167.159 632.116>
LayerCount: 2
Fore
SplineSet
335 0 m 1,0,-1
 225 0 l 1,1,-1
 157 460 l 1,2,-1
 157 0 l 1,3,-1
 46 0 l 1,4,-1
 46 1263 l 1,5,-1
 157 1263 l 1,6,-1
 157 827 l 1,7,-1
 220 1263 l 1,8,-1
 331 1263 l 1,9,-1
 249 641 l 1,10,-1
 335 0 l 1,0,-1
EndSplineSet
EndChar

StartChar: l
Encoding: 77 108 80
Width: 259
GlyphClass: 2
Flags: W
HStem: 0 84<154 259> 1243 20G<46 154> 1243 20G<46 154>
VStem: 46 213<0 84> 46 108<84 1263>
LayerCount: 2
Fore
SplineSet
154 1263 m 1,0,-1
 154 84 l 1,1,-1
 259 84 l 1,2,-1
 259 0 l 1,3,-1
 46 0 l 1,4,-1
 46 1263 l 1,5,-1
 154 1263 l 1,0,-1
EndSplineSet
EndChar

StartChar: m
Encoding: 78 109 81
Width: 461
GlyphClass: 2
Flags: W
HStem: 0 21G<46 154 308 415> 1243 20G<46 165.764 295.155 415> 1243 20G<46 165.764 295.155 415>
VStem: 46 118<1100.45 1263> 46 108<0 700> 317 98<0 700>
DStem2: 229 526 145 700 0.0878544 -0.996133<-180.707 0> 229 526 317 700 0.0918757 0.99577<0 181.349>
LayerCount: 2
Fore
SplineSet
297 1263 m 1,0,-1
 415 1263 l 1,1,-1
 415 0 l 1,2,-1
 308 0 l 1,3,-1
 317 700 l 1,4,-1
 252 25 l 1,5,-1
 211 25 l 1,6,-1
 145 700 l 1,7,-1
 154 0 l 1,8,-1
 46 0 l 1,9,-1
 46 1263 l 1,10,-1
 164 1263 l 1,11,-1
 229 526 l 1,12,-1
 297 1263 l 1,0,-1
EndSplineSet
EndChar

StartChar: n
Encoding: 79 110 82
Width: 374
GlyphClass: 2
Flags: W
HStem: 0 21G<46 154 225.634 328> 1243 20G<46 147.425 228 328> 1243 20G<46 147.425 228 328>
VStem: 46 108<0 710 1223.22 1263> 228 100<0 70.459 529 1263>
DStem2: 234 529 144 710 0.120372 -0.992729<-190.517 0>
LayerCount: 2
Fore
SplineSet
328 0 m 1,0,-1
 228 0 l 1,1,-1
 144 710 l 1,2,-1
 154 0 l 1,3,-1
 46 0 l 1,4,-1
 46 1263 l 1,5,-1
 145 1263 l 1,6,-1
 234 529 l 1,7,-1
 228 1263 l 1,8,-1
 328 1263 l 1,9,-1
 328 0 l 1,0,-1
EndSplineSet
EndChar

StartChar: o
Encoding: 80 111 83
Width: 380
GlyphClass: 2
Flags: W
HStem: -17 82<157.158 217.344> 1204 79<162.572 217.344>
VStem: 43 114<65.1932 1195.75> 222 115<72.7352 1195.75>
LayerCount: 2
Fore
SplineSet
337 108 m 2,0,1
 337 82 337 82 325 59.5 c 128,-1,2
 313 37 313 37 293 20 c 128,-1,3
 273 3 273 3 246.5 -7 c 128,-1,4
 220 -17 220 -17 191 -17 c 0,5,6
 161 -17 161 -17 134 -7 c 128,-1,7
 107 3 107 3 86.5 20.5 c 128,-1,8
 66 38 66 38 54.5 61.5 c 128,-1,9
 43 85 43 85 43 112 c 2,10,-1
 43 1155 l 2,11,12
 43 1182 43 1182 54.5 1205 c 128,-1,13
 66 1228 66 1228 86.5 1245.5 c 128,-1,14
 107 1263 107 1263 134 1273 c 128,-1,15
 161 1283 161 1283 191 1283 c 0,16,17
 220 1283 220 1283 246.5 1273.5 c 128,-1,18
 273 1264 273 1264 293 1247.5 c 128,-1,19
 313 1231 313 1231 325 1207.5 c 128,-1,20
 337 1184 337 1184 337 1157 c 2,21,-1
 337 108 l 2,0,1
222 1175 m 2,22,23
 222 1188 222 1188 213 1196 c 128,-1,24
 204 1204 204 1204 191 1204 c 256,25,26
 178 1204 178 1204 167.5 1196 c 128,-1,27
 157 1188 157 1188 157 1175 c 2,28,-1
 157 91 l 2,29,30
 157 84 157 84 165.5 74.5 c 128,-1,31
 174 65 174 65 191 65 c 0,32,33
 204 65 204 65 213 72.5 c 128,-1,34
 222 80 222 80 222 91 c 2,35,-1
 222 1175 l 2,22,23
EndSplineSet
EndChar

StartChar: p
Encoding: 81 112 84
Width: 354
GlyphClass: 2
Flags: W
HStem: 0 21G<46 154> 586 88<157 214> 1187 76<157 199.044>
VStem: 46 108<0 586 674 1187> 214 107<677.613 1182.87>
LayerCount: 2
Fore
SplineSet
322 928 m 2,0,1
 322 885 322 885 321.5 844.5 c 128,-1,2
 321 804 321 804 321 772 c 2,3,-1
 321 701 l 2,4,5
 321 670 321 670 307.5 648.5 c 128,-1,6
 294 627 294 627 271 613.5 c 128,-1,7
 248 600 248 600 217.5 593.5 c 128,-1,8
 187 587 187 587 154 586 c 1,9,-1
 154 0 l 1,10,-1
 46 0 l 1,11,-1
 46 1263 l 1,12,-1
 185 1263 l 2,13,14
 213 1263 213 1263 238 1254.5 c 128,-1,15
 263 1246 263 1246 282 1232 c 128,-1,16
 301 1218 301 1218 311.5 1198 c 128,-1,17
 322 1178 322 1178 322 1156 c 2,18,-1
 322 928 l 2,0,1
214 1162 m 2,19,20
 214 1179 214 1179 199.5 1183 c 128,-1,21
 185 1187 185 1187 157 1187 c 1,22,-1
 157 674 l 1,23,24
 186 674 186 674 200 677.5 c 128,-1,25
 214 681 214 681 214 698 c 2,26,-1
 214 1162 l 2,19,20
EndSplineSet
EndChar

StartChar: r
Encoding: 83 114 86
Width: 359
GlyphClass: 2
Flags: W
HStem: 0 21G<46 152 219 325> 612 62<152 197.496> 1187 74.5<150 197.496> 1243 20G<46 78.5>
VStem: 46 106<0 612 674 1187> 219 106<0 604.81 677.613 1183.39>
LayerCount: 2
Fore
SplineSet
325 752 m 2,0,1
 325 720 325 720 315 699.5 c 128,-1,2
 305 679 305 679 293 667 c 0,3,4
 279 653 279 653 261 645 c 1,5,6
 279 639 279 639 293 627 c 0,7,8
 305 616 305 616 315 598 c 128,-1,9
 325 580 325 580 325 552 c 2,10,-1
 325 0 l 1,11,-1
 219 0 l 1,12,-1
 219 583 l 2,13,14
 219 599 219 599 206 605 c 128,-1,15
 193 611 193 611 152 612 c 1,16,-1
 152 0 l 1,17,-1
 46 0 l 1,18,-1
 46 1263 l 1,19,20
 111 1263 111 1263 163 1261.5 c 128,-1,21
 215 1260 215 1260 251 1250 c 128,-1,22
 287 1240 287 1240 306 1218 c 128,-1,23
 325 1196 325 1196 325 1156 c 2,24,-1
 325 752 l 2,0,1
214 1162 m 2,25,26
 214 1180 214 1180 198 1183.5 c 128,-1,27
 182 1187 182 1187 150 1187 c 1,28,-1
 150 674 l 1,29,30
 182 674 182 674 198 677.5 c 128,-1,31
 214 681 214 681 214 698 c 2,32,-1
 214 1162 l 2,25,26
EndSplineSet
EndChar

StartChar: s
Encoding: 84 115 87
Width: 337
GlyphClass: 2
Flags: W
HStem: -17 84<146.286 207.471> 1201 82<137.301 196.699>
VStem: 33 108<75.2515 460 753.259 1193.78> 213 108<75.2515 461.222 825 1193.78>
DStem2: 189 742.5 72 735 0.329535 -0.944143<-280.855 510.578>
LayerCount: 2
Fore
SplineSet
222 644 m 0,0,1
 235 610 235 610 252 562 c 128,-1,2
 269 514 269 514 284.5 447.5 c 128,-1,3
 300 381 300 381 310.5 294.5 c 128,-1,4
 321 208 321 208 321 97 c 0,5,6
 321 72 321 72 310.5 51 c 128,-1,7
 300 30 300 30 280.5 15 c 128,-1,8
 261 0 261 0 234.5 -8.5 c 128,-1,9
 208 -17 208 -17 177 -17 c 256,10,11
 146 -17 146 -17 119.5 -9 c 128,-1,12
 93 -1 93 -1 74 14 c 128,-1,13
 55 29 55 29 44 49.5 c 128,-1,14
 33 70 33 70 33 95 c 2,15,-1
 33 460 l 1,16,-1
 141 460 l 1,17,-1
 141 97 l 2,18,19
 141 83 141 83 150.5 75 c 128,-1,20
 160 67 160 67 177 67 c 256,21,22
 194 67 194 67 203 75 c 128,-1,23
 212 83 212 83 213 97 c 1,24,25
 213 206 213 206 201.5 290.5 c 128,-1,26
 190 375 190 375 173.5 441 c 128,-1,27
 157 507 157 507 137.5 556.5 c 128,-1,28
 118 606 118 606 103 644 c 0,29,30
 87 683 87 683 72 735 c 128,-1,31
 57 787 57 787 46 852 c 128,-1,32
 35 917 35 917 28 996.5 c 128,-1,33
 21 1076 21 1076 22 1170 c 0,34,35
 22 1197 22 1197 35.5 1218.5 c 128,-1,36
 49 1240 49 1240 69.5 1254 c 128,-1,37
 90 1268 90 1268 115.5 1275.5 c 128,-1,38
 141 1283 141 1283 167 1283 c 256,39,40
 193 1283 193 1283 218.5 1276 c 128,-1,41
 244 1269 244 1269 264 1254.5 c 128,-1,42
 284 1240 284 1240 296.5 1219.5 c 128,-1,43
 309 1199 309 1199 309 1172 c 2,44,-1
 309 825 l 1,45,-1
 202 825 l 1,46,-1
 202 1173 l 2,47,48
 202 1187 202 1187 192 1194 c 128,-1,49
 182 1201 182 1201 167 1201 c 256,50,51
 152 1201 152 1201 142 1194 c 128,-1,52
 132 1187 132 1187 132 1173 c 0,53,54
 132 1084 132 1084 140 1006.5 c 128,-1,55
 148 929 148 929 160.5 863 c 128,-1,56
 173 797 173 797 189 742.5 c 128,-1,57
 205 688 205 688 222 644 c 0,0,1
EndSplineSet
EndChar

StartChar: t
Encoding: 85 116 88
Width: 291
GlyphClass: 2
Flags: W
HStem: 0 21G<93 198> 1187 76<0 93 198 289>
VStem: 93 105<0 1187>
LayerCount: 2
Fore
SplineSet
289 1263 m 1,0,-1
 289 1187 l 1,1,-1
 198 1187 l 1,2,-1
 198 0 l 1,3,-1
 93 0 l 1,4,-1
 93 1187 l 1,5,-1
 0 1187 l 1,6,-1
 0 1263 l 1,7,-1
 289 1263 l 1,0,-1
EndSplineSet
EndChar

StartChar: u
Encoding: 86 117 89
Width: 365
GlyphClass: 2
Flags: W
HStem: -17 85<157.661 204.991> 1243 20G<42 153 210 321> 1243 20G<42 153 210 321>
VStem: 42 111<75.2197 1263> 210 111<74.7045 1263>
LayerCount: 2
Fore
SplineSet
210 1263 m 1,0,-1
 321 1263 l 1,1,-1
 321 89 l 2,2,3
 321 66 321 66 309.5 47 c 128,-1,4
 298 28 298 28 278.5 13.5 c 128,-1,5
 259 -1 259 -1 233.5 -9 c 128,-1,6
 208 -17 208 -17 181 -17 c 256,7,8
 154 -17 154 -17 128.5 -8.5 c 128,-1,9
 103 0 103 0 84 15 c 128,-1,10
 65 30 65 30 53.5 50 c 128,-1,11
 42 70 42 70 42 94 c 2,12,-1
 42 1263 l 1,13,-1
 153 1263 l 1,14,-1
 153 93 l 2,15,16
 153 82 153 82 161.5 75 c 128,-1,17
 170 68 170 68 181 68 c 256,18,19
 192 68 192 68 201 74.5 c 128,-1,20
 210 81 210 81 210 93 c 2,21,-1
 210 1263 l 1,0,-1
EndSplineSet
EndChar

StartChar: v
Encoding: 87 118 90
Width: 357
GlyphClass: 2
Flags: W
HStem: 0 449<-122.5 481.5> 1243 20G<23 140.983 218.042 331> 1243 20G<23 140.983 218.042 331>
VStem: 23 308
LayerCount: 2
Fore
SplineSet
219 1263 m 1,0,-1
 331 1263 l 1,1,-1
 257 0 l 1,2,-1
 102 0 l 1,3,-1
 23 1263 l 1,4,-1
 140 1263 l 1,5,-1
 180 449 l 1,6,-1
 219 1263 l 1,0,-1
EndSplineSet
EndChar

StartChar: w
Encoding: 88 119 91
Width: 539
GlyphClass: 2
Flags: W
HStem: 0 305<-73.5 368.5> 1243 20G<23 143.522 212.061 324.96 394.478 514> 1243 20G<23 143.522 212.061 324.96 394.478 514>
VStem: 23 120<939.672 1263> 213 111<964.437 1263> 370 89<305 394> 395 119<933.793 1263>
LayerCount: 2
Fore
SplineSet
370 305 m 1,0,-1
 395 1263 l 1,1,-1
 514 1263 l 1,2,-1
 459 0 l 1,3,-1
 321 0 l 1,4,-1
 268 763 l 1,5,-1
 216 0 l 1,6,-1
 79 0 l 1,7,-1
 23 1263 l 1,8,-1
 143 1263 l 1,9,-1
 168 305 l 1,10,-1
 213 1263 l 1,11,-1
 324 1263 l 1,12,-1
 370 305 l 1,0,-1
EndSplineSet
EndChar

StartChar: x
Encoding: 89 120 92
Width: 327
GlyphClass: 2
Flags: W
HStem: 0 21G<15 125.5 201 311> 1243 20G<15 126.9 202.5 311> 1243 20G<15 126.9 202.5 311>
VStem: 15 109<1154 1263>
DStem2: 124 1263 15 1263 0.14723 -0.989102<0 271.81 562.391 715.494 1029.14 1260.87> 15 0 124 0 0.14723 0.989102<16.048 275.989 1004.96 1276.92>
LayerCount: 2
Fore
SplineSet
311 0 m 1,0,-1
 203 0 l 1,1,2
 199 30 199 30 192 74 c 128,-1,3
 185 118 185 118 178.5 159 c 128,-1,4
 172 200 172 200 167.5 229 c 128,-1,5
 163 258 163 258 163 257 c 0,6,7
 155 206 155 206 147 158 c 0,8,9
 140 117 140 117 133.5 73 c 128,-1,10
 127 29 127 29 124 0 c 1,11,-1
 15 0 l 1,12,-1
 110 625 l 1,13,-1
 15 1263 l 1,14,-1
 124 1263 l 1,15,-1
 163 994 l 1,16,17
 164 1001 164 1001 167 1021.5 c 128,-1,18
 170 1042 170 1042 174 1070 c 128,-1,19
 178 1098 178 1098 183 1129 c 128,-1,20
 188 1160 188 1160 192 1187.5 c 128,-1,21
 196 1215 196 1215 199 1235.5 c 128,-1,22
 202 1256 202 1256 203 1263 c 1,23,-1
 311 1263 l 1,24,-1
 217 625 l 1,25,-1
 311 0 l 1,0,-1
EndSplineSet
EndChar

StartChar: y
Encoding: 90 121 93
Width: 350
GlyphClass: 2
Flags: W
HStem: 0 21G<119 229> 1243 20G<21 134.421 215.464 327> 1243 20G<21 134.421 215.464 327>
VStem: 21 111<1152 1263> 119 110<0 603.933> 218 109<1154 1263>
LayerCount: 2
Fore
SplineSet
229 491 m 1,0,-1
 229 0 l 1,1,-1
 119 0 l 1,2,-1
 119 491 l 1,3,-1
 21 1263 l 1,4,-1
 132 1263 l 1,5,-1
 174 916 l 1,6,-1
 218 1263 l 1,7,-1
 327 1263 l 1,8,-1
 229 491 l 1,0,-1
EndSplineSet
EndChar

StartChar: z
Encoding: 91 122 94
Width: 271
GlyphClass: 2
Flags: W
HStem: 0 84<139 255> 1187 76<21 147>
VStem: 20 235<0 84 1187 1263>
DStem2: 20 0 139 84 0.106385 0.994325<96.1831 1193.77>
LayerCount: 2
Fore
SplineSet
253 1263 m 1,0,-1
 139 84 l 1,1,-1
 255 84 l 1,2,-1
 255 0 l 1,3,-1
 20 0 l 1,4,-1
 147 1187 l 1,5,-1
 21 1187 l 1,6,-1
 21 1263 l 1,7,-1
 253 1263 l 1,0,-1
EndSplineSet
EndChar

StartChar: braceleft
Encoding: 92 123 95
Width: 289
GlyphClass: 2
Flags: W
HStem: -91 96<157 281> 1460 98<157 281>
VStem: 46 235<-91 5 1460 1558> 46 111<5 1460>
LayerCount: 2
Fore
SplineSet
281 1558 m 1,0,-1
 281 1460 l 1,1,-1
 157 1460 l 1,2,-1
 157 5 l 1,3,-1
 281 5 l 1,4,-1
 281 -91 l 1,5,-1
 46 -91 l 1,6,-1
 46 1558 l 1,7,-1
 281 1558 l 1,0,-1
EndSplineSet
EndChar

StartChar: bar
Encoding: 93 124 96
Width: 205
GlyphClass: 2
Flags: W
VStem: 48 111<-100 1563>
LayerCount: 2
Fore
SplineSet
159 1563 m 1,0,-1
 159 -100 l 1,1,-1
 48 -100 l 1,2,-1
 48 1563 l 1,3,-1
 159 1563 l 1,0,-1
EndSplineSet
EndChar

StartChar: braceright
Encoding: 94 125 97
Width: 326
GlyphClass: 2
Flags: W
HStem: -91 96<-1 121> 1460 98<-1 121>
VStem: -1 235<-91 5 1460 1558> 121 113<5 1460>
LayerCount: 2
Fore
SplineSet
234 1558 m 1,0,-1
 234 -91 l 1,1,-1
 -1 -91 l 1,2,-1
 -1 5 l 1,3,-1
 121 5 l 1,4,-1
 121 1460 l 1,5,-1
 -1 1460 l 1,6,-1
 -1 1558 l 1,7,-1
 234 1558 l 1,0,-1
EndSplineSet
EndChar

StartChar: cent
Encoding: 98 162 101
Width: 357
GlyphClass: 2
Flags: W
HStem: -17 87<154.241 213.962> 1199 84<158.882 213.962>
VStem: 43 111<70.2065 1191.26> 214 109<70.2065 592 737 1198.46>
LayerCount: 2
Fore
SplineSet
323 737 m 1,0,-1
 214 737 l 1,1,-1
 214 1173 l 1,2,3
 212 1184 212 1184 203 1191.5 c 128,-1,4
 194 1199 194 1199 186 1199 c 0,5,6
 172 1199 172 1199 163 1191.5 c 128,-1,7
 154 1184 154 1184 154 1173 c 2,8,-1
 154 91 l 2,9,10
 154 84 154 84 163 77 c 128,-1,11
 172 70 172 70 186 70 c 0,12,13
 194 70 194 70 203 77 c 128,-1,14
 212 84 212 84 214 91 c 1,15,-1
 214 592 l 1,16,-1
 323 592 l 1,17,-1
 323 91 l 1,18,19
 322 68 322 68 310 48.5 c 128,-1,20
 298 29 298 29 279.5 14.5 c 128,-1,21
 261 0 261 0 236.5 -8.5 c 128,-1,22
 212 -17 212 -17 186 -17 c 0,23,24
 157 -17 157 -17 131.5 -8.5 c 128,-1,25
 106 0 106 0 86.5 14.5 c 128,-1,26
 67 29 67 29 55.5 48.5 c 128,-1,27
 44 68 44 68 43 91 c 1,28,-1
 43 1173 l 1,29,30
 44 1196 44 1196 55.5 1216 c 128,-1,31
 67 1236 67 1236 86.5 1251 c 128,-1,32
 106 1266 106 1266 131.5 1274.5 c 128,-1,33
 157 1283 157 1283 186 1283 c 0,34,35
 212 1283 212 1283 236.5 1274.5 c 128,-1,36
 261 1266 261 1266 279.5 1251.5 c 128,-1,37
 298 1237 298 1237 310 1217 c 128,-1,38
 322 1197 322 1197 323 1175 c 1,39,-1
 323 737 l 1,0,-1
EndSplineSet
EndChar

StartChar: sterling
Encoding: 99 163 102
Width: 455
GlyphClass: 2
Flags: W
HStem: 0 88<146 421> 716 88<30 121 232 421> 1394 88<237.709 309.698>
VStem: 121 111<148.326 716 804 1383.69> 310 113<1096 1393.37>
LayerCount: 2
Fore
SplineSet
30 804 m 1,0,-1
 121 804 l 1,1,-1
 121 1359 l 2,2,3
 121 1384 121 1384 133 1406.5 c 128,-1,4
 145 1429 145 1429 165 1445.5 c 128,-1,5
 185 1462 185 1462 212.5 1472 c 128,-1,6
 240 1482 240 1482 270 1482 c 0,7,8
 301 1482 301 1482 329 1472 c 128,-1,9
 357 1462 357 1462 378 1445 c 128,-1,10
 399 1428 399 1428 411 1405.5 c 128,-1,11
 423 1383 423 1383 423 1358 c 2,12,-1
 423 1096 l 1,13,-1
 310 1096 l 1,14,-1
 310 1361 l 2,15,16
 310 1374 310 1374 298 1384 c 128,-1,17
 286 1394 286 1394 270 1394 c 0,18,19
 253 1394 253 1394 242.5 1384 c 128,-1,20
 232 1374 232 1374 232 1361 c 2,21,-1
 232 804 l 1,22,-1
 421 804 l 1,23,-1
 421 716 l 1,24,-1
 232 716 l 1,25,-1
 232 318 l 2,26,27
 232 252 232 252 218.5 207.5 c 128,-1,28
 205 163 205 163 189 137 c 0,29,30
 170 105 170 105 146 88 c 1,31,-1
 421 88 l 1,32,-1
 421 0 l 1,33,-1
 15 0 l 1,34,-1
 15 88 l 1,35,36
 44 106 44 106 68 137 c 0,37,38
 88 163 88 163 104.5 207 c 128,-1,39
 121 251 121 251 121 317 c 2,40,-1
 121 716 l 1,41,-1
 30 716 l 1,42,-1
 30 804 l 1,0,-1
EndSplineSet
EndChar

StartChar: currency
Encoding: 100 164 103
Width: 435
GlyphClass: 2
Flags: W
HStem: 702 82<183.499 242.795> 1330 79<188.981 243.131> 1443 20G<61.0784 101.338 333.11 372.396>
VStem: 81 102<791.656 1321.75> 248 103<792.593 1321.75>
DStem2: 143 1392 57 1374 0.632644 -0.774443<-90.7735 14.283> 291 1392 340 1327 0.641072 0.767481<-15.2574 92.2783>
LayerCount: 2
Fore
SplineSet
348 665 m 1,0,-1
 295 722 l 1,1,2
 260 702 260 702 217 702 c 0,3,4
 173 702 173 702 138 722 c 1,5,-1
 85 664 l 1,6,-1
 24 716 l 1,7,-1
 89 791 l 1,8,9
 81 812 81 812 81 831 c 2,10,-1
 81 1281 l 2,11,12
 81 1304 81 1304 92 1328 c 1,13,14
 90 1332 90 1332 80 1345.5 c 128,-1,15
 70 1359 70 1359 57 1374 c 0,16,17
 42 1392 42 1392 24 1412 c 1,18,-1
 85 1463 l 1,19,-1
 143 1392 l 1,20,21
 179 1409 179 1409 217 1409 c 256,22,23
 255 1409 255 1409 291 1392 c 1,24,-1
 349 1465 l 1,25,-1
 411 1412 l 1,26,-1
 340 1327 l 1,27,28
 351 1307 351 1307 351 1283 c 2,29,-1
 351 827 l 2,30,31
 351 811 351 811 343 792 c 1,32,-1
 410 716 l 1,33,-1
 348 665 l 1,0,-1
248 1301 m 2,34,35
 248 1314 248 1314 239 1322 c 128,-1,36
 230 1330 230 1330 217 1330 c 256,37,38
 204 1330 204 1330 193.5 1322 c 128,-1,39
 183 1314 183 1314 183 1301 c 2,40,-1
 183 810 l 2,41,42
 183 803 183 803 191.5 793.5 c 128,-1,43
 200 784 200 784 217 784 c 0,44,45
 230 784 230 784 239 791.5 c 128,-1,46
 248 799 248 799 248 810 c 2,47,-1
 248 1301 l 2,34,35
EndSplineSet
EndChar

StartChar: yen
Encoding: 101 165 104
Width: 369
GlyphClass: 2
Flags: W
HStem: 0 21G<128 239> 373 92<6 128 239 362> 528 91<6 121 245 362> 1443 20G<13 130.792 237.208 351>
VStem: 6 356<373 465 528 619> 13 116<1347 1463> 128 111<0 373 465 528> 239 112<1351 1463>
DStem2: 129 1463 13 1463 0.126927 -0.991912<0 616.015> 184 849 245 619 0.124613 0.992205<0 616.068>
LayerCount: 2
Fore
SplineSet
362 528 m 1,0,-1
 239 528 l 1,1,-1
 239 465 l 1,2,-1
 362 465 l 1,3,-1
 362 373 l 1,4,-1
 239 373 l 1,5,-1
 239 0 l 1,6,-1
 128 0 l 1,7,-1
 128 373 l 1,8,-1
 6 373 l 1,9,-1
 6 465 l 1,10,-1
 128 465 l 1,11,-1
 128 528 l 1,12,-1
 6 528 l 1,13,-1
 6 619 l 1,14,-1
 121 619 l 1,15,-1
 13 1463 l 1,16,-1
 129 1463 l 1,17,-1
 184 849 l 1,18,-1
 239 1463 l 1,19,-1
 351 1463 l 1,20,-1
 245 619 l 1,21,-1
 362 619 l 1,22,-1
 362 528 l 1,0,-1
EndSplineSet
EndChar

StartChar: brokenbar
Encoding: 102 166 105
Width: 211
GlyphClass: 2
Flags: W
HStem: 0 21G<50 161> 1443 20G<50 161>
VStem: 50 111<0 669 738 1463>
LayerCount: 2
Fore
SplineSet
161 669 m 1,0,-1
 161 0 l 1,1,-1
 50 0 l 1,2,-1
 50 669 l 1,3,-1
 161 669 l 1,0,-1
161 1463 m 1,4,-1
 161 738 l 1,5,-1
 50 738 l 1,6,-1
 50 1463 l 1,7,-1
 161 1463 l 1,4,-1
EndSplineSet
EndChar

StartChar: section
Encoding: 103 167 106
Width: 342
GlyphClass: 2
Flags: W
HStem: -9 84<146.301 205.767> 1418 84<135.351 194.739>
VStem: 20 101<597.282 915.98 1172.39 1413.95> 200 108<82.736 375.506 732.778 919.687 1154 1410.26>
DStem2: 179.5 1137 57.5 1153 0.392859 -0.919599<-225.975 113.993 231.022 387.631> 206 520 115.5 459 0.466918 -0.8843<0 290.449>
LayerCount: 2
Fore
SplineSet
20 774 m 0,0,1
 20 834 20 834 31 874.5 c 128,-1,2
 42 915 42 915 59.5 939.5 c 128,-1,3
 77 964 77 964 97.5 976 c 128,-1,4
 118 988 118 988 136 993 c 1,5,6
 115 1030 115 1030 94.5 1068.5 c 128,-1,7
 74 1107 74 1107 57.5 1153 c 128,-1,8
 41 1199 41 1199 31 1256.5 c 128,-1,9
 21 1314 21 1314 21 1389 c 0,10,11
 21 1416 21 1416 34 1437.5 c 128,-1,12
 47 1459 47 1459 68 1473 c 128,-1,13
 89 1487 89 1487 114.5 1494.5 c 128,-1,14
 140 1502 140 1502 165 1502 c 0,15,16
 192 1502 192 1502 217.5 1495 c 128,-1,17
 243 1488 243 1488 263 1473.5 c 128,-1,18
 283 1459 283 1459 295.5 1438.5 c 128,-1,19
 308 1418 308 1418 308 1391 c 2,20,-1
 308 1154 l 1,21,-1
 200 1154 l 1,22,-1
 200 1389 l 2,23,24
 200 1403 200 1403 190 1410.5 c 128,-1,25
 180 1418 180 1418 165 1418 c 256,26,27
 150 1418 150 1418 140 1410.5 c 128,-1,28
 130 1403 130 1403 130 1389 c 0,29,30
 130 1308 130 1308 144 1247.5 c 128,-1,31
 158 1187 158 1187 179.5 1137 c 128,-1,32
 201 1087 201 1087 225.5 1044 c 128,-1,33
 250 1001 250 1001 271.5 955.5 c 128,-1,34
 293 910 293 910 307 858 c 128,-1,35
 321 806 321 806 321 739 c 0,36,37
 321 679 321 679 310 639 c 128,-1,38
 299 599 299 599 282 574.5 c 128,-1,39
 265 550 265 550 244.5 537.5 c 128,-1,40
 224 525 224 525 206 520 c 1,41,42
 226 483 226 483 246.5 441 c 128,-1,43
 267 399 267 399 283.5 349 c 128,-1,44
 300 299 300 299 310.5 238.5 c 128,-1,45
 321 178 321 178 321 104 c 0,46,47
 321 77 321 77 308 55.5 c 128,-1,48
 295 34 295 34 274 20 c 128,-1,49
 253 6 253 6 227 -1.5 c 128,-1,50
 201 -9 201 -9 176 -9 c 0,51,52
 150 -9 150 -9 124.5 -2 c 128,-1,53
 99 5 99 5 79 19.5 c 128,-1,54
 59 34 59 34 46.5 54.5 c 128,-1,55
 34 75 34 75 34 102 c 2,56,-1
 34 349 l 1,57,-1
 141 349 l 1,58,-1
 141 104 l 2,59,60
 141 90 141 90 151 82.5 c 128,-1,61
 161 75 161 75 176 75 c 256,62,63
 191 75 191 75 201 82.5 c 128,-1,64
 211 90 211 90 211 104 c 0,65,66
 211 184 211 184 197 246.5 c 128,-1,67
 183 309 183 309 161.5 361 c 128,-1,68
 140 413 140 413 115.5 459 c 128,-1,69
 91 505 91 505 69.5 552.5 c 128,-1,70
 48 600 48 600 34 653.5 c 128,-1,71
 20 707 20 707 20 774 c 0,0,1
121 782 m 0,72,73
 121 725 121 725 133.5 681 c 128,-1,74
 146 637 146 637 165 596 c 1,75,76
 172 597 172 597 182 603 c 128,-1,77
 192 609 192 609 200 624 c 128,-1,78
 208 639 208 639 214 664.5 c 128,-1,79
 220 690 220 690 220 731 c 0,80,81
 220 788 220 788 208 833.5 c 128,-1,82
 196 879 196 879 176 921 c 1,83,84
 169 919 169 919 159.5 912 c 128,-1,85
 150 905 150 905 141.5 889.5 c 128,-1,86
 133 874 133 874 127 848 c 128,-1,87
 121 822 121 822 121 782 c 0,72,73
EndSplineSet
EndChar

StartChar: dieresis
Encoding: 104 168 107
Width: 487
GlyphClass: 2
Flags: W
HStem: 63 132<96 216 264 383>
VStem: 96 120<63 195> 264 119<63 195>
LayerCount: 2
Fore
SplineSet
383 195 m 1,0,-1
 383 63 l 1,1,-1
 264 63 l 1,2,-1
 264 195 l 1,3,-1
 383 195 l 1,0,-1
216 195 m 1,4,-1
 216 63 l 1,5,-1
 96 63 l 1,6,-1
 96 195 l 1,7,-1
 216 195 l 1,4,-1
EndSplineSet
EndChar

StartChar: copyright
Encoding: 105 169 108
Width: 1224
GlyphClass: 2
Flags: W
HStem: 295 102<408.716 814.998> 483 85<570.399 643.875> 1199 84<570.399 643.875> 1377 102<408.716 814.998>
VStem: 20 109<680.061 1093.65> 459 111<568.212 1198.59> 644 108<568.212 810 955 1198.46> 1095 109<680.061 1093.65>
LayerCount: 2
Fore
SplineSet
752 955 m 1,0,-1
 644 955 l 1,1,-1
 644 1173 l 2,2,3
 644 1184 644 1184 630.5 1191.5 c 128,-1,4
 617 1199 617 1199 608 1199 c 0,5,6
 594 1199 594 1199 582 1191.5 c 128,-1,7
 570 1184 570 1184 570 1173 c 2,8,-1
 570 591 l 2,9,10
 570 583 570 583 581.5 575.5 c 128,-1,11
 593 568 593 568 608 568 c 0,12,13
 619 568 619 568 631.5 575.5 c 128,-1,14
 644 583 644 583 644 591 c 2,15,-1
 644 810 l 1,16,-1
 752 810 l 1,17,-1
 752 591 l 2,18,19
 752 568 752 568 739.5 548.5 c 128,-1,20
 727 529 727 529 706.5 514.5 c 128,-1,21
 686 500 686 500 660 491.5 c 128,-1,22
 634 483 634 483 608 483 c 0,23,24
 579 483 579 483 552 491.5 c 128,-1,25
 525 500 525 500 504.5 514.5 c 128,-1,26
 484 529 484 529 471.5 548.5 c 128,-1,27
 459 568 459 568 459 591 c 2,28,-1
 459 1173 l 2,29,30
 459 1196 459 1196 471.5 1216 c 128,-1,31
 484 1236 484 1236 504.5 1251 c 128,-1,32
 525 1266 525 1266 552 1274.5 c 128,-1,33
 579 1283 579 1283 608 1283 c 0,34,35
 634 1283 634 1283 660 1274.5 c 128,-1,36
 686 1266 686 1266 706.5 1251.5 c 128,-1,37
 727 1237 727 1237 739.5 1217 c 128,-1,38
 752 1197 752 1197 752 1175 c 2,39,-1
 752 955 l 1,0,-1
20 887 m 256,40,41
 20 1010 20 1010 66.5 1117.5 c 128,-1,42
 113 1225 113 1225 193.5 1305.5 c 128,-1,43
 274 1386 274 1386 381.5 1432.5 c 128,-1,44
 489 1479 489 1479 612 1479 c 256,45,46
 735 1479 735 1479 842.5 1432.5 c 128,-1,47
 950 1386 950 1386 1030.5 1305.5 c 128,-1,48
 1111 1225 1111 1225 1157.5 1117.5 c 128,-1,49
 1204 1010 1204 1010 1204 887 c 256,50,51
 1204 764 1204 764 1157.5 656.5 c 128,-1,52
 1111 549 1111 549 1030.5 468.5 c 128,-1,53
 950 388 950 388 842.5 341.5 c 128,-1,54
 735 295 735 295 612 295 c 256,55,56
 489 295 489 295 381.5 341.5 c 128,-1,57
 274 388 274 388 193.5 468.5 c 128,-1,58
 113 549 113 549 66.5 656.5 c 128,-1,59
 20 764 20 764 20 887 c 256,40,41
129 887 m 256,60,61
 129 786 129 786 166.5 696.5 c 128,-1,62
 204 607 204 607 269 540.5 c 128,-1,63
 334 474 334 474 422.5 435.5 c 128,-1,64
 511 397 511 397 612 397 c 256,65,66
 713 397 713 397 801 435.5 c 128,-1,67
 889 474 889 474 954.5 540.5 c 128,-1,68
 1020 607 1020 607 1057.5 696.5 c 128,-1,69
 1095 786 1095 786 1095 887 c 256,70,71
 1095 988 1095 988 1057.5 1077 c 128,-1,72
 1020 1166 1020 1166 954.5 1233 c 128,-1,73
 889 1300 889 1300 801 1338.5 c 128,-1,74
 713 1377 713 1377 612 1377 c 256,75,76
 511 1377 511 1377 422.5 1338.5 c 128,-1,77
 334 1300 334 1300 269 1233 c 128,-1,78
 204 1166 204 1166 166.5 1077 c 128,-1,79
 129 988 129 988 129 887 c 256,60,61
EndSplineSet
EndChar

StartChar: guillemotleft
Encoding: 107 171 110
Width: 477
GlyphClass: 2
Flags: W
VStem: 34 428
DStem2: 147 732 34 732 0.43824 -0.898858<0 257.506> 34 732 147 732 0.438976 0.898499<49.6042 323.292> 340 732 227 732 0.43824 -0.898858<0 257.506> 227 732 340 732 0.438976 0.898499<49.6042 323.292>
LayerCount: 2
Fore
SplineSet
462 1213 m 1,0,-1
 462 977 l 1,1,-1
 340 732 l 1,2,-1
 462 505 l 1,3,-1
 462 250 l 1,4,-1
 227 732 l 1,5,-1
 462 1213 l 1,0,-1
269 1213 m 1,6,-1
 269 977 l 1,7,-1
 147 732 l 1,8,-1
 269 505 l 1,9,-1
 269 250 l 1,10,-1
 34 732 l 1,11,-1
 269 1213 l 1,6,-1
EndSplineSet
EndChar

StartChar: logicalnot
Encoding: 108 172 111
Width: 836
GlyphClass: 2
Flags: W
HStem: 881 83<125 816>
VStem: 20 105<600 881>
LayerCount: 2
Fore
SplineSet
816 963 m 1,0,-1
 816 881 l 1,1,-1
 125 881 l 1,2,-1
 125 600 l 1,3,-1
 20 600 l 1,4,-1
 20 964 l 1,5,-1
 816 963 l 1,0,-1
EndSplineSet
EndChar

StartChar: registered
Encoding: 109 174 112
Width: 1224
GlyphClass: 2
Flags: W
HStem: 295 102<408.716 814.998> 860 61<573 619.012> 1214 80.5<572 619.012> 1377 102<408.716 814.998>
VStem: 20 109<680.061 1093.65> 471 102<496 860 921 1214> 645 100<496 859.109 924.613 1210.39> 1095 109<680.061 1093.65>
LayerCount: 2
Fore
SplineSet
745 1000 m 2,0,1
 745 968 745 968 734.5 947.5 c 128,-1,2
 724 927 724 927 712 915 c 0,3,4
 698 901 698 901 680 893 c 1,5,6
 698 886 698 886 712 874 c 0,7,8
 724 863 724 863 734.5 845.5 c 128,-1,9
 745 828 745 828 745 799 c 2,10,-1
 745 496 l 1,11,-1
 645 496 l 1,12,-1
 645 830 l 2,13,14
 645 838 645 838 642.5 843.5 c 128,-1,15
 640 849 640 849 632.5 852.5 c 128,-1,16
 625 856 625 856 611 858 c 128,-1,17
 597 860 597 860 573 860 c 1,18,-1
 573 496 l 1,19,-1
 471 496 l 1,20,-1
 471 1296 l 1,21,22
 536 1296 536 1296 587 1294.5 c 128,-1,23
 638 1293 638 1293 673 1283 c 128,-1,24
 708 1273 708 1273 726.5 1251.5 c 128,-1,25
 745 1230 745 1230 745 1190 c 2,26,-1
 745 1000 l 2,0,1
635 1190 m 2,27,28
 635 1207 635 1207 619.5 1210.5 c 128,-1,29
 604 1214 604 1214 572 1214 c 1,30,-1
 572 921 l 1,31,32
 604 921 604 921 619.5 924.5 c 128,-1,33
 635 928 635 928 635 946 c 2,34,-1
 635 1190 l 2,27,28
20 887 m 256,35,36
 20 1010 20 1010 66.5 1117.5 c 128,-1,37
 113 1225 113 1225 193.5 1305.5 c 128,-1,38
 274 1386 274 1386 381.5 1432.5 c 128,-1,39
 489 1479 489 1479 612 1479 c 256,40,41
 735 1479 735 1479 842.5 1432.5 c 128,-1,42
 950 1386 950 1386 1030.5 1305.5 c 128,-1,43
 1111 1225 1111 1225 1157.5 1117.5 c 128,-1,44
 1204 1010 1204 1010 1204 887 c 256,45,46
 1204 764 1204 764 1157.5 656.5 c 128,-1,47
 1111 549 1111 549 1030.5 468.5 c 128,-1,48
 950 388 950 388 842.5 341.5 c 128,-1,49
 735 295 735 295 612 295 c 256,50,51
 489 295 489 295 381.5 341.5 c 128,-1,52
 274 388 274 388 193.5 468.5 c 128,-1,53
 113 549 113 549 66.5 656.5 c 128,-1,54
 20 764 20 764 20 887 c 256,35,36
129 887 m 256,55,56
 129 786 129 786 166.5 696.5 c 128,-1,57
 204 607 204 607 269 540.5 c 128,-1,58
 334 474 334 474 422.5 435.5 c 128,-1,59
 511 397 511 397 612 397 c 256,60,61
 713 397 713 397 801 435.5 c 128,-1,62
 889 474 889 474 954.5 540.5 c 128,-1,63
 1020 607 1020 607 1057.5 696.5 c 128,-1,64
 1095 786 1095 786 1095 887 c 256,65,66
 1095 988 1095 988 1057.5 1077 c 128,-1,67
 1020 1166 1020 1166 954.5 1233 c 128,-1,68
 889 1300 889 1300 801 1338.5 c 128,-1,69
 713 1377 713 1377 612 1377 c 256,70,71
 511 1377 511 1377 422.5 1338.5 c 128,-1,72
 334 1300 334 1300 269 1233 c 128,-1,73
 204 1166 204 1166 166.5 1077 c 128,-1,74
 129 988 129 988 129 887 c 256,55,56
EndSplineSet
EndChar

StartChar: macron
Encoding: 110 175 113
Width: 271
GlyphClass: 2
Flags: W
HStem: 72 123<-22 335>
VStem: -22 357<72 195>
LayerCount: 2
Fore
SplineSet
335 72 m 1,0,-1
 -22 72 l 1,1,-1
 -22 195 l 1,2,-1
 335 195 l 1,3,-1
 335 72 l 1,0,-1
EndSplineSet
EndChar

StartChar: uni00B2
Encoding: 113 178 116
Width: 385
GlyphClass: 2
Flags: W
HStem: 0 101<166 347> 1084 98<160.282 232.082>
VStem: 43 111<770 1074.72>
DStem2: 44 0 166 101 0.183768 0.98297<121.7 1087.68>
LayerCount: 2
Fore
SplineSet
43 1061 m 2,0,1
 43 1086 43 1086 54 1108 c 128,-1,2
 65 1130 65 1130 85 1146.5 c 128,-1,3
 105 1163 105 1163 133 1172.5 c 128,-1,4
 161 1182 161 1182 194 1182 c 0,5,6
 228 1182 228 1182 258.5 1171 c 128,-1,7
 289 1160 289 1160 310.5 1140 c 128,-1,8
 332 1120 332 1120 342.5 1092.5 c 128,-1,9
 353 1065 353 1065 347 1032 c 0,10,11
 300 781 300 781 265.5 604.5 c 128,-1,12
 231 428 231 428 209 316 c 0,13,14
 183 185 183 185 166 101 c 1,15,-1
 347 101 l 1,16,-1
 347 0 l 1,17,-1
 44 0 l 1,18,19
 68 114 68 114 98 268 c 0,20,21
 124 400 124 400 159 589.5 c 128,-1,22
 194 779 194 779 236 1027 c 0,23,24
 242 1061 242 1061 227.5 1072.5 c 128,-1,25
 213 1084 213 1084 194 1084 c 0,26,27
 177 1084 177 1084 165.5 1075 c 128,-1,28
 154 1066 154 1066 154 1052 c 2,29,-1
 154 770 l 1,30,-1
 43 770 l 1,31,-1
 43 1061 l 2,0,1
EndSplineSet
EndChar

StartChar: uni00B3
Encoding: 114 179 117
Width: 365
GlyphClass: 2
Flags: W
HStem: -26 84<156.628 205.906> 605 86<124 206.356> 1099 84<156.628 206.406>
VStem: 43 108<64.1882 419 838 1092.81> 211 111<64.1882 605 691 1092.3>
LayerCount: 2
Fore
SplineSet
43 1076 m 2,0,1
 43 1098 43 1098 54.5 1118 c 128,-1,2
 66 1138 66 1138 85 1152 c 128,-1,3
 104 1166 104 1166 129 1174.5 c 128,-1,4
 154 1183 154 1183 180 1183 c 0,5,6
 209 1183 209 1183 234.5 1174.5 c 128,-1,7
 260 1166 260 1166 279.5 1151.5 c 128,-1,8
 299 1137 299 1137 310.5 1117 c 128,-1,9
 322 1097 322 1097 322 1074 c 2,10,-1
 322 714 l 2,11,12
 322 695 322 695 317 683 c 128,-1,13
 312 671 312 671 307 663 c 0,14,15
 300 654 300 654 292 648 c 1,16,17
 300 645 300 645 307 636 c 0,18,19
 312 628 312 628 317 615 c 128,-1,20
 322 602 322 602 322 582 c 2,21,-1
 322 83 l 2,22,23
 322 60 322 60 310.5 40 c 128,-1,24
 299 20 299 20 279.5 5.5 c 128,-1,25
 260 -9 260 -9 234.5 -17.5 c 128,-1,26
 209 -26 209 -26 180 -26 c 0,27,28
 154 -26 154 -26 129 -17.5 c 128,-1,29
 104 -9 104 -9 85 5 c 128,-1,30
 66 19 66 19 54.5 38.5 c 128,-1,31
 43 58 43 58 43 81 c 2,32,-1
 43 419 l 1,33,-1
 151 419 l 1,34,-1
 151 99 l 2,35,36
 151 88 151 88 153.5 79 c 128,-1,37
 156 70 156 70 162 64 c 128,-1,38
 168 58 168 58 180 58 c 0,39,40
 194 58 194 58 200.5 64 c 128,-1,41
 207 70 207 70 209.5 79 c 128,-1,42
 212 88 212 88 211.5 98.5 c 128,-1,43
 211 109 211 109 211 118 c 2,44,-1
 211 566 l 2,45,46
 211 582 211 582 206.5 593.5 c 128,-1,47
 202 605 202 605 182 605 c 2,48,-1
 124 605 l 1,49,-1
 124 691 l 1,50,-1
 182 691 l 2,51,52
 202 691 202 691 206.5 700 c 128,-1,53
 211 709 211 709 211 725 c 2,54,-1
 211 1037 l 2,55,56
 211 1046 211 1046 211.5 1057 c 128,-1,57
 212 1068 212 1068 210 1077 c 128,-1,58
 208 1086 208 1086 201.5 1092.5 c 128,-1,59
 195 1099 195 1099 180 1099 c 0,60,61
 168 1099 168 1099 162 1093 c 128,-1,62
 156 1087 156 1087 153.5 1078 c 128,-1,63
 151 1069 151 1069 151 1058 c 2,64,-1
 151 838 l 1,65,-1
 43 838 l 1,66,-1
 43 1076 l 2,0,1
EndSplineSet
EndChar

StartChar: acute
Encoding: 115 180 118
Width: 271
GlyphClass: 2
Flags: W
HStem: 70 340
VStem: 79 242
LayerCount: 2
Fore
SplineSet
211 410 m 1,0,-1
 321 70 l 1,1,-1
 237 70 l 1,2,-1
 79 410 l 1,3,-1
 211 410 l 1,0,-1
EndSplineSet
EndChar

StartChar: uni00B5
Encoding: 116 181 119
AltUni2: 0003bc.ffffffff.0
Width: 367
GlyphClass: 2
Flags: W
HStem: -17 85<159.508 211.969> 1243 20G<44 155 212 323> 1243 20G<44 155 212 323>
VStem: 44 111<-93 11 75.2197 1263> 212 111<68.3164 1263>
LayerCount: 2
Fore
SplineSet
44 1263 m 1,0,-1
 155 1263 l 1,1,-1
 155 93 l 2,2,3
 155 82 155 82 163.5 75 c 128,-1,4
 172 68 172 68 183 68 c 256,5,6
 194 68 194 68 203 75 c 128,-1,7
 212 82 212 82 212 93 c 2,8,-1
 212 1263 l 1,9,-1
 323 1263 l 1,10,-1
 323 89 l 2,11,12
 323 66 323 66 312.5 47 c 128,-1,13
 302 28 302 28 285.5 13.5 c 128,-1,14
 269 -1 269 -1 247 -9 c 128,-1,15
 225 -17 225 -17 203 -17 c 0,16,17
 195 -17 195 -17 186.5 -12.5 c 128,-1,18
 178 -8 178 -8 171 -3 c 0,19,20
 163 3 163 3 155 11 c 1,21,-1
 155 -93 l 1,22,-1
 44 -93 l 1,23,-1
 44 1263 l 1,0,-1
EndSplineSet
EndChar

StartChar: paragraph
Encoding: 117 182 120
Width: 539
GlyphClass: 2
Flags: W
HStem: 0 21G<232 348 379 493> 1443 20G<182.5 493>
VStem: 46 447<714.791 1427.5> 232 116<0 685> 379 114<0 686>
LayerCount: 2
Fore
SplineSet
46 1329 m 2,0,1
 46 1360 46 1360 58 1385 c 128,-1,2
 70 1410 70 1410 91 1427.5 c 128,-1,3
 112 1445 112 1445 139.5 1454 c 128,-1,4
 167 1463 167 1463 198 1463 c 2,5,-1
 493 1463 l 1,6,-1
 493 0 l 1,7,-1
 379 0 l 1,8,-1
 379 686 l 1,9,-1
 348 686 l 1,10,-1
 348 0 l 1,11,-1
 232 0 l 1,12,-1
 232 685 l 1,13,14
 141 685 141 685 93.5 713 c 128,-1,15
 46 741 46 741 46 811 c 2,16,-1
 46 1329 l 2,0,1
EndSplineSet
EndChar

StartChar: periodcentered
Encoding: 118 183 121
Width: 198
GlyphClass: 2
Flags: W
HStem: 645 153<18 169>
VStem: 18 151<645 798>
LayerCount: 2
Fore
SplineSet
169 798 m 1,0,-1
 169 645 l 1,1,-1
 18 645 l 1,2,-1
 18 798 l 1,3,-1
 169 798 l 1,0,-1
EndSplineSet
EndChar

StartChar: cedilla
Encoding: 119 184 122
Width: 271
GlyphClass: 2
Flags: W
HStem: -339 339<107 195>
VStem: 59 136<-339 -237.752> 107 88<-101.248 0>
LayerCount: 2
Fore
SplineSet
59 -339 m 1,0,-1
 107 0 l 1,1,-1
 195 0 l 1,2,-1
 195 -339 l 1,3,-1
 59 -339 l 1,0,-1
EndSplineSet
EndChar

StartChar: uni00B9
Encoding: 120 185 123
Width: 334
GlyphClass: 2
Flags: W
HStem: 0 96<11 117 230 323> 1063 97<11 117>
VStem: 11 219<1063 1160> 117 113<96 1063>
LayerCount: 2
Fore
SplineSet
11 96 m 1,0,-1
 117 96 l 1,1,-1
 117 1063 l 1,2,-1
 11 1063 l 1,3,-1
 11 1160 l 1,4,-1
 230 1160 l 1,5,-1
 230 96 l 1,6,-1
 323 96 l 1,7,-1
 323 0 l 1,8,-1
 11 0 l 1,9,-1
 11 96 l 1,0,-1
EndSplineSet
EndChar

StartChar: onequarter
Encoding: 123 188 126
Width: 932
GlyphClass: 2
Flags: W
HStem: 0 21G<346 459.146 786 897> 302 96<27 133 246 339 687 786> 1365 97<27 133>
VStem: 27 219<1365 1462> 133 113<398 1365> 346 111<0 111> 503 111<1352 1463> 693 110<1051 1161> 786 111<0 298 390 661>
DStem2: 346 0 457 0 0.106701 0.994291<11.8438 1471.4> 573 298 687 390 0.137725 0.990471<106.824 871.303>
LayerCount: 2
Fore
SplineSet
897 661 m 1,0,-1
 897 0 l 1,1,-1
 786 0 l 1,2,-1
 786 298 l 1,3,-1
 573 298 l 1,4,-1
 693 1161 l 1,5,-1
 803 1161 l 1,6,-1
 687 390 l 1,7,-1
 786 390 l 1,8,-1
 786 661 l 1,9,-1
 897 661 l 1,0,-1
614 1463 m 1,10,-1
 457 0 l 1,11,-1
 346 0 l 1,12,-1
 503 1463 l 1,13,-1
 614 1463 l 1,10,-1
27 398 m 1,14,-1
 133 398 l 1,15,-1
 133 1365 l 1,16,-1
 27 1365 l 1,17,-1
 27 1462 l 1,18,-1
 246 1462 l 1,19,-1
 246 398 l 1,20,-1
 339 398 l 1,21,-1
 339 302 l 1,22,-1
 27 302 l 1,23,-1
 27 398 l 1,14,-1
EndSplineSet
EndChar

StartChar: threequarters
Encoding: 125 190 128
Width: 903
GlyphClass: 2
Flags: W
HStem: 0 21G<330 443.146 755 866> 254 84<145.628 194.906> 298 92<656 755> 885 86<113 195.356> 1379 84<145.628 195.406>
VStem: 32 108<344.188 699 1118 1372.81> 200 111<344.188 885 971 1372.3> 330 111<0 111> 487 111<1352 1463> 662 110<1051 1161> 755 111<0 298 390 661>
DStem2: 330 0 441 0 0.106701 0.994291<11.8438 1471.4> 542 298 656 390 0.137725 0.990471<106.824 871.303>
LayerCount: 2
Fore
SplineSet
32 1356 m 2,0,1
 32 1378 32 1378 43.5 1398 c 128,-1,2
 55 1418 55 1418 74 1432 c 128,-1,3
 93 1446 93 1446 118 1454.5 c 128,-1,4
 143 1463 143 1463 169 1463 c 0,5,6
 198 1463 198 1463 223.5 1454.5 c 128,-1,7
 249 1446 249 1446 268.5 1431.5 c 128,-1,8
 288 1417 288 1417 299.5 1397 c 128,-1,9
 311 1377 311 1377 311 1354 c 2,10,-1
 311 994 l 2,11,12
 311 975 311 975 306 963 c 128,-1,13
 301 951 301 951 296 943 c 0,14,15
 289 934 289 934 281 928 c 1,16,17
 289 925 289 925 296 916 c 0,18,19
 301 908 301 908 306 895 c 128,-1,20
 311 882 311 882 311 862 c 2,21,-1
 311 363 l 2,22,23
 311 340 311 340 299.5 320 c 128,-1,24
 288 300 288 300 268.5 285.5 c 128,-1,25
 249 271 249 271 223.5 262.5 c 128,-1,26
 198 254 198 254 169 254 c 0,27,28
 143 254 143 254 118 262.5 c 128,-1,29
 93 271 93 271 74 285 c 128,-1,30
 55 299 55 299 43.5 318.5 c 128,-1,31
 32 338 32 338 32 361 c 2,32,-1
 32 699 l 1,33,-1
 140 699 l 1,34,-1
 140 379 l 2,35,36
 140 368 140 368 142.5 359 c 128,-1,37
 145 350 145 350 151 344 c 128,-1,38
 157 338 157 338 169 338 c 0,39,40
 183 338 183 338 189.5 344 c 128,-1,41
 196 350 196 350 198.5 359 c 128,-1,42
 201 368 201 368 200.5 378.5 c 128,-1,43
 200 389 200 389 200 398 c 2,44,-1
 200 846 l 2,45,46
 200 862 200 862 195.5 873.5 c 128,-1,47
 191 885 191 885 171 885 c 2,48,-1
 113 885 l 1,49,-1
 113 971 l 1,50,-1
 171 971 l 2,51,52
 191 971 191 971 195.5 980 c 128,-1,53
 200 989 200 989 200 1005 c 2,54,-1
 200 1317 l 2,55,56
 200 1326 200 1326 200.5 1337 c 128,-1,57
 201 1348 201 1348 199 1357 c 128,-1,58
 197 1366 197 1366 190.5 1372.5 c 128,-1,59
 184 1379 184 1379 169 1379 c 0,60,61
 157 1379 157 1379 151 1373 c 128,-1,62
 145 1367 145 1367 142.5 1358 c 128,-1,63
 140 1349 140 1349 140 1338 c 2,64,-1
 140 1118 l 1,65,-1
 32 1118 l 1,66,-1
 32 1356 l 2,0,1
866 661 m 1,67,-1
 866 0 l 1,68,-1
 755 0 l 1,69,-1
 755 298 l 1,70,-1
 542 298 l 1,71,-1
 662 1161 l 1,72,-1
 772 1161 l 1,73,-1
 656 390 l 1,74,-1
 755 390 l 1,75,-1
 755 661 l 1,76,-1
 866 661 l 1,67,-1
598 1463 m 1,77,-1
 441 0 l 1,78,-1
 330 0 l 1,79,-1
 487 1463 l 1,80,-1
 598 1463 l 1,77,-1
EndSplineSet
EndChar

StartChar: AE
Encoding: 133 198 136
Width: 490
GlyphClass: 2
Flags: W
HStem: 0 93<337 483> 318 99<168 222> 728 99<337 446> 1366 97<339 483>
VStem: 5 115<0 115> 228 109<93 318 417 728> 245 92<720.617 728 827 1223>
DStem2: 5 0 120 0 0.116762 0.99316<13.4277 333.689 433.18 1242.66>
LayerCount: 2
Fore
SplineSet
483 1366 m 1,0,-1
 339 1366 l 1,1,-1
 337 827 l 1,2,-1
 446 827 l 1,3,-1
 446 728 l 1,4,-1
 337 728 l 1,5,-1
 337 93 l 1,6,-1
 483 93 l 1,7,-1
 483 0 l 1,8,-1
 228 0 l 1,9,-1
 223 318 l 1,10,-1
 158 318 l 1,11,-1
 120 0 l 1,12,-1
 5 0 l 1,13,-1
 177 1463 l 1,14,-1
 483 1463 l 1,15,-1
 483 1366 l 1,0,-1
222 417 m 1,16,-1
 245 1223 l 1,17,-1
 168 417 l 1,18,-1
 222 417 l 1,16,-1
EndSplineSet
EndChar

StartChar: Eth
Encoding: 143 208 146
Width: 404
GlyphClass: 2
Flags: W
HStem: 0 100<164 238.327> 677 101<10 49 164 206> 1366 97<164 243.766>
VStem: 10 196<677 778> 49 115<100 677 778 1366> 244 112<116.251 1365.17>
LayerCount: 2
Fore
SplineSet
356 137 m 2,0,1
 356 104 356 104 342 78 c 128,-1,2
 328 52 328 52 305 35 c 128,-1,3
 282 18 282 18 253 9 c 128,-1,4
 224 0 224 0 194 0 c 2,5,-1
 49 0 l 1,6,-1
 49 677 l 1,7,-1
 10 677 l 1,8,-1
 10 778 l 1,9,-1
 49 778 l 1,10,-1
 49 1463 l 1,11,-1
 194 1463 l 2,12,13
 222 1463 222 1463 251 1455 c 128,-1,14
 280 1447 280 1447 303 1430 c 128,-1,15
 326 1413 326 1413 341 1386 c 128,-1,16
 356 1359 356 1359 356 1321 c 2,17,-1
 356 137 l 2,0,1
206 677 m 1,18,-1
 164 677 l 1,19,-1
 164 100 l 1,20,21
 182 100 182 100 197 100.5 c 128,-1,22
 212 101 212 101 222.5 104.5 c 128,-1,23
 233 108 233 108 238.5 116 c 128,-1,24
 244 124 244 124 244 138 c 2,25,-1
 244 1322 l 2,26,27
 244 1338 244 1338 238.5 1347 c 128,-1,28
 233 1356 233 1356 222.5 1360.5 c 128,-1,29
 212 1365 212 1365 197.5 1365.5 c 128,-1,30
 183 1366 183 1366 164 1366 c 1,31,-1
 164 778 l 1,32,-1
 206 778 l 1,33,-1
 206 677 l 1,18,-1
EndSplineSet
EndChar

StartChar: multiply
Encoding: 150 215 153
Width: 331
GlyphClass: 2
Flags: W
VStem: 17 111<163 274> 207 107<163 270 929 1036>
DStem2: 17 163 128 163 0.212662 0.977126<23.6055 244.7 659.979 893.437> 221 594 166 381 0.212662 -0.977126<-451.667 -218.847 196.431 418.164>
LayerCount: 2
Fore
SplineSet
314 163 m 1,0,-1
 207 163 l 1,1,-1
 166 381 l 1,2,-1
 128 163 l 1,3,-1
 17 163 l 1,4,-1
 114 594 l 1,5,-1
 17 1036 l 1,6,-1
 128 1036 l 1,7,-1
 166 806 l 1,8,-1
 207 1036 l 1,9,-1
 314 1036 l 1,10,-1
 221 594 l 1,11,-1
 314 163 l 1,0,-1
EndSplineSet
EndChar

StartChar: Oslash
Encoding: 151 216 154
Width: 388
GlyphClass: 2
Flags: W
HStem: -17 90<159.709 231.698> 1394 88<159.709 231.696>
VStem: 43 111<83.3132 273.621 448 1383.69> 232 113<73.668 1018 1193.2 1393.37>
LayerCount: 2
Fore
SplineSet
43 1359 m 2,0,1
 43 1384 43 1384 55 1406.5 c 128,-1,2
 67 1429 67 1429 87 1445.5 c 128,-1,3
 107 1462 107 1462 134.5 1472 c 128,-1,4
 162 1482 162 1482 192 1482 c 0,5,6
 223 1482 223 1482 251 1472 c 128,-1,7
 279 1462 279 1462 300 1445 c 128,-1,8
 321 1428 321 1428 333 1405.5 c 128,-1,9
 345 1383 345 1383 345 1358 c 2,10,-1
 345 108 l 2,11,12
 345 82 345 82 333 59 c 128,-1,13
 321 36 321 36 300 19 c 128,-1,14
 279 2 279 2 251 -7.5 c 128,-1,15
 223 -17 223 -17 192 -17 c 0,16,17
 162 -17 162 -17 134.5 -7.5 c 128,-1,18
 107 2 107 2 87 18.5 c 128,-1,19
 67 35 67 35 55 56.5 c 128,-1,20
 43 78 43 78 43 103 c 2,21,-1
 43 1359 l 2,0,1
154 106 m 1,22,23
 154 93 154 93 164.5 83 c 128,-1,24
 175 73 175 73 192 73 c 256,25,26
 209 73 209 73 220.5 83 c 128,-1,27
 232 93 232 93 232 106 c 2,28,-1
 232 1018 l 1,29,-1
 154 106 l 1,22,23
232 1361 m 1,30,31
 232 1374 232 1374 220 1384 c 128,-1,32
 208 1394 208 1394 192 1394 c 0,33,34
 175 1394 175 1394 164.5 1384 c 128,-1,35
 154 1374 154 1374 154 1361 c 2,36,-1
 154 448 l 1,37,-1
 232 1361 l 1,30,31
EndSplineSet
EndChar

StartChar: Thorn
Encoding: 157 222 160
Width: 373
GlyphClass: 2
Flags: W
HStem: 0 21G<46 157> 380 96<157 211.979> 1175 88<157 229> 1443 20G<46 157>
VStem: 46 111<0 380 476 1175 1263 1463> 229 114<482.192 1167.78>
LayerCount: 2
Fore
SplineSet
343 506 m 2,0,1
 343 436 343 436 295.5 408 c 128,-1,2
 248 380 248 380 157 380 c 1,3,-1
 157 0 l 1,4,-1
 46 0 l 1,5,-1
 46 1463 l 1,6,-1
 157 1463 l 1,7,-1
 157 1263 l 1,8,-1
 191 1263 l 2,9,10
 222 1263 222 1263 249.5 1254 c 128,-1,11
 277 1245 277 1245 298 1227.5 c 128,-1,12
 319 1210 319 1210 331 1185 c 128,-1,13
 343 1160 343 1160 343 1129 c 2,14,-1
 343 506 l 2,0,1
229 1139 m 2,15,16
 229 1161 229 1161 209 1168 c 128,-1,17
 189 1175 189 1175 157 1175 c 1,18,-1
 157 476 l 1,19,20
 196 476 196 476 212.5 482 c 128,-1,21
 229 488 229 488 229 512 c 2,22,-1
 229 1139 l 2,15,16
EndSplineSet
EndChar

StartChar: germandbls
Encoding: 158 223 161
Width: 388
GlyphClass: 2
Flags: W
HStem: 0 94<154 213.432> 806 98<154 226.84> 1394 88<154.236 225.797>
VStem: 43 111<-169 0 94 806 904 1393.39> 232 113<98.1296 805.852 918.439 1383.69>
LayerCount: 2
Fore
SplineSet
43 1338 m 2,0,1
 43 1376 43 1376 57 1403 c 128,-1,2
 71 1430 71 1430 92.5 1447.5 c 128,-1,3
 114 1465 114 1465 140.5 1473.5 c 128,-1,4
 167 1482 167 1482 192 1482 c 256,5,6
 217 1482 217 1482 244 1473.5 c 128,-1,7
 271 1465 271 1465 293.5 1448 c 128,-1,8
 316 1431 316 1431 330.5 1404 c 128,-1,9
 345 1377 345 1377 345 1340 c 2,10,-1
 345 963 l 2,11,12
 345 931 345 931 326 899 c 128,-1,13
 307 867 307 867 267 855 c 1,14,15
 307 844 307 844 326 813.5 c 128,-1,16
 345 783 345 783 345 751 c 2,17,-1
 345 125 l 2,18,19
 345 99 345 99 333 76.5 c 128,-1,20
 321 54 321 54 300.5 37 c 128,-1,21
 280 20 280 20 252.5 10 c 128,-1,22
 225 0 225 0 194 0 c 2,23,-1
 154 0 l 1,24,-1
 154 -169 l 1,25,-1
 43 -169 l 1,26,-1
 43 1338 l 2,0,1
232 765 m 2,27,28
 232 769 232 769 230.5 776 c 128,-1,29
 229 783 229 783 225 789.5 c 128,-1,30
 221 796 221 796 214 801 c 128,-1,31
 207 806 207 806 196 806 c 2,32,-1
 154 806 l 1,33,-1
 154 94 l 1,34,35
 196 94 196 94 214 98 c 128,-1,36
 232 102 232 102 232 125 c 2,37,-1
 232 765 l 2,27,28
154 904 m 1,38,-1
 201 904 l 2,39,40
 222 904 222 904 227 918 c 128,-1,41
 232 932 232 932 232 953 c 2,42,-1
 232 1354 l 2,43,44
 232 1374 232 1374 220.5 1384 c 128,-1,45
 209 1394 209 1394 193 1394 c 0,46,47
 154 1394 154 1394 154 1354 c 2,48,-1
 154 904 l 1,38,-1
EndSplineSet
EndChar

StartChar: ae
Encoding: 165 230 168
Width: 489
GlyphClass: 2
Flags: W
HStem: 0 84<334 472> 276 86<164 234> 624 89<334 437> 1181 82<334 472>
VStem: 9 107<0 107> 233 101<84 276 362 624 713 1046> 234 203<624 713>
DStem2: 9 0 116 0 0.136478 0.990643<14.6032 293.07 379.767 379.767>
LayerCount: 2
Fore
SplineSet
472 1181 m 1,0,-1
 334 1181 l 1,1,-1
 334 713 l 1,2,-1
 437 713 l 1,3,-1
 437 624 l 1,4,-1
 334 624 l 1,5,-1
 334 84 l 1,6,-1
 472 84 l 1,7,-1
 472 0 l 1,8,-1
 233 0 l 1,9,-1
 235 276 l 1,10,-1
 153 276 l 1,11,-1
 116 0 l 1,12,-1
 9 0 l 1,13,-1
 183 1263 l 1,14,-1
 472 1263 l 1,15,-1
 472 1181 l 1,0,-1
234 362 m 1,16,-1
 240 1046 l 1,17,-1
 164 362 l 1,18,-1
 234 362 l 1,16,-1
EndSplineSet
EndChar

StartChar: eth
Encoding: 175 240 178
Width: 389
GlyphClass: 2
Flags: W
HStem: -10 98<153.164 212.173> 747 97<158.548 219> 997 86<41 127> 1370 96<41 150.519>
VStem: 42 111<88.6763 740.296> 219 112<94.1885 737 835 1046 1161 1288.49>
DStem2: 41 1083 41 997 0.963131 0.269031<0 159.557 289.698 348.568>
LayerCount: 2
Fore
SplineSet
399 1097 m 1,0,-1
 327 1076 l 1,1,2
 330 1021 330 1021 330.5 960.5 c 128,-1,3
 331 900 331 900 331 834 c 2,4,-1
 331 117 l 2,5,6
 331 90 331 90 319.5 67 c 128,-1,7
 308 44 308 44 288 26.5 c 128,-1,8
 268 9 268 9 241 -0.5 c 128,-1,9
 214 -10 214 -10 184 -10 c 0,10,11
 155 -10 155 -10 129.5 -1 c 128,-1,12
 104 8 104 8 84.5 24.5 c 128,-1,13
 65 41 65 41 53.5 63.5 c 128,-1,14
 42 86 42 86 42 113 c 2,15,-1
 42 720 l 1,16,17
 43 745 43 745 53 768 c 128,-1,18
 63 791 63 791 81 807.5 c 128,-1,19
 99 824 99 824 124 834 c 128,-1,20
 149 844 149 844 178 844 c 0,21,22
 192 844 192 844 204.5 839.5 c 128,-1,23
 217 835 217 835 219 835 c 1,24,-1
 219 945 l 2,25,26
 219 998 219 998 217 1046 c 1,27,-1
 41 997 l 1,28,-1
 41 1083 l 1,29,-1
 211 1131 l 1,30,31
 206 1188 206 1188 195 1232 c 128,-1,32
 184 1276 184 1276 164.5 1307 c 128,-1,33
 145 1338 145 1338 114.5 1354 c 128,-1,34
 84 1370 84 1370 41 1370 c 1,35,-1
 41 1466 l 1,36,37
 114 1466 114 1466 163.5 1445 c 128,-1,38
 213 1424 213 1424 245.5 1384.5 c 128,-1,39
 278 1345 278 1345 295 1288.5 c 128,-1,40
 312 1232 312 1232 320 1161 c 1,41,-1
 399 1183 l 1,42,-1
 399 1097 l 1,0,-1
184 747 m 256,43,44
 170 747 170 747 163.5 740.5 c 128,-1,45
 157 734 157 734 155 724 c 128,-1,46
 153 714 153 714 153 702 c 2,47,-1
 153 117 l 2,48,49
 153 105 153 105 162.5 96.5 c 128,-1,50
 172 88 172 88 184 88 c 0,51,52
 199 88 199 88 206 94 c 128,-1,53
 213 100 213 100 216 110 c 128,-1,54
 219 120 219 120 219 131 c 2,55,-1
 219 737 l 1,56,57
 217 737 217 737 207.5 742 c 128,-1,58
 198 747 198 747 184 747 c 256,43,44
EndSplineSet
EndChar

StartChar: divide
Encoding: 182 247 185
Width: 466
GlyphClass: 2
Flags: W
HStem: 345 153<163 315> 552 112<20 446> 713 154<163 315>
VStem: 163 152<345 498 713 867>
LayerCount: 2
Fore
SplineSet
446 552 m 1,0,-1
 20 552 l 1,1,-1
 20 664 l 1,2,-1
 446 664 l 1,3,-1
 446 552 l 1,0,-1
315 867 m 1,4,-1
 315 713 l 1,5,-1
 163 713 l 1,6,-1
 163 867 l 1,7,-1
 315 867 l 1,4,-1
315 498 m 1,8,-1
 315 345 l 1,9,-1
 163 345 l 1,10,-1
 163 498 l 1,11,-1
 315 498 l 1,8,-1
EndSplineSet
EndChar

StartChar: oslash
Encoding: 183 248 186
Width: 380
GlyphClass: 2
Flags: W
HStem: -17 82<158.158 218.344> 1204 79<163.572 218.344>
VStem: 44 114<65.1932 239 676 1195.75> 158 65<84 91 600 1050 1175 1188> 223 115<72.7352 1195.75>
LayerCount: 2
Fore
SplineSet
338 108 m 2,0,1
 338 82 338 82 326 59.5 c 128,-1,2
 314 37 314 37 294 20 c 128,-1,3
 274 3 274 3 247.5 -7 c 128,-1,4
 221 -17 221 -17 192 -17 c 0,5,6
 162 -17 162 -17 135 -7 c 128,-1,7
 108 3 108 3 87.5 20.5 c 128,-1,8
 67 38 67 38 55.5 61.5 c 128,-1,9
 44 85 44 85 44 112 c 2,10,-1
 44 1155 l 2,11,12
 44 1182 44 1182 55.5 1205 c 128,-1,13
 67 1228 67 1228 87.5 1245.5 c 128,-1,14
 108 1263 108 1263 135 1273 c 128,-1,15
 162 1283 162 1283 192 1283 c 0,16,17
 221 1283 221 1283 247.5 1273.5 c 128,-1,18
 274 1264 274 1264 294 1247.5 c 128,-1,19
 314 1231 314 1231 326 1207.5 c 128,-1,20
 338 1184 338 1184 338 1157 c 2,21,-1
 338 108 l 2,0,1
223 1175 m 2,22,23
 223 1188 223 1188 214 1196 c 128,-1,24
 205 1204 205 1204 192 1204 c 256,25,26
 179 1204 179 1204 168.5 1196 c 128,-1,27
 158 1188 158 1188 158 1175 c 2,28,-1
 158 676 l 1,29,-1
 82 239 l 1,30,-1
 158 239 l 1,31,-1
 158 91 l 2,32,33
 158 84 158 84 166.5 74.5 c 128,-1,34
 175 65 175 65 192 65 c 0,35,36
 205 65 205 65 214 72.5 c 128,-1,37
 223 80 223 80 223 91 c 2,38,-1
 223 600 l 1,39,-1
 304 1050 l 1,40,-1
 223 1050 l 1,41,-1
 223 1175 l 2,22,23
223 1050 m 1,42,-1
 158 676 l 1,43,-1
 158 239 l 1,44,-1
 223 600 l 1,45,-1
 223 1050 l 1,42,-1
EndSplineSet
EndChar

StartChar: thorn
Encoding: 189 254 192
Width: 363
GlyphClass: 2
Flags: W
HStem: 186 88<157 206.588> 981 82<157 206.073> 1276 20G<45 157>
VStem: 46 111<-200 186 274 981 1063 1296> 220 107<282.252 971.717>
LayerCount: 2
Fore
SplineSet
157 1296 m 1,0,-1
 157 1063 l 1,1,-1
 185 1063 l 2,2,3
 213 1063 213 1063 239 1055.5 c 128,-1,4
 265 1048 265 1048 285 1033 c 128,-1,5
 305 1018 305 1018 316.5 996 c 128,-1,6
 328 974 328 974 328 946 c 2,7,-1
 328 500 l 2,8,9
 328 446 328 446 327.5 404 c 128,-1,10
 327 362 327 362 327 336 c 2,11,-1
 327 311 l 2,12,13
 327 276 327 276 312.5 252.5 c 128,-1,14
 298 229 298 229 274 214.5 c 128,-1,15
 250 200 250 200 218.5 193.5 c 128,-1,16
 187 187 187 187 154 186 c 1,17,-1
 154 -200 l 1,18,-1
 46 -200 l 1,19,-1
 45 1296 l 1,20,-1
 157 1296 l 1,0,-1
220 946 m 2,21,22
 220 964 220 964 206.5 972.5 c 128,-1,23
 193 981 193 981 157 981 c 1,24,-1
 157 274 l 1,25,26
 194 274 194 274 207 282 c 128,-1,27
 220 290 220 290 220 308 c 2,28,-1
 220 946 l 2,21,22
EndSplineSet
EndChar

StartChar: dotlessi
Encoding: 207 305 210
Width: 243
GlyphClass: 2
Flags: W
HStem: 0 21G<66 177> 1243 20G<66 177> 1243 20G<66 177>
VStem: 66 111<0 1263>
LayerCount: 2
Fore
SplineSet
177 1263 m 1,0,-1
 177 0 l 1,1,-1
 66 0 l 1,2,-1
 66 1263 l 1,3,-1
 177 1263 l 1,0,-1
EndSplineSet
EndChar

StartChar: Lslash
Encoding: 208 321 211
Width: 288
GlyphClass: 2
Flags: W
HStem: 0 92<171 291> 683 97<194 291> 1443 20G<60 171>
VStem: 60 231<0 92 734 756> 60 111<92 637 756 1463>
DStem2: -12 720 -12 623 0.980952 0.194248<0 54.506 186.507 290.041>
LayerCount: 2
Fore
SplineSet
171 1463 m 1,0,-1
 171 756 l 1,1,-1
 291 780 l 1,2,-1
 291 683 l 1,3,-1
 171 659 l 1,4,-1
 171 92 l 1,5,-1
 291 92 l 1,6,-1
 291 0 l 1,7,-1
 60 0 l 1,8,-1
 60 637 l 1,9,-1
 -12 623 l 1,10,-1
 -12 720 l 1,11,-1
 60 734 l 1,12,-1
 60 1463 l 1,13,-1
 171 1463 l 1,0,-1
EndSplineSet
EndChar

StartChar: lslash
Encoding: 209 322 212
Width: 260
GlyphClass: 2
Flags: W
HStem: 0 84<154 259> 618 97<162 259> 1243 20G<46 154> 1243 20G<46 154>
VStem: 46 213<0 84 667 691> 46 108<84 570 691 1263>
LayerCount: 2
Fore
SplineSet
154 1263 m 1,0,-1
 154 691 l 1,1,-1
 259 715 l 1,2,-1
 259 618 l 1,3,-1
 154 594 l 1,4,-1
 154 84 l 1,5,-1
 259 84 l 1,6,-1
 259 0 l 1,7,-1
 46 0 l 1,8,-1
 46 570 l 1,9,-1
 -8 558 l 1,10,-1
 -8 655 l 1,11,-1
 46 667 l 1,12,-1
 46 1263 l 1,13,-1
 154 1263 l 1,0,-1
EndSplineSet
EndChar

StartChar: OE
Encoding: 217 338 220
Width: 501
GlyphClass: 2
Flags: W
HStem: -17 90<159.709 231.875> 0 93<345 494> 728 99<345 455> 1366 97<345 494> 1394 88<159.709 231.746>
VStem: 43 111<83.3132 1383.69> 232 223<728 827> 232 113<93.0342 728 827 1365.77>
LayerCount: 2
Fore
SplineSet
43 1359 m 2,0,1
 43 1384 43 1384 55 1406.5 c 128,-1,2
 67 1429 67 1429 87 1445.5 c 128,-1,3
 107 1462 107 1462 134.5 1472 c 128,-1,4
 162 1482 162 1482 192 1482 c 0,5,6
 236 1482 236 1482 272 1463 c 1,7,-1
 494 1463 l 1,8,-1
 494 1366 l 1,9,-1
 345 1366 l 1,10,-1
 345 827 l 1,11,-1
 455 827 l 1,12,-1
 455 728 l 1,13,-1
 345 728 l 1,14,-1
 345 93 l 1,15,-1
 494 93 l 1,16,-1
 494 0 l 1,17,-1
 269 0 l 1,18,19
 233 -17 233 -17 192 -17 c 0,20,21
 162 -17 162 -17 134.5 -7.5 c 128,-1,22
 107 2 107 2 87 18.5 c 128,-1,23
 67 35 67 35 55 56.5 c 128,-1,24
 43 78 43 78 43 103 c 2,25,-1
 43 1359 l 2,0,1
154 106 m 2,26,27
 154 93 154 93 164.5 83 c 128,-1,28
 175 73 175 73 192 73 c 256,29,30
 209 73 209 73 220.5 83 c 128,-1,31
 232 93 232 93 232 106 c 2,32,-1
 232 1361 l 2,33,34
 232 1374 232 1374 220 1384 c 128,-1,35
 208 1394 208 1394 192 1394 c 0,36,37
 175 1394 175 1394 164.5 1384 c 128,-1,38
 154 1374 154 1374 154 1361 c 2,39,-1
 154 106 l 2,26,27
EndSplineSet
EndChar

StartChar: oe
Encoding: 218 339 221
Width: 489
GlyphClass: 2
Flags: W
HStem: -17 82<157.842 216.966> 0 84<337 476> 624 89<337 441> 1187 76<337 476> 1204 79<160.88 220.477>
VStem: 43 114<65.1932 1183.89> 222 219<624 713> 222 115<84.1581 624 713 1186.86>
LayerCount: 2
Fore
SplineSet
476 1187 m 1,0,-1
 337 1187 l 1,1,-1
 337 713 l 1,2,-1
 441 713 l 1,3,-1
 441 624 l 1,4,-1
 337 624 l 1,5,-1
 337 84 l 1,6,-1
 476 84 l 1,7,-1
 476 0 l 1,8,-1
 263 0 l 1,9,10
 229 -17 229 -17 191 -17 c 0,11,12
 161 -17 161 -17 134 -7 c 128,-1,13
 107 3 107 3 86.5 20.5 c 128,-1,14
 66 38 66 38 54.5 61.5 c 128,-1,15
 43 85 43 85 43 112 c 2,16,-1
 43 1155 l 2,17,18
 43 1182 43 1182 54.5 1205 c 128,-1,19
 66 1228 66 1228 86.5 1245.5 c 128,-1,20
 107 1263 107 1263 134 1273 c 128,-1,21
 161 1283 161 1283 191 1283 c 0,22,23
 212 1283 212 1283 232.5 1277.5 c 128,-1,24
 253 1272 253 1272 270 1263 c 1,25,-1
 476 1263 l 1,26,-1
 476 1187 l 1,0,-1
222 1141 m 2,27,28
 222 1165 222 1165 217 1184.5 c 128,-1,29
 212 1204 212 1204 191 1204 c 0,30,31
 168 1204 168 1204 162.5 1184.5 c 128,-1,32
 157 1165 157 1165 157 1141 c 2,33,-1
 157 126 l 2,34,35
 157 116 157 116 157.5 105.5 c 128,-1,36
 158 95 158 95 161 86 c 128,-1,37
 164 77 164 77 171 71 c 128,-1,38
 178 65 178 65 191 65 c 256,39,40
 204 65 204 65 213 72.5 c 128,-1,41
 222 80 222 80 222 91 c 2,42,-1
 222 1141 l 2,27,28
EndSplineSet
EndChar

StartChar: florin
Encoding: 237 402 240
Width: 365
GlyphClass: 2
Flags: W
HStem: 0 21G<20 128.746> 630 88<189 281> 1181 82<230 368>
VStem: 20 107<0 107>
DStem2: 20 0 127 0 0.0867658 0.996229<9.28394 641.68 729.956 1194.77>
LayerCount: 2
Fore
SplineSet
368 1181 m 1,0,-1
 230 1181 l 1,1,-1
 189 718 l 1,2,-1
 289 718 l 1,3,-1
 281 630 l 1,4,-1
 182 630 l 1,5,-1
 127 0 l 1,6,-1
 20 0 l 1,7,-1
 130 1263 l 1,8,-1
 375 1263 l 1,9,-1
 368 1181 l 1,0,-1
EndSplineSet
EndChar

StartChar: circumflex
Encoding: 246 710 249
Width: 271
GlyphClass: 2
Flags: W
HStem: 70 287<75 110 161 196>
VStem: 26 84<70 154> 161 84<70 154>
DStem2: 26 70 110 70 0.168296 0.985736<14.1369 213.52> 196 357 135 268 0.168296 -0.985736<77.4645 277.016>
LayerCount: 2
Fore
SplineSet
196 357 m 1,0,-1
 245 70 l 1,1,-1
 161 70 l 1,2,-1
 135 268 l 1,3,-1
 110 70 l 1,4,-1
 26 70 l 1,5,-1
 75 357 l 1,6,-1
 196 357 l 1,0,-1
EndSplineSet
EndChar

StartChar: caron
Encoding: 247 711 250
Width: 271
GlyphClass: 2
Flags: W
HStem: 70 287<76 111 162 196>
VStem: 27 84<273 357> 162 84<273 357>
DStem2: 111 357 27 357 0.168296 -0.985736<0 198.397> 136 160 196 70 0.171631 0.985161<0 198.539>
LayerCount: 2
Fore
SplineSet
76 70 m 1,0,-1
 27 357 l 1,1,-1
 111 357 l 1,2,-1
 136 160 l 1,3,-1
 162 357 l 1,4,-1
 246 357 l 1,5,-1
 196 70 l 1,6,-1
 76 70 l 1,0,-1
EndSplineSet
EndChar

StartChar: breve
Encoding: 248 728 251
Width: 271
GlyphClass: 2
Flags: W
HStem: 70 95<66.0315 206.409>
VStem: -23 84<168.662 256> 212 84<170.875 256>
LayerCount: 2
Fore
SplineSet
138 70 m 0,0,1
 52 70 52 70 14.5 113.5 c 128,-1,2
 -23 157 -23 157 -23 256 c 1,3,-1
 61 256 l 1,4,5
 61 226 61 226 66.5 208 c 128,-1,6
 72 190 72 190 82 180.5 c 128,-1,7
 92 171 92 171 105.5 168 c 128,-1,8
 119 165 119 165 136 165 c 256,9,10
 153 165 153 165 167 168 c 128,-1,11
 181 171 181 171 191 180.5 c 128,-1,12
 201 190 201 190 206.5 208 c 128,-1,13
 212 226 212 226 212 256 c 1,14,-1
 296 256 l 1,15,16
 296 157 296 157 258.5 113.5 c 128,-1,17
 221 70 221 70 138 70 c 0,0,1
EndSplineSet
EndChar

StartChar: dotaccent
Encoding: 249 729 252
Width: 211
GlyphClass: 2
Flags: W
HStem: 82 154<46 197>
VStem: 46 151<82 236>
LayerCount: 2
Fore
SplineSet
197 236 m 1,0,-1
 197 82 l 1,1,-1
 46 82 l 1,2,-1
 46 236 l 1,3,-1
 197 236 l 1,0,-1
EndSplineSet
EndChar

StartChar: ring
Encoding: 250 730 253
Width: 271
GlyphClass: 2
Flags: W
HStem: 55 65<102.711 189.289> 224 65<102.372 189.389>
VStem: 27 66<129.582 214.885> 199 65<129.582 214.647>
LayerCount: 2
Fore
SplineSet
27 171 m 256,0,1
 27 196 27 196 36 218 c 128,-1,2
 45 240 45 240 61 255.5 c 128,-1,3
 77 271 77 271 99 280 c 128,-1,4
 121 289 121 289 146 289 c 0,5,6
 197 289 197 289 230.5 255.5 c 128,-1,7
 264 222 264 222 264 171 c 0,8,9
 264 146 264 146 255 125 c 128,-1,10
 246 104 246 104 230.5 88.5 c 128,-1,11
 215 73 215 73 193 64 c 128,-1,12
 171 55 171 55 146 55 c 256,13,14
 121 55 121 55 99 64 c 128,-1,15
 77 73 77 73 61 88.5 c 128,-1,16
 45 104 45 104 36 125 c 128,-1,17
 27 146 27 146 27 171 c 256,0,1
93 172 m 0,18,19
 93 150 93 150 108 135 c 128,-1,20
 123 120 123 120 146 120 c 256,21,22
 169 120 169 120 184 135 c 128,-1,23
 199 150 199 150 199 172 c 0,24,25
 199 195 199 195 184 209.5 c 128,-1,26
 169 224 169 224 146 224 c 256,27,28
 123 224 123 224 108 209.5 c 128,-1,29
 93 195 93 195 93 172 c 0,18,19
EndSplineSet
EndChar

StartChar: ogonek
Encoding: 251 731 254
Width: 271
GlyphClass: 2
Flags: W
HStem: -235 70<140.02 279.734> -225 225<75.8281 154>
VStem: 52 71<-153.577 -28.9318>
LayerCount: 2
Fore
SplineSet
185 -235 m 0,0,1
 153 -235 153 -235 128.5 -225 c 128,-1,2
 104 -215 104 -215 87 -198 c 128,-1,3
 70 -181 70 -181 61 -157.5 c 128,-1,4
 52 -134 52 -134 52 -108 c 0,5,6
 52 -61 52 -61 113 0 c 1,7,-1
 154 0 l 1,8,9
 145 -16 145 -16 138 -33 c 0,10,11
 132 -47 132 -47 127.5 -64.5 c 128,-1,12
 123 -82 123 -82 123 -99 c 0,13,14
 123 -131 123 -131 139.5 -148 c 128,-1,15
 156 -165 156 -165 191 -165 c 0,16,17
 211 -165 211 -165 227.5 -160 c 128,-1,18
 244 -155 244 -155 258 -149 c 0,19,20
 273 -142 273 -142 287 -133 c 1,21,-1
 287 -193 l 1,22,23
 276 -205 276 -205 261 -214 c 0,24,25
 248 -222 248 -222 229.5 -228.5 c 128,-1,26
 211 -235 211 -235 185 -235 c 0,0,1
EndSplineSet
EndChar

StartChar: tilde
Encoding: 252 732 255
Width: 271
GlyphClass: 2
Flags: W
HStem: 84 96<75.062 261.431> 121 95<27.8871 211.329>
VStem: -13 66<84 120.609> 237 66<181 216>
LayerCount: 2
Fore
SplineSet
-13 84 m 1,0,1
 -13 112 -13 112 -8.5 136 c 128,-1,2
 -4 160 -4 160 6.5 178 c 128,-1,3
 17 196 17 196 33.5 206 c 128,-1,4
 50 216 50 216 74 216 c 0,5,6
 94 216 94 216 110 210.5 c 128,-1,7
 126 205 126 205 141 198 c 128,-1,8
 156 191 156 191 173 185.5 c 128,-1,9
 190 180 190 180 212 180 c 0,10,11
 220 180 220 180 225 185.5 c 128,-1,12
 230 191 230 191 233 198 c 0,13,14
 236 206 236 206 237 216 c 1,15,-1
 303 216 l 1,16,17
 304 179 304 179 295 150 c 0,18,19
 287 125 287 125 268 104.5 c 128,-1,20
 249 84 249 84 212 84 c 0,21,22
 191 84 191 84 173.5 90 c 128,-1,23
 156 96 156 96 139.5 102.5 c 128,-1,24
 123 109 123 109 107 115 c 128,-1,25
 91 121 91 121 75 121 c 0,26,27
 67 121 67 121 62.5 115 c 128,-1,28
 58 109 58 109 56 102 c 0,29,30
 53 94 53 94 53 84 c 1,31,-1
 -13 84 l 1,0,1
EndSplineSet
EndChar

StartChar: Delta
Encoding: 254 916 257
AltUni2: 002206.ffffffff.0
Width: 362
GlyphClass: 2
Flags: W
HStem: 0 95<129 231> 1225 238<-17 379>
VStem: 20 322
LayerCount: 2
Fore
SplineSet
342 0 m 1,0,-1
 20 0 l 1,1,-1
 102 1463 l 1,2,-1
 260 1463 l 1,3,-1
 342 0 l 1,0,-1
231 95 m 1,4,-1
 180 1225 l 1,5,-1
 129 95 l 1,6,-1
 231 95 l 1,4,-1
EndSplineSet
EndChar

StartChar: Omega
Encoding: 255 937 258
AltUni2: 002126.ffffffff.0
Width: 426
GlyphClass: 2
Flags: W
HStem: 0 89<25 108 322 402> 1395 85<181.482 248.904>
VStem: 25 171<0 89> 58 114<98.7969 1387.26> 234 168<0 89> 258 114<98.7969 1387.26>
LayerCount: 2
Fore
SplineSet
215 1395 m 256,0,1
 197 1395 197 1395 188.5 1387.5 c 128,-1,2
 180 1380 180 1380 176 1367.5 c 128,-1,3
 172 1355 172 1355 172 1337 c 128,-1,4
 172 1319 172 1319 172 1298 c 2,5,-1
 172 351 l 2,6,7
 172 281 172 281 175.5 232 c 128,-1,8
 179 183 179 183 184 151 c 0,9,10
 189 114 189 114 196 89 c 1,11,-1
 196 0 l 1,12,-1
 25 0 l 1,13,-1
 25 89 l 1,14,-1
 108 89 l 1,15,16
 94 113 94 113 83 150 c 0,17,18
 73 182 73 182 65.5 231.5 c 128,-1,19
 58 281 58 281 58 350 c 2,20,-1
 58 1298 l 2,21,22
 58 1329 58 1329 63 1361.5 c 128,-1,23
 68 1394 68 1394 84 1420 c 128,-1,24
 100 1446 100 1446 131 1463 c 128,-1,25
 162 1480 162 1480 215 1480 c 0,26,27
 267 1480 267 1480 298.5 1463 c 128,-1,28
 330 1446 330 1446 346 1420 c 128,-1,29
 362 1394 362 1394 367 1361.5 c 128,-1,30
 372 1329 372 1329 372 1298 c 2,31,-1
 372 350 l 2,32,33
 372 281 372 281 364 231.5 c 128,-1,34
 356 182 356 182 347 150 c 0,35,36
 336 113 336 113 322 89 c 1,37,-1
 402 89 l 1,38,-1
 402 0 l 1,39,-1
 234 0 l 1,40,-1
 234 89 l 1,41,42
 241 114 241 114 246 151 c 0,43,44
 251 183 251 183 254.5 232 c 128,-1,45
 258 281 258 281 258 351 c 2,46,-1
 258 1298 l 2,47,48
 258 1319 258 1319 258 1337 c 128,-1,49
 258 1355 258 1355 254 1367.5 c 128,-1,50
 250 1380 250 1380 241.5 1387.5 c 128,-1,51
 233 1395 233 1395 215 1395 c 256,0,1
EndSplineSet
EndChar

StartChar: pi
Encoding: 257 960 259
Width: 243
GlyphClass: 2
Flags: W
HStem: 0 21G<66 177> 1240 20G<66 177>
VStem: 66 111<0 1260>
LayerCount: 2
Fore
SplineSet
177 1260 m 1,0,-1
 177 0 l 1,1,-1
 66 0 l 1,2,-1
 66 1260 l 1,3,-1
 177 1260 l 1,0,-1
EndSplineSet
EndChar

StartChar: endash
Encoding: 273 8211 275
Width: 574
GlyphClass: 2
Flags: W
HStem: 623 112<19 555>
VStem: 19 536<623 735>
LayerCount: 2
Fore
SplineSet
555 623 m 1,0,-1
 19 623 l 1,1,-1
 19 735 l 1,2,-1
 555 735 l 1,3,-1
 555 623 l 1,0,-1
EndSplineSet
EndChar

StartChar: emdash
Encoding: 274 8212 276
Width: 574
GlyphClass: 2
Flags: W
HStem: 623 112<19 555>
VStem: 19 536<623 735>
LayerCount: 2
Fore
SplineSet
555 623 m 1,0,-1
 19 623 l 1,1,-1
 19 735 l 1,2,-1
 555 735 l 1,3,-1
 555 623 l 1,0,-1
EndSplineSet
EndChar

StartChar: quoteleft
Encoding: 275 8216 277
Width: 406
GlyphClass: 2
Flags: W
HStem: 1165 299<67 138>
VStem: 6 132<1165 1235.27> 67 71<1393.73 1464>
LayerCount: 2
Fore
SplineSet
6 1165 m 1,0,-1
 67 1464 l 1,1,-1
 138 1464 l 1,2,-1
 138 1165 l 1,3,-1
 6 1165 l 1,0,-1
EndSplineSet
EndChar

StartChar: quoteright
Encoding: 276 8217 278
Width: 406
GlyphClass: 2
Flags: W
HStem: 1164 299<201 271>
VStem: 200 132<1392.73 1463> 201 70<1164 1234.27>
LayerCount: 2
Fore
SplineSet
332 1463 m 1,0,-1
 271 1164 l 1,1,-1
 201 1164 l 1,2,-1
 200 1463 l 1,3,-1
 332 1463 l 1,0,-1
EndSplineSet
EndChar

StartChar: quotesinglbase
Encoding: 277 8218 279
Width: 406
GlyphClass: 2
Flags: W
HStem: 0 299<67 138>
VStem: 6 132<0 70.2699> 67 71<228.73 299>
LayerCount: 2
Fore
SplineSet
6 0 m 1,0,-1
 67 299 l 1,1,-1
 138 299 l 1,2,-1
 138 0 l 1,3,-1
 6 0 l 1,0,-1
EndSplineSet
EndChar

StartChar: quotedblleft
Encoding: 278 8220 280
Width: 406
GlyphClass: 2
Flags: W
HStem: 1165 299<67 138 249 319>
VStem: 6 132<1165 1235.27> 67 71<1393.73 1464> 188 132<1165 1235.27> 249 70<1393.73 1464>
LayerCount: 2
Fore
SplineSet
188 1165 m 1,0,-1
 249 1464 l 1,1,-1
 319 1464 l 1,2,-1
 320 1165 l 1,3,-1
 188 1165 l 1,0,-1
6 1165 m 1,4,-1
 67 1464 l 1,5,-1
 138 1464 l 1,6,-1
 138 1165 l 1,7,-1
 6 1165 l 1,4,-1
EndSplineSet
EndChar

StartChar: quotedblright
Encoding: 279 8221 281
Width: 406
GlyphClass: 2
Flags: W
HStem: 1164 299<19 90 201 271>
VStem: 18 132<1391.56 1463> 19 71<1164 1235.44> 200 132<1392.73 1463> 201 70<1164 1234.27>
LayerCount: 2
Fore
SplineSet
150 1463 m 1,0,-1
 90 1164 l 1,1,-1
 19 1164 l 1,2,-1
 18 1463 l 1,3,-1
 150 1463 l 1,0,-1
332 1463 m 1,4,-1
 271 1164 l 1,5,-1
 201 1164 l 1,6,-1
 200 1463 l 1,7,-1
 332 1463 l 1,4,-1
EndSplineSet
EndChar

StartChar: quotedblbase
Encoding: 280 8222 282
Width: 406
GlyphClass: 2
Flags: W
HStem: 0 299<201 271>
VStem: 200 132<228.73 299> 201 70<0 70.2699>
LayerCount: 2
Fore
SplineSet
332 299 m 1,0,-1
 271 0 l 1,1,-1
 201 0 l 1,2,-1
 200 299 l 1,3,-1
 332 299 l 1,0,-1
EndSplineSet
EndChar

StartChar: dagger
Encoding: 281 8224 283
Width: 291
GlyphClass: 2
Flags: W
HStem: 835 82<0 93 199 289>
VStem: 93 105<113 835 917 1099>
LayerCount: 2
Fore
SplineSet
95 917 m 1,0,-1
 95 1099 l 1,1,-1
 199 1099 l 1,2,-1
 199 917 l 1,3,-1
 289 917 l 1,4,-1
 289 835 l 1,5,-1
 198 835 l 1,6,-1
 198 113 l 1,7,-1
 93 113 l 1,8,-1
 93 835 l 1,9,-1
 0 835 l 1,10,-1
 0 917 l 1,11,-1
 95 917 l 1,0,-1
EndSplineSet
EndChar

StartChar: daggerdbl
Encoding: 282 8225 284
Width: 547
GlyphClass: 2
Flags: W
HStem: 0 21G<219 330> 436 108<20 219 330 527> 1040 108<20 219 330 527> 1443 20G<219 330>
VStem: 219 111<0 436 544 1040 1148 1463>
LayerCount: 2
Fore
SplineSet
20 544 m 1,0,-1
 219 544 l 1,1,-1
 219 1040 l 1,2,-1
 20 1040 l 1,3,-1
 20 1148 l 1,4,-1
 219 1148 l 1,5,-1
 219 1463 l 1,6,-1
 330 1463 l 1,7,-1
 330 1148 l 1,8,-1
 527 1148 l 1,9,-1
 527 1040 l 1,10,-1
 330 1040 l 1,11,-1
 330 544 l 1,12,-1
 527 544 l 1,13,-1
 527 436 l 1,14,-1
 330 436 l 1,15,-1
 330 0 l 1,16,-1
 219 0 l 1,17,-1
 219 436 l 1,18,-1
 20 436 l 1,19,-1
 20 544 l 1,0,-1
EndSplineSet
EndChar

StartChar: bullet
Encoding: 283 8226 285
Width: 380
GlyphClass: 2
Flags: W
HStem: 442 649<79.1289 301.367>
VStem: 43 294<479.003 1054.46>
LayerCount: 2
Fore
SplineSet
337 567 m 2,0,1
 337 541 337 541 325 518.5 c 128,-1,2
 313 496 313 496 293 479 c 128,-1,3
 273 462 273 462 246.5 452 c 128,-1,4
 220 442 220 442 191 442 c 0,5,6
 161 442 161 442 134 452 c 128,-1,7
 107 462 107 462 86.5 480 c 128,-1,8
 66 498 66 498 54.5 521.5 c 128,-1,9
 43 545 43 545 43 572 c 2,10,-1
 43 963 l 2,11,12
 43 990 43 990 54.5 1013 c 128,-1,13
 66 1036 66 1036 86.5 1053.5 c 128,-1,14
 107 1071 107 1071 134 1081 c 128,-1,15
 161 1091 161 1091 191 1091 c 0,16,17
 220 1091 220 1091 246.5 1081.5 c 128,-1,18
 273 1072 273 1072 293 1055.5 c 128,-1,19
 313 1039 313 1039 325 1015.5 c 128,-1,20
 337 992 337 992 337 965 c 2,21,-1
 337 567 l 2,0,1
EndSplineSet
EndChar

StartChar: guilsinglleft
Encoding: 286 8249 288
Width: 284
GlyphClass: 2
Flags: W
VStem: 122 235
DStem2: 235 732 122 732 0.43824 -0.898858<0 257.506> 122 732 235 732 0.438976 0.898499<49.6042 323.292>
LayerCount: 2
Fore
SplineSet
357 1213 m 1,0,-1
 357 977 l 1,1,-1
 235 732 l 1,2,-1
 357 505 l 1,3,-1
 357 250 l 1,4,-1
 122 732 l 1,5,-1
 357 1213 l 1,0,-1
EndSplineSet
EndChar

StartChar: fraction
Encoding: 288 8260 290
Width: 269
GlyphClass: 2
Flags: W
HStem: 0 21G<1 114.146> 1443 20G<155.854 269>
VStem: 1 111<0 111> 158 111<1352 1463>
DStem2: 1 0 112 0 0.106701 0.994291<11.8438 1471.4>
LayerCount: 2
Fore
SplineSet
269 1463 m 1,0,-1
 112 0 l 1,1,-1
 1 0 l 1,2,-1
 158 1463 l 1,3,-1
 269 1463 l 1,0,-1
EndSplineSet
EndChar

StartChar: Euro
Encoding: 289 8364 291
Width: 447
GlyphClass: 2
Flags: W
HStem: -17 90<234.204 308.605> 723 88<-10 117 228 393> 856 88<-8 117 228 415> 1384 98<234.381 302.658>
VStem: 117 111<82.798 723 811 856 944 1374.72> 309 112<73.2531 516 1120 1374.72>
LayerCount: 2
Fore
SplineSet
415 856 m 1,0,-1
 228 856 l 1,1,-1
 228 811 l 1,2,-1
 403 811 l 1,3,-1
 393 723 l 1,4,-1
 228 723 l 1,5,-1
 228 106 l 2,6,7
 228 92 228 92 240 82.5 c 128,-1,8
 252 73 252 73 269 73 c 0,9,10
 285 73 285 73 297 82.5 c 128,-1,11
 309 92 309 92 309 106 c 2,12,-1
 309 516 l 1,13,-1
 421 516 l 1,14,-1
 421 106 l 2,15,16
 421 79 421 79 410 56.5 c 128,-1,17
 399 34 399 34 379 17.5 c 128,-1,18
 359 1 359 1 331 -8 c 128,-1,19
 303 -17 303 -17 269 -17 c 0,20,21
 237 -17 237 -17 209.5 -7.5 c 128,-1,22
 182 2 182 2 161.5 19 c 128,-1,23
 141 36 141 36 129 59 c 128,-1,24
 117 82 117 82 117 108 c 2,25,-1
 117 723 l 1,26,-1
 -10 723 l 1,27,-1
 -10 811 l 1,28,-1
 117 811 l 1,29,-1
 117 856 l 1,30,-1
 -8 856 l 1,31,-1
 -8 944 l 1,32,-1
 117 944 l 1,33,-1
 117 1357 l 2,34,35
 117 1383 117 1383 128 1406 c 128,-1,36
 139 1429 139 1429 159.5 1446 c 128,-1,37
 180 1463 180 1463 208 1472.5 c 128,-1,38
 236 1482 236 1482 270 1482 c 0,39,40
 303 1482 303 1482 330.5 1472.5 c 128,-1,41
 358 1463 358 1463 378.5 1446.5 c 128,-1,42
 399 1430 399 1430 410 1408 c 128,-1,43
 421 1386 421 1386 421 1361 c 2,44,-1
 421 1120 l 1,45,-1
 309 1120 l 1,46,-1
 309 1352 l 2,47,48
 309 1366 309 1366 297.5 1375 c 128,-1,49
 286 1384 286 1384 270 1384 c 0,50,51
 251 1384 251 1384 239.5 1375 c 128,-1,52
 228 1366 228 1366 228 1352 c 2,53,-1
 228 944 l 1,54,-1
 425 944 l 1,55,-1
 415 856 l 1,0,-1
EndSplineSet
EndChar

StartChar: afii61352
Encoding: 290 8470 292
Width: 778
GlyphClass: 2
Flags: W
HStem: -17 82<556.074 619.983> 0 21G<46 157 237.966 352> 1204 79<561.231 615.342> 1443 20G<46 158.141 247 352>
VStem: 46 111<0 816 1337.05 1463> 247 105<0 129.98 613 1463> 441 115<65.1932 1195.75> 620 115<65.1797 1195.75>
DStem2: 247 613 157 816 0.106451 -0.994318<-211.427 0>
LayerCount: 2
Fore
SplineSet
352 0 m 1,0,-1
 240 0 l 1,1,-1
 157 816 l 1,2,-1
 157 0 l 1,3,-1
 46 0 l 1,4,-1
 46 1463 l 1,5,-1
 156 1463 l 1,6,-1
 247 613 l 1,7,-1
 247 1463 l 1,8,-1
 352 1463 l 1,9,-1
 352 0 l 1,0,-1
735 108 m 2,10,11
 735 82 735 82 723 59.5 c 128,-1,12
 711 37 711 37 691 20 c 128,-1,13
 671 3 671 3 645 -7 c 128,-1,14
 619 -17 619 -17 590 -17 c 0,15,16
 560 -17 560 -17 532.5 -7 c 128,-1,17
 505 3 505 3 485 20.5 c 128,-1,18
 465 38 465 38 453 61.5 c 128,-1,19
 441 85 441 85 441 112 c 2,20,-1
 441 1155 l 2,21,22
 441 1182 441 1182 453 1205 c 128,-1,23
 465 1228 465 1228 485 1245.5 c 128,-1,24
 505 1263 505 1263 532.5 1273 c 128,-1,25
 560 1283 560 1283 590 1283 c 0,26,27
 619 1283 619 1283 645 1273.5 c 128,-1,28
 671 1264 671 1264 691 1247.5 c 128,-1,29
 711 1231 711 1231 723 1207.5 c 128,-1,30
 735 1184 735 1184 735 1157 c 2,31,-1
 735 108 l 2,10,11
620 1175 m 2,32,33
 620 1188 620 1188 611 1196 c 128,-1,34
 602 1204 602 1204 590 1204 c 0,35,36
 576 1204 576 1204 566 1196 c 128,-1,37
 556 1188 556 1188 556 1175 c 2,38,-1
 556 91 l 2,39,40
 556 84 556 84 564.5 74.5 c 128,-1,41
 573 65 573 65 590 65 c 0,42,43
 602 65 602 65 611 72.5 c 128,-1,44
 620 80 620 80 620 91 c 2,45,-1
 620 1175 l 2,32,33
EndSplineSet
EndChar

StartChar: trademark
Encoding: 291 8482 293
Width: 796
GlyphClass: 2
Flags: W
HStem: 1366 97<20 114 227 322>
VStem: 114 113<648 1366> 348 113<648 1085 1389.78 1463> 646 112<648 1085 1388.98 1463>
DStem2: 554 988 461 1085 0.19015 -0.981755<-112.914 0> 554 988 646 1085 0.186162 0.982519<0 112.431>
LayerCount: 2
Fore
SplineSet
644 1463 m 1,0,-1
 758 1463 l 1,1,-1
 758 648 l 1,2,-1
 646 648 l 1,3,-1
 646 1085 l 1,4,-1
 579 648 l 1,5,-1
 529 648 l 1,6,-1
 461 1085 l 1,7,-1
 461 648 l 1,8,-1
 348 648 l 1,9,-1
 348 1463 l 1,10,-1
 462 1463 l 1,11,-1
 554 988 l 1,12,-1
 644 1463 l 1,0,-1
322 1463 m 1,13,-1
 322 1366 l 1,14,-1
 227 1366 l 1,15,-1
 227 648 l 1,16,-1
 114 648 l 1,17,-1
 114 1366 l 1,18,-1
 20 1366 l 1,19,-1
 20 1463 l 1,20,-1
 322 1463 l 1,13,-1
EndSplineSet
EndChar

StartChar: partialdiff
Encoding: 293 8706 294
Width: 372
GlyphClass: 2
Flags: W
HStem: -1 87<150.56 209.992> 686 96<162.021 216> 1442 20G<216 328>
VStem: 30 115<95.2837 679.293> 216 112<95.2839 686 782 1462>
LayerCount: 2
Fore
SplineSet
30 656 m 2,0,1
 30 726 30 726 77.5 754 c 128,-1,2
 125 782 125 782 216 782 c 1,3,-1
 216 1462 l 1,4,-1
 328 1462 l 1,5,-1
 328 133 l 2,6,7
 328 102 328 102 316.5 77 c 128,-1,8
 305 52 305 52 285 35 c 128,-1,9
 265 18 265 18 237.5 8.5 c 128,-1,10
 210 -1 210 -1 178 -1 c 0,11,12
 147 -1 147 -1 120 8 c 128,-1,13
 93 17 93 17 73 34.5 c 128,-1,14
 53 52 53 52 41.5 76.5 c 128,-1,15
 30 101 30 101 30 132 c 2,16,-1
 30 656 l 2,0,1
145 123 m 2,17,18
 145 104 145 104 155.5 95 c 128,-1,19
 166 86 166 86 180 86 c 256,20,21
 194 86 194 86 205 95 c 128,-1,22
 216 104 216 104 216 124 c 2,23,-1
 216 686 l 1,24,25
 178 686 178 686 161.5 679.5 c 128,-1,26
 145 673 145 673 145 650 c 2,27,-1
 145 123 l 2,17,18
EndSplineSet
EndChar

StartChar: product
Encoding: 295 8719 295
Width: 1224
GlyphClass: 2
Flags: W
HStem: 295 102<408.716 814.998> 841 88<610 667> 1231 82<610 667> 1377 102<408.716 814.998>
VStem: 20 109<680.061 1093.65> 499 108<455 841 929 1231> 667 107<934.158 1225.33> 1095 109<680.061 1093.65>
LayerCount: 2
Fore
SplineSet
774 956 m 2,0,1
 774 925 774 925 760.5 903.5 c 128,-1,2
 747 882 747 882 724 868.5 c 128,-1,3
 701 855 701 855 670.5 848.5 c 128,-1,4
 640 842 640 842 607 841 c 1,5,-1
 607 455 l 1,6,-1
 499 455 l 1,7,-1
 499 1313 l 1,8,-1
 638 1313 l 2,9,10
 666 1313 666 1313 691 1304.5 c 128,-1,11
 716 1296 716 1296 734.5 1282 c 128,-1,12
 753 1268 753 1268 763.5 1248 c 128,-1,13
 774 1228 774 1228 774 1206 c 2,14,-1
 774 956 l 2,0,1
667 1206 m 2,15,16
 667 1220 667 1220 652.5 1225.5 c 128,-1,17
 638 1231 638 1231 610 1231 c 1,18,-1
 610 929 l 1,19,20
 641 929 641 929 654 934 c 128,-1,21
 667 939 667 939 667 953 c 2,22,-1
 667 1206 l 2,15,16
20 887 m 256,23,24
 20 1010 20 1010 66.5 1117.5 c 128,-1,25
 113 1225 113 1225 193.5 1305.5 c 128,-1,26
 274 1386 274 1386 381.5 1432.5 c 128,-1,27
 489 1479 489 1479 612 1479 c 256,28,29
 735 1479 735 1479 842.5 1432.5 c 128,-1,30
 950 1386 950 1386 1030.5 1305.5 c 128,-1,31
 1111 1225 1111 1225 1157.5 1117.5 c 128,-1,32
 1204 1010 1204 1010 1204 887 c 256,33,34
 1204 764 1204 764 1157.5 656.5 c 128,-1,35
 1111 549 1111 549 1030.5 468.5 c 128,-1,36
 950 388 950 388 842.5 341.5 c 128,-1,37
 735 295 735 295 612 295 c 256,38,39
 489 295 489 295 381.5 341.5 c 128,-1,40
 274 388 274 388 193.5 468.5 c 128,-1,41
 113 549 113 549 66.5 656.5 c 128,-1,42
 20 764 20 764 20 887 c 256,23,24
129 887 m 256,43,44
 129 786 129 786 166.5 696.5 c 128,-1,45
 204 607 204 607 269 540.5 c 128,-1,46
 334 474 334 474 422.5 435.5 c 128,-1,47
 511 397 511 397 612 397 c 256,48,49
 713 397 713 397 801 435.5 c 128,-1,50
 889 474 889 474 954.5 540.5 c 128,-1,51
 1020 607 1020 607 1057.5 696.5 c 128,-1,52
 1095 786 1095 786 1095 887 c 256,53,54
 1095 988 1095 988 1057.5 1077 c 128,-1,55
 1020 1166 1020 1166 954.5 1233 c 128,-1,56
 889 1300 889 1300 801 1338.5 c 128,-1,57
 713 1377 713 1377 612 1377 c 256,58,59
 511 1377 511 1377 422.5 1338.5 c 128,-1,60
 334 1300 334 1300 269 1233 c 128,-1,61
 204 1166 204 1166 166.5 1077 c 128,-1,62
 129 988 129 988 129 887 c 256,43,44
EndSplineSet
EndChar

StartChar: summation
Encoding: 296 8721 296
Width: 301
GlyphClass: 2
Flags: W
HStem: 0 93<143 292> 728 99<187 293> 1366 97<143 292>
DStem2: 32 0 143 93 0.0670324 0.997751<100.231 736.753>
LayerCount: 2
Fore
SplineSet
292 1366 m 1,0,-1
 143 1366 l 1,1,-1
 187 827 l 1,2,-1
 293 827 l 1,3,-1
 293 728 l 1,4,-1
 187 728 l 1,5,-1
 143 93 l 1,6,-1
 292 93 l 1,7,-1
 292 0 l 1,8,-1
 32 0 l 1,9,-1
 84 774 l 1,10,-1
 32 1463 l 1,11,-1
 292 1463 l 1,12,-1
 292 1366 l 1,0,-1
EndSplineSet
EndChar

StartChar: minus
Encoding: 297 8722 297
Width: 405
GlyphClass: 2
Flags: W
HStem: 623 112<34 370>
VStem: 34 336<623 735>
LayerCount: 2
Fore
SplineSet
370 623 m 1,0,-1
 34 623 l 1,1,-1
 34 735 l 1,2,-1
 370 735 l 1,3,-1
 370 623 l 1,0,-1
EndSplineSet
EndChar

StartChar: radical
Encoding: 298 8730 298
Width: 445
GlyphClass: 2
Flags: W
HStem: 0 21G<184.645 349.08> 671 67<0 108> 1443 20G<309.219 427>
VStem: 310 117<1197.51 1463>
DStem2: 213 738 108 671 0.116927 -0.99314<54.2631 480.568>
LayerCount: 2
Fore
SplineSet
213 738 m 1,0,-1
 263 260 l 1,1,-1
 310 1463 l 1,2,-1
 427 1463 l 1,3,-1
 348 0 l 1,4,-1
 187 0 l 1,5,-1
 108 671 l 1,6,-1
 0 671 l 1,7,-1
 0 738 l 1,8,-1
 213 738 l 1,0,-1
EndSplineSet
EndChar

StartChar: infinity
Encoding: 299 8734 299
Width: 617
GlyphClass: 2
Flags: W
HStem: 514 100<95.7209 236.348 385.029 520.368> 803 100<95.5612 236.348 385.029 520.537>
VStem: 12 77<621.111 795.889> 528 76<622.156 795.889>
DStem2: 310 774 259 728 0.547736 -0.836651<-100.244 0 110.667 212.701> 272 708 310 643 0.534907 0.844911<-130.674 -34.5927 76.0906 175.404>
LayerCount: 2
Fore
SplineSet
604 709 m 0,0,1
 604 670 604 670 595.5 635 c 128,-1,2
 587 600 587 600 570 573 c 128,-1,3
 553 546 553 546 527.5 530 c 128,-1,4
 502 514 502 514 468 514 c 0,5,6
 430 514 430 514 401 535.5 c 128,-1,7
 372 557 372 557 347 589 c 0,8,9
 328 614 328 614 310 643 c 1,10,11
 292 614 292 614 272 589 c 0,12,13
 247 557 247 557 217 535.5 c 128,-1,14
 187 514 187 514 149 514 c 0,15,16
 114 514 114 514 88.5 530 c 128,-1,17
 63 546 63 546 46 573 c 128,-1,18
 29 600 29 600 20.5 635 c 128,-1,19
 12 670 12 670 12 709 c 0,20,21
 12 747 12 747 20.5 782 c 128,-1,22
 29 817 29 817 46 844 c 128,-1,23
 63 871 63 871 88.5 887 c 128,-1,24
 114 903 114 903 149 903 c 0,25,26
 187 903 187 903 217 881.5 c 128,-1,27
 247 860 247 860 272 828 c 0,28,29
 292 802 292 802 310 774 c 1,30,31
 328 802 328 802 347 828 c 1,32,33
 372 860 372 860 401 881.5 c 128,-1,34
 430 903 430 903 468 903 c 0,35,36
 502 903 502 903 527.5 887 c 128,-1,37
 553 871 553 871 570 844 c 128,-1,38
 587 817 587 817 595.5 782 c 128,-1,39
 604 747 604 747 604 709 c 0,0,1
259 728 m 0,40,41
 238 760 238 760 214 781.5 c 128,-1,42
 190 803 190 803 161 803 c 0,43,44
 139 803 139 803 125 795.5 c 128,-1,45
 111 788 111 788 103 775 c 128,-1,46
 95 762 95 762 92 745 c 128,-1,47
 89 728 89 728 89 709 c 256,48,49
 89 690 89 690 92 673 c 128,-1,50
 95 656 95 656 103 643 c 128,-1,51
 111 630 111 630 125 622 c 128,-1,52
 139 614 139 614 161 614 c 0,53,54
 190 614 190 614 214 635.5 c 128,-1,55
 238 657 238 657 259 689 c 0,56,57
 266 698 266 698 272 708 c 1,58,59
 266 718 266 718 259 728 c 0,40,41
528 709 m 256,60,61
 528 728 528 728 524.5 745 c 128,-1,62
 521 762 521 762 513 775 c 128,-1,63
 505 788 505 788 491 795.5 c 128,-1,64
 477 803 477 803 455 803 c 0,65,66
 429 803 429 803 406.5 781.5 c 128,-1,67
 384 760 384 760 363 728 c 0,68,69
 356 718 356 718 350 708 c 1,70,71
 357 698 357 698 363 689 c 0,72,73
 384 657 384 657 406.5 635.5 c 128,-1,74
 429 614 429 614 455 614 c 0,75,76
 477 614 477 614 491 622 c 128,-1,77
 505 630 505 630 513 643 c 128,-1,78
 521 656 521 656 524.5 673 c 128,-1,79
 528 690 528 690 528 709 c 256,60,61
EndSplineSet
EndChar

StartChar: integral
Encoding: 300 8747 300
Width: 360
GlyphClass: 2
Flags: W
HStem: 0 21G<20 128.746> 630 88<189 281> 1181 82<230 368>
VStem: 20 107<0 107>
DStem2: 20 0 127 0 0.0867658 0.996229<9.28394 641.68 729.956 1194.77>
LayerCount: 2
Fore
SplineSet
368 1181 m 1,0,-1
 230 1181 l 1,1,-1
 189 718 l 1,2,-1
 289 718 l 1,3,-1
 281 630 l 1,4,-1
 182 630 l 1,5,-1
 127 0 l 1,6,-1
 20 0 l 1,7,-1
 130 1263 l 1,8,-1
 375 1263 l 1,9,-1
 368 1181 l 1,0,-1
EndSplineSet
EndChar

StartChar: approxequal
Encoding: 301 8776 301
Width: 582
GlyphClass: 2
Flags: W
HStem: 498 96<100.879 524.479> 535 95<77.0007 470.559> 660 96<100.879 526.369> 697 95<77.0007 475.559>
VStem: 20 57<498 534.609 660 696.609> 505 56<595 630 756.001 792>
DStem2: 144.5 789.5 138 694.5 0.994129 -0.108204<-34.878 337.679> 144.5 627.5 138 532.5 0.994393 -0.10575<-35.117 337.686>
LayerCount: 2
Fore
SplineSet
20 660 m 1,0,1
 20 688 20 688 23.5 712 c 128,-1,2
 27 736 27 736 37 754 c 128,-1,3
 47 772 47 772 62.5 782 c 128,-1,4
 78 792 78 792 102 792 c 0,5,6
 115 792 115 792 144.5 789.5 c 128,-1,7
 174 787 174 787 211 783 c 128,-1,8
 248 779 248 779 289 774 c 128,-1,9
 330 769 330 769 368 765 c 128,-1,10
 406 761 406 761 436 758.5 c 128,-1,11
 466 756 466 756 481 756 c 0,12,13
 489 756 489 756 494 761.5 c 128,-1,14
 499 767 499 767 501 774 c 0,15,16
 504 782 504 782 505 792 c 1,17,-1
 561 792 l 1,18,19
 564 755 564 755 556 726 c 0,20,21
 549 701 549 701 531 680.5 c 128,-1,22
 513 660 513 660 476 660 c 0,23,24
 462 660 462 660 432 662.5 c 128,-1,25
 402 665 402 665 363.5 669.5 c 128,-1,26
 325 674 325 674 283 678.5 c 128,-1,27
 241 683 241 683 203.5 687.5 c 128,-1,28
 166 692 166 692 138 694.5 c 128,-1,29
 110 697 110 697 99 697 c 0,30,31
 91 697 91 697 86.5 691 c 128,-1,32
 82 685 82 685 80 678 c 0,33,34
 77 670 77 670 77 660 c 1,35,-1
 20 660 l 1,0,1
20 498 m 1,36,37
 20 526 20 526 23.5 550 c 128,-1,38
 27 574 27 574 37 592 c 128,-1,39
 47 610 47 610 62.5 620 c 128,-1,40
 78 630 78 630 102 630 c 0,41,42
 115 630 115 630 144.5 627.5 c 128,-1,43
 174 625 174 625 211 621 c 128,-1,44
 248 617 248 617 289 612 c 128,-1,45
 330 607 330 607 368 603 c 128,-1,46
 406 599 406 599 436 596.5 c 128,-1,47
 466 594 466 594 481 594 c 0,48,49
 489 594 489 594 494 599.5 c 128,-1,50
 499 605 499 605 501 612 c 0,51,52
 504 620 504 620 505 630 c 1,53,-1
 561 630 l 1,54,55
 562 593 562 593 553 564 c 0,56,57
 545 539 545 539 526.5 518.5 c 128,-1,58
 508 498 508 498 471 498 c 0,59,60
 457 498 457 498 427 500.5 c 128,-1,61
 397 503 397 503 359.5 507.5 c 128,-1,62
 322 512 322 512 280.5 516.5 c 128,-1,63
 239 521 239 521 202.5 525.5 c 128,-1,64
 166 530 166 530 138 532.5 c 128,-1,65
 110 535 110 535 99 535 c 0,66,67
 91 535 91 535 86.5 529 c 128,-1,68
 82 523 82 523 80 516 c 0,69,70
 77 508 77 508 77 498 c 1,71,-1
 20 498 l 1,36,37
EndSplineSet
EndChar

StartChar: lessequal
Encoding: 303 8804 303
Width: 353
GlyphClass: 2
Flags: W
HStem: 202 121<19 332>
VStem: 13 320
LayerCount: 2
Fore
SplineSet
333 1113 m 1,0,-1
 333 897 l 1,1,-1
 175 732 l 1,2,-1
 333 585 l 1,3,-1
 333 365 l 1,4,-1
 13 732 l 1,5,-1
 333 1113 l 1,0,-1
19 323 m 1,6,-1
 332 323 l 1,7,-1
 332 202 l 1,8,-1
 19 202 l 1,9,-1
 19 323 l 1,6,-1
EndSplineSet
EndChar

StartChar: greaterequal
Encoding: 304 8805 304
Width: 353
GlyphClass: 2
Flags: W
HStem: 202 121<21 334>
VStem: 20 320
LayerCount: 2
Fore
SplineSet
340 732 m 1,0,-1
 20 365 l 1,1,-1
 20 585 l 1,2,-1
 178 732 l 1,3,-1
 20 897 l 1,4,-1
 20 1113 l 1,5,-1
 340 732 l 1,0,-1
334 202 m 1,6,-1
 21 202 l 1,7,-1
 21 323 l 1,8,-1
 334 323 l 1,9,-1
 334 202 l 1,6,-1
EndSplineSet
EndChar

StartChar: lozenge
Encoding: 305 9674 305
Width: 380
GlyphClass: 2
Flags: W
HStem: -17 65<129.778 251.794> 1461 20G<176 205.5>
VStem: 43 72<71.205 676.529> 43 54<264.471 818> 129.5 23.5<506.689 635.274> 171 51.5<523.908 884> 183.5 18.5<520.656 584.563> 202 13<509.721 541> 240 10.5<546 590.088> 262 75<55.3296 651.714> 281 56<290.286 826>
LayerCount: 2
Fore
SplineSet
337 108 m 2,0,1
 337 82 337 82 325 59.5 c 128,-1,2
 313 37 313 37 293 20 c 128,-1,3
 273 3 273 3 246.5 -7 c 128,-1,4
 220 -17 220 -17 191 -17 c 0,5,6
 161 -17 161 -17 134 -7 c 128,-1,7
 107 3 107 3 86.5 20.5 c 128,-1,8
 66 38 66 38 54.5 61.5 c 128,-1,9
 43 85 43 85 43 112 c 2,10,-1
 43 1354 l 2,11,12
 43 1381 43 1381 54.5 1404 c 128,-1,13
 66 1427 66 1427 86.5 1444 c 128,-1,14
 107 1461 107 1461 134 1471 c 128,-1,15
 161 1481 161 1481 191 1481 c 0,16,17
 220 1481 220 1481 246.5 1471.5 c 128,-1,18
 273 1462 273 1462 293 1445.5 c 128,-1,19
 313 1429 313 1429 325 1406 c 128,-1,20
 337 1383 337 1383 337 1356 c 2,21,-1
 337 108 l 2,0,1
281 826 m 1,22,23
 279 820 279 820 276.5 796.5 c 128,-1,24
 274 773 274 773 271.5 742 c 128,-1,25
 269 711 269 711 266 676 c 128,-1,26
 263 641 263 641 259 612 c 128,-1,27
 255 583 255 583 250.5 564 c 128,-1,28
 246 545 246 545 240 546 c 1,29,30
 244 614 244 614 242.5 675.5 c 128,-1,31
 241 737 241 737 238 783 c 128,-1,32
 235 829 235 829 231 856 c 2,33,-1
 227 884 l 1,34,-1
 226 846 l 2,35,36
 225 808 225 808 222.5 751 c 128,-1,37
 220 694 220 694 215 628.5 c 128,-1,38
 210 563 210 563 202 508 c 1,39,40
 190 541 190 541 183.5 582 c 128,-1,41
 177 623 177 623 174 665 c 128,-1,42
 171 707 171 707 171 747 c 128,-1,43
 171 787 171 787 172 818 c 128,-1,44
 173 849 173 849 174 868 c 2,45,-1
 175 887 l 1,46,47
 163 862 163 862 157.5 823 c 128,-1,48
 152 784 152 784 150.5 732.5 c 128,-1,49
 149 681 149 681 150 619 c 128,-1,50
 151 557 151 557 153 486 c 1,51,52
 138 513 138 513 129.5 558 c 128,-1,53
 121 603 121 603 116 652 c 128,-1,54
 111 701 111 701 107 746 c 128,-1,55
 103 791 103 791 97 818 c 1,56,-1
 115 123 l 2,57,58
 116 93 116 93 132.5 70.5 c 128,-1,59
 149 48 149 48 191 48 c 0,60,61
 211 48 211 48 224 54.5 c 128,-1,62
 237 61 237 61 245.5 71 c 128,-1,63
 254 81 254 81 257.5 93 c 128,-1,64
 261 105 261 105 262 116 c 2,65,-1
 281 826 l 1,22,23
EndSplineSet
EndChar

StartChar: apple
Encoding: 323 -1 320
Width: 380
GlyphClass: 2
Flags: W
HStem: -17 65<129.778 251.794> 1461 20G<176 205.5>
VStem: 43 72<71.205 676.529> 43 54<264.471 818> 129.5 23.5<506.689 635.274> 171 51.5<523.908 884> 183.5 18.5<520.656 584.563> 202 13<509.721 541> 240 10.5<546 590.088> 262 75<55.3296 651.714> 281 56<290.286 826>
LayerCount: 2
Fore
SplineSet
337 108 m 2,0,1
 337 82 337 82 325 59.5 c 128,-1,2
 313 37 313 37 293 20 c 128,-1,3
 273 3 273 3 246.5 -7 c 128,-1,4
 220 -17 220 -17 191 -17 c 0,5,6
 161 -17 161 -17 134 -7 c 128,-1,7
 107 3 107 3 86.5 20.5 c 128,-1,8
 66 38 66 38 54.5 61.5 c 128,-1,9
 43 85 43 85 43 112 c 2,10,-1
 43 1354 l 2,11,12
 43 1381 43 1381 54.5 1404 c 128,-1,13
 66 1427 66 1427 86.5 1444 c 128,-1,14
 107 1461 107 1461 134 1471 c 128,-1,15
 161 1481 161 1481 191 1481 c 0,16,17
 220 1481 220 1481 246.5 1471.5 c 128,-1,18
 273 1462 273 1462 293 1445.5 c 128,-1,19
 313 1429 313 1429 325 1406 c 128,-1,20
 337 1383 337 1383 337 1356 c 2,21,-1
 337 108 l 2,0,1
281 826 m 1,22,23
 279 820 279 820 276.5 796.5 c 128,-1,24
 274 773 274 773 271.5 742 c 128,-1,25
 269 711 269 711 266 676 c 128,-1,26
 263 641 263 641 259 612 c 128,-1,27
 255 583 255 583 250.5 564 c 128,-1,28
 246 545 246 545 240 546 c 1,29,30
 244 614 244 614 242.5 675.5 c 128,-1,31
 241 737 241 737 238 783 c 128,-1,32
 235 829 235 829 231 856 c 2,33,-1
 227 884 l 1,34,-1
 226 846 l 2,35,36
 225 808 225 808 222.5 751 c 128,-1,37
 220 694 220 694 215 628.5 c 128,-1,38
 210 563 210 563 202 508 c 1,39,40
 190 541 190 541 183.5 582 c 128,-1,41
 177 623 177 623 174 665 c 128,-1,42
 171 707 171 707 171 747 c 128,-1,43
 171 787 171 787 172 818 c 128,-1,44
 173 849 173 849 174 868 c 2,45,-1
 175 887 l 1,46,47
 163 862 163 862 157.5 823 c 128,-1,48
 152 784 152 784 150.5 732.5 c 128,-1,49
 149 681 149 681 150 619 c 128,-1,50
 151 557 151 557 153 486 c 1,51,52
 138 513 138 513 129.5 558 c 128,-1,53
 121 603 121 603 116 652 c 128,-1,54
 111 701 111 701 107 746 c 128,-1,55
 103 791 103 791 97 818 c 1,56,-1
 115 123 l 2,57,58
 116 93 116 93 132.5 70.5 c 128,-1,59
 149 48 149 48 191 48 c 0,60,61
 211 48 211 48 224 54.5 c 128,-1,62
 237 61 237 61 245.5 71 c 128,-1,63
 254 81 254 81 257.5 93 c 128,-1,64
 261 105 261 105 262 116 c 2,65,-1
 281 826 l 1,22,23
EndSplineSet
EndChar

